<svg width="1057" height="550" viewBox="0 0 1057 550" fill="none" xmlns="http://www.w3.org/2000/svg">
<g filter="url(#filter0_d_143_1079)">
<rect x="6.64258" y="4.26538" width="1044" height="537.024" rx="20" fill="white"/>
</g>
<path d="M101.173 496.108H102.406V503.386C102.406 504.036 102.287 504.588 102.048 505.042C101.809 505.496 101.473 505.841 101.039 506.076C100.605 506.311 100.093 506.429 99.5026 506.429C98.9457 506.429 98.4502 506.328 98.016 506.126C97.5819 505.92 97.2405 505.629 96.9919 505.251C96.7433 504.873 96.619 504.424 96.619 503.903H97.8321C97.8321 504.192 97.9034 504.444 98.0459 504.659C98.1917 504.871 98.3906 505.037 98.6425 505.156C98.8944 505.276 99.1811 505.335 99.5026 505.335C99.8572 505.335 100.159 505.261 100.407 505.112C100.656 504.962 100.845 504.744 100.974 504.455C101.107 504.164 101.173 503.807 101.173 503.386V496.108ZM106.134 506.29H104.842L108.58 496.108H109.853L113.592 506.29H112.299L109.257 497.719H109.177L106.134 506.29ZM106.612 502.313H111.822V503.406H106.612V502.313ZM124.092 496.108V506.29H122.898L117.35 498.295H117.251V506.29H116.018V496.108H117.211L122.779 504.122H122.879V496.108H124.092Z" fill="#615E83"/>
<path d="M178.002 506.29V496.108H184.107V497.202H179.235V500.642H183.65V501.736H179.235V506.29H178.002ZM187.059 506.29V496.108H193.204V497.202H188.292V500.642H192.885V501.736H188.292V505.196H193.283V506.29H187.059ZM196.266 506.29V496.108H199.825C200.535 496.108 201.12 496.231 201.58 496.476C202.041 496.718 202.384 497.044 202.61 497.455C202.835 497.863 202.948 498.315 202.948 498.813C202.948 499.25 202.87 499.611 202.714 499.896C202.562 500.181 202.359 500.407 202.107 500.572C201.859 500.738 201.589 500.861 201.297 500.94V501.04C201.609 501.06 201.922 501.169 202.237 501.368C202.552 501.567 202.815 501.852 203.027 502.223C203.239 502.594 203.345 503.048 203.345 503.585C203.345 504.096 203.229 504.555 202.997 504.962C202.765 505.37 202.399 505.693 201.899 505.932C201.398 506.17 200.747 506.29 199.945 506.29H196.266ZM197.499 505.196H199.945C200.75 505.196 201.322 505.04 201.66 504.729C202.001 504.414 202.172 504.033 202.172 503.585C202.172 503.241 202.084 502.922 201.909 502.631C201.733 502.336 201.483 502.1 201.158 501.925C200.833 501.746 200.449 501.656 200.004 501.656H197.499V505.196ZM197.499 500.582H199.786C200.157 500.582 200.492 500.509 200.79 500.364C201.092 500.218 201.33 500.012 201.506 499.747C201.685 499.482 201.774 499.17 201.774 498.813C201.774 498.365 201.619 497.986 201.307 497.674C200.995 497.359 200.502 497.202 199.825 497.202H197.499V500.582Z" fill="#615E83"/>
<path d="M256.681 496.108H258.152L261.612 504.56H261.732L265.192 496.108H266.664V506.29H265.51V498.554H265.411L262.229 506.29H261.115L257.933 498.554H257.834V506.29H256.681V496.108ZM270.393 506.29H269.101L272.839 496.108H274.112L277.851 506.29H276.558L273.515 497.719H273.436L270.393 506.29ZM270.871 502.313H276.081V503.406H270.871V502.313ZM280.277 506.29V496.108H283.717C284.512 496.108 285.165 496.244 285.676 496.516C286.186 496.784 286.564 497.154 286.809 497.624C287.055 498.095 287.177 498.63 287.177 499.23C287.177 499.83 287.055 500.362 286.809 500.826C286.564 501.29 286.188 501.655 285.681 501.92C285.174 502.182 284.526 502.313 283.737 502.313H280.953V501.199H283.697C284.241 501.199 284.678 501.119 285.01 500.96C285.344 500.801 285.586 500.576 285.735 500.284C285.888 499.989 285.964 499.638 285.964 499.23C285.964 498.822 285.888 498.466 285.735 498.161C285.583 497.856 285.339 497.621 285.005 497.455C284.67 497.286 284.227 497.202 283.677 497.202H281.51V506.29H280.277ZM285.069 501.716L287.575 506.29H286.143L283.677 501.716H285.069Z" fill="#615E83"/>
<path d="M340.651 506.29H339.359L343.097 496.108H344.37L348.109 506.29H346.816L343.774 497.719H343.694L340.651 506.29ZM341.129 502.313H346.339V503.406H341.129V502.313ZM350.535 506.29V496.108H353.975C354.774 496.108 355.427 496.252 355.934 496.541C356.444 496.826 356.822 497.212 357.067 497.699C357.313 498.186 357.435 498.73 357.435 499.33C357.435 499.929 357.313 500.475 357.067 500.965C356.825 501.456 356.451 501.847 355.944 502.139C355.437 502.427 354.787 502.571 353.995 502.571H351.529V501.477H353.955C354.502 501.477 354.941 501.383 355.273 501.194C355.604 501.005 355.844 500.75 355.994 500.428C356.146 500.103 356.222 499.737 356.222 499.33C356.222 498.922 356.146 498.557 355.994 498.236C355.844 497.914 355.602 497.662 355.268 497.48C354.933 497.295 354.489 497.202 353.935 497.202H351.768V506.29H350.535ZM360.261 506.29V496.108H363.702C364.497 496.108 365.15 496.244 365.661 496.516C366.171 496.784 366.549 497.154 366.794 497.624C367.039 498.095 367.162 498.63 367.162 499.23C367.162 499.83 367.039 500.362 366.794 500.826C366.549 501.29 366.173 501.655 365.666 501.92C365.158 502.182 364.51 502.313 363.722 502.313H360.938V501.199H363.682C364.225 501.199 364.663 501.119 364.994 500.96C365.329 500.801 365.571 500.576 365.72 500.284C365.873 499.989 365.949 499.638 365.949 499.23C365.949 498.822 365.873 498.466 365.72 498.161C365.568 497.856 365.324 497.621 364.989 497.455C364.655 497.286 364.212 497.202 363.662 497.202H361.494V506.29H360.261ZM365.054 501.716L367.56 506.29H366.128L363.662 501.716H365.054Z" fill="#615E83"/>
<path d="M420.061 496.108H421.533L424.993 504.56H425.112L428.572 496.108H430.044V506.29H428.89V498.554H428.791L425.609 506.29H424.496L421.314 498.554H421.214V506.29H420.061V496.108ZM433.774 506.29H432.481L436.22 496.108H437.492L441.231 506.29H439.938L436.896 497.719H436.816L433.774 506.29ZM434.251 502.313H439.461V503.406H434.251V502.313ZM441.743 496.108H443.155L445.979 500.861H446.098L448.922 496.108H450.334L446.655 502.094V506.29H445.422V502.094L441.743 496.108Z" fill="#615E83"/>
<path d="M507.062 496.108H508.295V503.386C508.295 504.036 508.176 504.588 507.937 505.042C507.699 505.496 507.362 505.841 506.928 506.076C506.494 506.311 505.982 506.429 505.392 506.429C504.835 506.429 504.339 506.328 503.905 506.126C503.471 505.92 503.13 505.629 502.881 505.251C502.632 504.873 502.508 504.424 502.508 503.903H503.721C503.721 504.192 503.793 504.444 503.935 504.659C504.081 504.871 504.28 505.037 504.532 505.156C504.784 505.276 505.07 505.335 505.392 505.335C505.746 505.335 506.048 505.261 506.297 505.112C506.545 504.962 506.734 504.744 506.863 504.455C506.996 504.164 507.062 503.807 507.062 503.386V496.108ZM518.288 496.108H519.521V502.849C519.521 503.545 519.357 504.167 519.029 504.714C518.704 505.257 518.245 505.687 517.651 506.001C517.058 506.313 516.362 506.469 515.563 506.469C514.765 506.469 514.069 506.313 513.475 506.001C512.882 505.687 512.421 505.257 512.093 504.714C511.768 504.167 511.606 503.545 511.606 502.849V496.108H512.839V502.75C512.839 503.247 512.948 503.69 513.167 504.077C513.386 504.462 513.697 504.765 514.102 504.987C514.509 505.206 514.997 505.315 515.563 505.315C516.13 505.315 516.617 505.206 517.025 504.987C517.433 504.765 517.744 504.462 517.96 504.077C518.178 503.69 518.288 503.247 518.288 502.75V496.108ZM530.897 496.108V506.29H529.704L524.155 498.295H524.056V506.29H522.823V496.108H524.016L529.584 504.122H529.684V496.108H530.897Z" fill="#615E83"/>
<path d="M588.665 496.108H589.898V503.386C589.898 504.036 589.778 504.588 589.54 505.042C589.301 505.496 588.965 505.841 588.53 506.076C588.096 506.311 587.584 506.429 586.994 506.429C586.437 506.429 585.942 506.328 585.508 506.126C585.074 505.92 584.732 505.629 584.484 505.251C584.235 504.873 584.111 504.424 584.111 503.903H585.324C585.324 504.192 585.395 504.444 585.538 504.659C585.683 504.871 585.882 505.037 586.134 505.156C586.386 505.276 586.673 505.335 586.994 505.335C587.349 505.335 587.651 505.261 587.899 505.112C588.148 504.962 588.337 504.744 588.466 504.455C588.598 504.164 588.665 503.807 588.665 503.386V496.108ZM599.89 496.108H601.123V502.849C601.123 503.545 600.959 504.167 600.631 504.714C600.306 505.257 599.847 505.687 599.254 506.001C598.661 506.313 597.965 506.469 597.166 506.469C596.367 506.469 595.671 506.313 595.078 506.001C594.485 505.687 594.024 505.257 593.696 504.714C593.371 504.167 593.209 503.545 593.209 502.849V496.108H594.441V502.75C594.441 503.247 594.551 503.69 594.77 504.077C594.988 504.462 595.3 504.765 595.704 504.987C596.112 505.206 596.599 505.315 597.166 505.315C597.733 505.315 598.22 505.206 598.628 504.987C599.035 504.765 599.347 504.462 599.562 504.077C599.781 503.69 599.89 503.247 599.89 502.75V496.108ZM604.425 506.29V496.108H605.658V505.196H610.391V506.29H604.425Z" fill="#615E83"/>
<path d="M663.76 506.29H662.467L666.206 496.108H667.479L671.217 506.29H669.925L666.882 497.719H666.802L663.76 506.29ZM664.237 502.313H669.447V503.406H664.237V502.313ZM680.325 496.108H681.558V502.849C681.558 503.545 681.394 504.167 681.066 504.714C680.741 505.257 680.282 505.687 679.689 506.001C679.095 506.313 678.399 506.469 677.6 506.469C676.802 506.469 676.106 506.313 675.512 506.001C674.919 505.687 674.458 505.257 674.13 504.714C673.806 504.167 673.643 503.545 673.643 502.849V496.108H674.876V502.75C674.876 503.247 674.985 503.69 675.204 504.077C675.423 504.462 675.734 504.765 676.139 504.987C676.547 505.206 677.034 505.315 677.6 505.315C678.167 505.315 678.654 505.206 679.062 504.987C679.47 504.765 679.781 504.462 679.997 504.077C680.216 503.69 680.325 503.247 680.325 502.75V496.108ZM691.82 499.29C691.711 498.955 691.567 498.655 691.388 498.39C691.212 498.121 691.002 497.893 690.756 497.704C690.514 497.515 690.239 497.371 689.931 497.271C689.623 497.172 689.285 497.122 688.917 497.122C688.314 497.122 687.765 497.278 687.271 497.59C686.777 497.901 686.385 498.36 686.093 498.967C685.801 499.573 685.656 500.317 685.656 501.199C685.656 502.081 685.803 502.825 686.098 503.431C686.393 504.038 686.792 504.497 687.296 504.808C687.8 505.12 688.367 505.276 688.996 505.276C689.58 505.276 690.093 505.151 690.538 504.903C690.985 504.651 691.333 504.296 691.582 503.839C691.834 503.378 691.959 502.836 691.959 502.213L692.337 502.293H689.275V501.199H693.153V502.293C693.153 503.131 692.974 503.86 692.616 504.48C692.261 505.1 691.771 505.581 691.144 505.922C690.521 506.26 689.805 506.429 688.996 506.429C688.095 506.429 687.303 506.217 686.62 505.793C685.941 505.368 685.41 504.765 685.029 503.983C684.651 503.201 684.462 502.273 684.462 501.199C684.462 500.393 684.57 499.669 684.785 499.026C685.004 498.38 685.312 497.83 685.71 497.376C686.108 496.922 686.579 496.574 687.122 496.332C687.666 496.09 688.264 495.969 688.917 495.969C689.454 495.969 689.954 496.05 690.418 496.212C690.886 496.371 691.302 496.599 691.666 496.893C692.034 497.185 692.341 497.535 692.586 497.942C692.831 498.347 693 498.796 693.093 499.29H691.82Z" fill="#615E83"/>
<path d="M751.71 498.653C751.651 498.15 751.409 497.759 750.984 497.48C750.56 497.202 750.04 497.063 749.423 497.063C748.972 497.063 748.578 497.135 748.24 497.281C747.905 497.427 747.643 497.628 747.454 497.883C747.269 498.138 747.176 498.428 747.176 498.753C747.176 499.025 747.241 499.258 747.37 499.454C747.503 499.646 747.672 499.807 747.877 499.936C748.083 500.062 748.298 500.166 748.523 500.249C748.749 500.329 748.956 500.393 749.145 500.443L750.179 500.722C750.444 500.791 750.739 500.887 751.064 501.01C751.392 501.133 751.705 501.3 752.003 501.512C752.305 501.721 752.554 501.989 752.749 502.317C752.945 502.646 753.043 503.048 753.043 503.526C753.043 504.076 752.898 504.573 752.61 505.017C752.325 505.461 751.907 505.814 751.357 506.076C750.81 506.338 750.146 506.469 749.364 506.469C748.634 506.469 748.003 506.351 747.469 506.116C746.939 505.88 746.521 505.552 746.217 505.131C745.915 504.71 745.744 504.222 745.704 503.665H746.977C747.01 504.049 747.14 504.367 747.365 504.619C747.594 504.868 747.882 505.054 748.23 505.176C748.581 505.295 748.959 505.355 749.364 505.355C749.834 505.355 750.257 505.279 750.631 505.126C751.006 504.971 751.302 504.755 751.521 504.48C751.74 504.202 751.849 503.877 751.849 503.506C751.849 503.168 751.755 502.893 751.566 502.68C751.377 502.468 751.128 502.296 750.82 502.163C750.512 502.031 750.179 501.915 749.821 501.815L748.568 501.457C747.773 501.229 747.143 500.902 746.679 500.478C746.215 500.054 745.983 499.499 745.983 498.813C745.983 498.242 746.137 497.745 746.445 497.321C746.757 496.893 747.174 496.562 747.698 496.327C748.225 496.088 748.813 495.969 749.463 495.969C750.119 495.969 750.703 496.086 751.213 496.322C751.723 496.554 752.128 496.872 752.426 497.276C752.728 497.681 752.887 498.14 752.903 498.653H751.71ZM755.91 506.29V496.108H762.055V497.202H757.143V500.642H761.736V501.736H757.143V505.196H762.134V506.29H755.91ZM765.117 506.29V496.108H768.557C769.356 496.108 770.009 496.252 770.516 496.541C771.026 496.826 771.404 497.212 771.65 497.699C771.895 498.186 772.017 498.73 772.017 499.33C772.017 499.929 771.895 500.475 771.65 500.965C771.408 501.456 771.033 501.847 770.526 502.139C770.019 502.427 769.369 502.571 768.577 502.571H766.111V501.477H768.537C769.084 501.477 769.523 501.383 769.855 501.194C770.186 501.005 770.427 500.75 770.576 500.428C770.728 500.103 770.804 499.737 770.804 499.33C770.804 498.922 770.728 498.557 770.576 498.236C770.427 497.914 770.185 497.662 769.85 497.48C769.515 497.295 769.071 497.202 768.517 497.202H766.35V506.29H765.117Z" fill="#615E83"/>
<path d="M833.677 501.199C833.677 502.273 833.483 503.201 833.096 503.983C832.708 504.765 832.176 505.368 831.5 505.793C830.824 506.217 830.051 506.429 829.183 506.429C828.315 506.429 827.542 506.217 826.866 505.793C826.19 505.368 825.658 504.765 825.27 503.983C824.882 503.201 824.689 502.273 824.689 501.199C824.689 500.125 824.882 499.197 825.27 498.415C825.658 497.633 826.19 497.029 826.866 496.605C827.542 496.181 828.315 495.969 829.183 495.969C830.051 495.969 830.824 496.181 831.5 496.605C832.176 497.029 832.708 497.633 833.096 498.415C833.483 499.197 833.677 500.125 833.677 501.199ZM832.484 501.199C832.484 500.317 832.337 499.573 832.042 498.967C831.75 498.36 831.354 497.901 830.853 497.59C830.356 497.278 829.799 497.122 829.183 497.122C828.566 497.122 828.008 497.278 827.507 497.59C827.01 497.901 826.614 498.36 826.319 498.967C826.028 499.573 825.882 500.317 825.882 501.199C825.882 502.081 826.028 502.825 826.319 503.431C826.614 504.038 827.01 504.497 827.507 504.808C828.008 505.12 828.566 505.276 829.183 505.276C829.799 505.276 830.356 505.12 830.853 504.808C831.354 504.497 831.75 504.038 832.042 503.431C832.337 502.825 832.484 502.081 832.484 501.199ZM844.784 499.29H843.551C843.478 498.935 843.35 498.624 843.168 498.355C842.989 498.087 842.77 497.861 842.512 497.679C842.256 497.493 841.973 497.354 841.661 497.261C841.35 497.169 841.025 497.122 840.687 497.122C840.07 497.122 839.512 497.278 839.012 497.59C838.514 497.901 838.118 498.36 837.823 498.967C837.532 499.573 837.386 500.317 837.386 501.199C837.386 502.081 837.532 502.825 837.823 503.431C838.118 504.038 838.514 504.497 839.012 504.808C839.512 505.12 840.07 505.276 840.687 505.276C841.025 505.276 841.35 505.229 841.661 505.136C841.973 505.044 842.256 504.906 842.512 504.724C842.77 504.538 842.989 504.311 843.168 504.043C843.35 503.771 843.478 503.459 843.551 503.108H844.784C844.691 503.628 844.522 504.094 844.276 504.505C844.031 504.916 843.726 505.266 843.362 505.554C842.997 505.839 842.588 506.056 842.134 506.205C841.683 506.354 841.201 506.429 840.687 506.429C839.819 506.429 839.046 506.217 838.37 505.793C837.694 505.368 837.162 504.765 836.774 503.983C836.387 503.201 836.193 502.273 836.193 501.199C836.193 500.125 836.387 499.197 836.774 498.415C837.162 497.633 837.694 497.029 838.37 496.605C839.046 496.181 839.819 495.969 840.687 495.969C841.201 495.969 841.683 496.043 842.134 496.192C842.588 496.342 842.997 496.56 843.362 496.849C843.726 497.134 844.031 497.482 844.276 497.893C844.522 498.3 844.691 498.766 844.784 499.29ZM847.059 497.202V496.108H854.695V497.202H851.494V506.29H850.261V497.202H847.059Z" fill="#615E83"/>
<path d="M915.752 496.108V506.29H914.559L909.01 498.295H908.911V506.29H907.678V496.108H908.871L914.439 504.122H914.539V496.108H915.752ZM927.65 501.199C927.65 502.273 927.456 503.201 927.068 503.983C926.681 504.765 926.149 505.368 925.472 505.793C924.796 506.217 924.024 506.429 923.156 506.429C922.287 506.429 921.515 506.217 920.839 505.793C920.163 505.368 919.631 504.765 919.243 503.983C918.855 503.201 918.661 502.273 918.661 501.199C918.661 500.125 918.855 499.197 919.243 498.415C919.631 497.633 920.163 497.029 920.839 496.605C921.515 496.181 922.287 495.969 923.156 495.969C924.024 495.969 924.796 496.181 925.472 496.605C926.149 497.029 926.681 497.633 927.068 498.415C927.456 499.197 927.65 500.125 927.65 501.199ZM926.457 501.199C926.457 500.317 926.309 499.573 926.014 498.967C925.723 498.36 925.327 497.901 924.826 497.59C924.329 497.278 923.772 497.122 923.156 497.122C922.539 497.122 921.981 497.278 921.48 497.59C920.983 497.901 920.587 498.36 920.292 498.967C920 499.573 919.855 500.317 919.855 501.199C919.855 502.081 920 502.825 920.292 503.431C920.587 504.038 920.983 504.497 921.48 504.808C921.981 505.12 922.539 505.276 923.156 505.276C923.772 505.276 924.329 505.12 924.826 504.808C925.327 504.497 925.723 504.038 926.014 503.431C926.309 502.825 926.457 502.081 926.457 501.199ZM930.502 496.108L933.525 504.679H933.644L936.667 496.108H937.96L934.221 506.29H932.948L929.21 496.108H930.502Z" fill="#615E83"/>
<path d="M996.935 506.29H993.793V496.108H997.074C998.062 496.108 998.907 496.312 999.61 496.719C1000.31 497.124 1000.85 497.706 1001.23 498.465C1001.6 499.22 1001.79 500.125 1001.79 501.179C1001.79 502.24 1001.6 503.153 1001.22 503.918C1000.84 504.681 1000.29 505.267 999.57 505.678C998.848 506.086 997.969 506.29 996.935 506.29ZM995.026 505.196H996.856C997.698 505.196 998.395 505.034 998.949 504.709C999.502 504.384 999.915 503.922 1000.19 503.322C1000.46 502.722 1000.59 502.008 1000.59 501.179C1000.59 500.357 1000.46 499.649 1000.19 499.056C999.923 498.46 999.522 498.002 998.989 497.684C998.455 497.362 997.79 497.202 996.995 497.202H995.026V505.196ZM1004.7 506.29V496.108H1010.84V497.202H1005.93V500.642H1010.52V501.736H1005.93V505.196H1010.92V506.29H1004.7ZM1022.1 499.29H1020.86C1020.79 498.935 1020.66 498.624 1020.48 498.355C1020.3 498.087 1020.08 497.861 1019.82 497.679C1019.57 497.493 1019.29 497.354 1018.97 497.261C1018.66 497.169 1018.34 497.122 1018 497.122C1017.38 497.122 1016.82 497.278 1016.32 497.59C1015.83 497.901 1015.43 498.36 1015.14 498.967C1014.84 499.573 1014.7 500.317 1014.7 501.199C1014.7 502.081 1014.84 502.825 1015.14 503.431C1015.43 504.038 1015.83 504.497 1016.32 504.808C1016.82 505.12 1017.38 505.276 1018 505.276C1018.34 505.276 1018.66 505.229 1018.97 505.136C1019.29 505.044 1019.57 504.906 1019.82 504.724C1020.08 504.538 1020.3 504.311 1020.48 504.043C1020.66 503.771 1020.79 503.459 1020.86 503.108H1022.1C1022 503.628 1021.83 504.094 1021.59 504.505C1021.34 504.916 1021.04 505.266 1020.67 505.554C1020.31 505.839 1019.9 506.056 1019.45 506.205C1019 506.354 1018.51 506.429 1018 506.429C1017.13 506.429 1016.36 506.217 1015.68 505.793C1015.01 505.368 1014.47 504.765 1014.09 503.983C1013.7 503.201 1013.51 502.273 1013.51 501.199C1013.51 500.125 1013.7 499.197 1014.09 498.415C1014.47 497.633 1015.01 497.029 1015.68 496.605C1016.36 496.181 1017.13 495.969 1018 495.969C1018.51 495.969 1019 496.043 1019.45 496.192C1019.9 496.342 1020.31 496.56 1020.67 496.849C1021.04 497.134 1021.34 497.482 1021.59 497.893C1021.83 498.3 1022 498.766 1022.1 499.29Z" fill="#615E83"/>
<path d="M72.6426 474.449C71.7865 474.449 71.0574 474.216 70.4551 473.75C69.8528 473.28 69.3926 472.6 69.0744 471.71C68.7562 470.816 68.5971 469.737 68.5971 468.472C68.5971 467.214 68.7562 466.14 69.0744 465.25C69.3964 464.356 69.8585 463.674 70.4608 463.205C71.0668 462.731 71.7941 462.494 72.6426 462.494C73.4911 462.494 74.2164 462.731 74.8187 463.205C75.4248 463.674 75.8869 464.356 76.2051 465.25C76.527 466.14 76.688 467.214 76.688 468.472C76.688 469.737 76.5289 470.816 76.2108 471.71C75.8926 472.6 75.4324 473.28 74.8301 473.75C74.2278 474.216 73.4986 474.449 72.6426 474.449ZM72.6426 473.199C73.4911 473.199 74.1502 472.79 74.6199 471.972C75.0895 471.153 75.3244 469.987 75.3244 468.472C75.3244 467.464 75.2164 466.606 75.0005 465.898C74.7884 465.189 74.4816 464.65 74.0801 464.278C73.6824 463.907 73.2032 463.722 72.6426 463.722C71.8017 463.722 71.1445 464.136 70.671 464.966C70.1975 465.792 69.9608 466.96 69.9608 468.472C69.9608 469.479 70.0668 470.335 70.2789 471.04C70.4911 471.744 70.796 472.28 71.1937 472.648C71.5952 473.015 72.0782 473.199 72.6426 473.199Z" fill="#615E83"/>
<path d="M54.046 409.559C53.3793 409.559 52.7789 409.426 52.2449 409.161C51.7108 408.896 51.2827 408.532 50.9608 408.07C50.6388 407.608 50.4627 407.081 50.4324 406.49H51.796C51.849 407.017 52.0877 407.452 52.5119 407.797C52.9399 408.138 53.4513 408.309 54.046 408.309C54.5233 408.309 54.9475 408.197 55.3187 407.973C55.6937 407.75 55.9873 407.443 56.1994 407.053C56.4153 406.659 56.5233 406.214 56.5233 405.718C56.5233 405.21 56.4115 404.757 56.188 404.36C55.9683 403.958 55.6653 403.642 55.2789 403.411C54.8926 403.18 54.4513 403.062 53.9551 403.059C53.599 403.055 53.2335 403.11 52.8585 403.223C52.4835 403.333 52.1748 403.475 51.9324 403.649L50.6142 403.49L51.3187 397.763H57.3642V399.013H52.5005L52.0914 402.445H52.1596C52.3983 402.255 52.6975 402.098 53.0574 401.973C53.4172 401.848 53.7922 401.786 54.1824 401.786C54.8945 401.786 55.5289 401.956 56.0858 402.297C56.6464 402.634 57.0858 403.096 57.4039 403.684C57.7259 404.271 57.8869 404.941 57.8869 405.695C57.8869 406.437 57.7202 407.1 57.3869 407.684C57.0574 408.263 56.6028 408.721 56.0233 409.059C55.4437 409.392 54.7846 409.559 54.046 409.559ZM63.9395 409.559C63.0834 409.559 62.3542 409.326 61.752 408.86C61.1497 408.39 60.6895 407.71 60.3713 406.82C60.0531 405.926 59.894 404.846 59.894 403.581C59.894 402.324 60.0531 401.25 60.3713 400.36C60.6932 399.466 61.1554 398.784 61.7576 398.314C62.3637 397.841 63.091 397.604 63.9395 397.604C64.7879 397.604 65.5133 397.841 66.1156 398.314C66.7217 398.784 67.1838 399.466 67.502 400.36C67.8239 401.25 67.9849 402.324 67.9849 403.581C67.9849 404.846 67.8258 405.926 67.5076 406.82C67.1895 407.71 66.7292 408.39 66.127 408.86C65.5247 409.326 64.7955 409.559 63.9395 409.559ZM63.9395 408.309C64.7879 408.309 65.447 407.899 65.9167 407.081C66.3864 406.263 66.6213 405.096 66.6213 403.581C66.6213 402.574 66.5133 401.716 66.2974 401.007C66.0853 400.299 65.7785 399.759 65.377 399.388C64.9792 399.017 64.5001 398.831 63.9395 398.831C63.0985 398.831 62.4413 399.246 61.9679 400.076C61.4944 400.901 61.2576 402.07 61.2576 403.581C61.2576 404.589 61.3637 405.445 61.5758 406.149C61.7879 406.854 62.0929 407.39 62.4906 407.757C62.8921 408.125 63.3751 408.309 63.9395 408.309ZM71.4167 406.218L71.394 404.559H71.6667L75.4849 400.672H77.144L73.0758 404.786H72.9622L71.4167 406.218ZM70.1667 409.399V397.763H71.5076V409.399H70.1667ZM75.7122 409.399L72.3031 405.081L73.2576 404.149L77.4167 409.399H75.7122Z" fill="#615E83"/>
<path d="M46.7974 337.763V349.399H45.3883V339.24H45.3201L42.4792 341.127V339.695L45.3883 337.763H46.7974ZM53.9395 349.559C53.0834 349.559 52.3542 349.326 51.752 348.86C51.1497 348.39 50.6895 347.71 50.3713 346.82C50.0531 345.926 49.894 344.846 49.894 343.581C49.894 342.324 50.0531 341.25 50.3713 340.36C50.6932 339.466 51.1554 338.784 51.7576 338.314C52.3637 337.841 53.091 337.604 53.9395 337.604C54.7879 337.604 55.5133 337.841 56.1156 338.314C56.7217 338.784 57.1838 339.466 57.502 340.36C57.8239 341.25 57.9849 342.324 57.9849 343.581C57.9849 344.846 57.8258 345.926 57.5076 346.82C57.1895 347.71 56.7292 348.39 56.127 348.86C55.5247 349.326 54.7955 349.559 53.9395 349.559ZM53.9395 348.309C54.7879 348.309 55.447 347.899 55.9167 347.081C56.3864 346.263 56.6213 345.096 56.6213 343.581C56.6213 342.574 56.5133 341.716 56.2974 341.007C56.0853 340.299 55.7785 339.759 55.377 339.388C54.9792 339.017 54.5001 338.831 53.9395 338.831C53.0985 338.831 52.4413 339.246 51.9679 340.076C51.4944 340.901 51.2576 342.07 51.2576 343.581C51.2576 344.589 51.3637 345.445 51.5758 346.149C51.7879 346.854 52.0929 347.39 52.4906 347.757C52.8921 348.125 53.3751 348.309 53.9395 348.309ZM63.9395 349.559C63.0834 349.559 62.3542 349.326 61.752 348.86C61.1497 348.39 60.6895 347.71 60.3713 346.82C60.0531 345.926 59.894 344.846 59.894 343.581C59.894 342.324 60.0531 341.25 60.3713 340.36C60.6932 339.466 61.1554 338.784 61.7576 338.314C62.3637 337.841 63.091 337.604 63.9395 337.604C64.7879 337.604 65.5133 337.841 66.1156 338.314C66.7217 338.784 67.1838 339.466 67.502 340.36C67.8239 341.25 67.9849 342.324 67.9849 343.581C67.9849 344.846 67.8258 345.926 67.5076 346.82C67.1895 347.71 66.7292 348.39 66.127 348.86C65.5247 349.326 64.7955 349.559 63.9395 349.559ZM63.9395 348.309C64.7879 348.309 65.447 347.899 65.9167 347.081C66.3864 346.263 66.6213 345.096 66.6213 343.581C66.6213 342.574 66.5133 341.716 66.2974 341.007C66.0853 340.299 65.7785 339.759 65.377 339.388C64.9792 339.017 64.5001 338.831 63.9395 338.831C63.0985 338.831 62.4413 339.246 61.9679 340.076C61.4944 340.901 61.2576 342.07 61.2576 343.581C61.2576 344.589 61.3637 345.445 61.5758 346.149C61.7879 346.854 62.0929 347.39 62.4906 347.757C62.8921 348.125 63.3751 348.309 63.9395 348.309ZM71.4167 346.218L71.394 344.559H71.6667L75.4849 340.672H77.144L73.0758 344.786H72.9622L71.4167 346.218ZM70.1667 349.399V337.763H71.5076V349.399H70.1667ZM75.7122 349.399L72.3031 345.081L73.2576 344.149L77.4167 349.399H75.7122Z" fill="#615E83"/>
<path d="M44.046 287.522C43.3793 287.522 42.7789 287.389 42.2449 287.124C41.7108 286.859 41.2827 286.495 40.9608 286.033C40.6388 285.571 40.4627 285.045 40.4324 284.454H41.796C41.849 284.98 42.0877 285.416 42.5119 285.761C42.9399 286.101 43.4513 286.272 44.046 286.272C44.5233 286.272 44.9475 286.16 45.3187 285.937C45.6937 285.713 45.9873 285.406 46.1994 285.016C46.4153 284.622 46.5233 284.177 46.5233 283.681C46.5233 283.173 46.4115 282.721 46.188 282.323C45.9683 281.922 45.6653 281.605 45.2789 281.374C44.8926 281.143 44.4513 281.026 43.9551 281.022C43.599 281.018 43.2335 281.073 42.8585 281.187C42.4835 281.297 42.1748 281.439 41.9324 281.613L40.6142 281.454L41.3187 275.726H47.3642V276.976H42.5005L42.0914 280.408H42.1596C42.3983 280.219 42.6975 280.062 43.0574 279.937C43.4172 279.812 43.7922 279.749 44.1824 279.749C44.8945 279.749 45.5289 279.92 46.0858 280.261C46.6464 280.598 47.0858 281.06 47.4039 281.647C47.7259 282.234 47.8869 282.904 47.8869 283.658C47.8869 284.401 47.7202 285.064 47.3869 285.647C47.0574 286.226 46.6028 286.685 46.0233 287.022C45.4437 287.355 44.7846 287.522 44.046 287.522ZM53.9395 287.522C53.0834 287.522 52.3542 287.289 51.752 286.823C51.1497 286.353 50.6895 285.673 50.3713 284.783C50.0531 283.889 49.894 282.81 49.894 281.545C49.894 280.287 50.0531 279.213 50.3713 278.323C50.6932 277.429 51.1554 276.747 51.7576 276.278C52.3637 275.804 53.091 275.567 53.9395 275.567C54.7879 275.567 55.5133 275.804 56.1156 276.278C56.7217 276.747 57.1838 277.429 57.502 278.323C57.8239 279.213 57.9849 280.287 57.9849 281.545C57.9849 282.81 57.8258 283.889 57.5076 284.783C57.1895 285.673 56.7292 286.353 56.127 286.823C55.5247 287.289 54.7955 287.522 53.9395 287.522ZM53.9395 286.272C54.7879 286.272 55.447 285.863 55.9167 285.045C56.3864 284.226 56.6213 283.06 56.6213 281.545C56.6213 280.537 56.5133 279.679 56.2974 278.971C56.0853 278.262 55.7785 277.723 55.377 277.351C54.9792 276.98 54.5001 276.795 53.9395 276.795C53.0985 276.795 52.4413 277.209 51.9679 278.039C51.4944 278.865 51.2576 280.033 51.2576 281.545C51.2576 282.552 51.3637 283.408 51.5758 284.113C51.7879 284.817 52.0929 285.353 52.4906 285.721C52.8921 286.088 53.3751 286.272 53.9395 286.272ZM63.9395 287.522C63.0834 287.522 62.3542 287.289 61.752 286.823C61.1497 286.353 60.6895 285.673 60.3713 284.783C60.0531 283.889 59.894 282.81 59.894 281.545C59.894 280.287 60.0531 279.213 60.3713 278.323C60.6932 277.429 61.1554 276.747 61.7576 276.278C62.3637 275.804 63.091 275.567 63.9395 275.567C64.7879 275.567 65.5133 275.804 66.1156 276.278C66.7217 276.747 67.1838 277.429 67.502 278.323C67.8239 279.213 67.9849 280.287 67.9849 281.545C67.9849 282.81 67.8258 283.889 67.5076 284.783C67.1895 285.673 66.7292 286.353 66.127 286.823C65.5247 287.289 64.7955 287.522 63.9395 287.522ZM63.9395 286.272C64.7879 286.272 65.447 285.863 65.9167 285.045C66.3864 284.226 66.6213 283.06 66.6213 281.545C66.6213 280.537 66.5133 279.679 66.2974 278.971C66.0853 278.262 65.7785 277.723 65.377 277.351C64.9792 276.98 64.5001 276.795 63.9395 276.795C63.0985 276.795 62.4413 277.209 61.9679 278.039C61.4944 278.865 61.2576 280.033 61.2576 281.545C61.2576 282.552 61.3637 283.408 61.5758 284.113C61.7879 284.817 62.0929 285.353 62.4906 285.721C62.8921 286.088 63.3751 286.272 63.9395 286.272ZM71.4167 284.181L71.394 282.522H71.6667L75.4849 278.636H77.144L73.0758 282.749H72.9622L71.4167 284.181ZM70.1667 287.363V275.726H71.5076V287.363H70.1667ZM75.7122 287.363L72.3031 283.045L73.2576 282.113L77.4167 287.363H75.7122Z" fill="#615E83"/>
<path d="M61.2662 217.763V229.399H59.8571V219.24H59.7889L56.948 221.127V219.695L59.8571 217.763H61.2662ZM64.8173 217.763H66.4991L70.4537 227.422H70.59L74.5446 217.763H76.2264V229.399H74.9082V220.559H74.7946L71.1582 229.399H69.8855L66.2491 220.559H66.1355V229.399H64.8173V217.763Z" fill="#615E83"/>
<path d="M58.5147 168.592C57.8481 168.592 57.2477 168.46 56.7136 168.195C56.1795 167.93 55.7515 167.566 55.4295 167.104C55.1075 166.642 54.9314 166.115 54.9011 165.524H56.2647C56.3178 166.051 56.5564 166.486 56.9806 166.831C57.4087 167.172 57.92 167.342 58.5147 167.342C58.992 167.342 59.4163 167.231 59.7875 167.007C60.1625 166.784 60.456 166.477 60.6681 166.087C60.8841 165.693 60.992 165.248 60.992 164.752C60.992 164.244 60.8803 163.791 60.6568 163.394C60.4371 162.992 60.1341 162.676 59.7477 162.445C59.3613 162.214 58.92 162.096 58.4238 162.092C58.0678 162.089 57.7022 162.144 57.3272 162.257C56.9522 162.367 56.6435 162.509 56.4011 162.683L55.0829 162.524L55.7875 156.797H61.8329V158.047H56.9693L56.5602 161.479H56.6284C56.867 161.289 57.1663 161.132 57.5261 161.007C57.8859 160.882 58.2609 160.82 58.6511 160.82C59.3632 160.82 59.9977 160.99 60.5545 161.331C61.1151 161.668 61.5545 162.13 61.8727 162.717C62.1947 163.305 62.3556 163.975 62.3556 164.729C62.3556 165.471 62.189 166.134 61.8556 166.717C61.5261 167.297 61.0716 167.755 60.492 168.092C59.9125 168.426 59.2534 168.592 58.5147 168.592ZM64.8173 156.797H66.4991L70.4537 166.456H70.59L74.5446 156.797H76.2264V168.433H74.9082V159.592H74.7946L71.1582 168.433H69.8855L66.2491 159.592H66.1355V168.433H64.8173V156.797Z" fill="#615E83"/>
<line x1="96.1841" y1="469.375" x2="1018.12" y2="469.375" stroke="#E5E5EF" stroke-linecap="round"/>
<line x1="96.1841" y1="402.899" x2="1018.12" y2="402.899" stroke="#E5E5EF" stroke-linecap="round"/>
<line x1="96.1841" y1="342.899" x2="1018.12" y2="342.899" stroke="#E5E5EF" stroke-linecap="round"/>
<line x1="96.1841" y1="282.899" x2="1018.12" y2="282.899" stroke="#E5E5EF" stroke-linecap="round"/>
<line x1="96.1841" y1="222.899" x2="1018.12" y2="222.899" stroke="#E5E5EF" stroke-linecap="round"/>
<line x1="96.1841" y1="161.933" x2="1018.12" y2="161.933" stroke="#E5E5EF" stroke-linecap="round"/>
<path d="M97.4951 467.025C117.704 409.61 170.158 282.833 218.31 235.049C278.499 175.318 302.923 237.364 317.316 254.496C331.71 271.628 366.587 354.615 456.45 326.265C479.966 318.846 535.995 304.332 558.073 330.432C593.606 372.438 566.537 450.148 633.092 461.469C648.188 464.037 678.068 453.662 690.228 435.539C733.718 370.726 738.641 337.841 755.651 310.985C772.661 284.13 809.892 273.876 836.776 299.41C869.439 330.432 851.969 387.84 916.156 435.539C944.07 456.283 1008.48 465.227 1014.44 467.387" stroke="#962DFF" stroke-width="3" stroke-linecap="round" stroke-linejoin="round" stroke-dasharray="11 13"/>
<path d="M97.3984 468.229C136.121 439.711 224.511 365.565 268.296 297.122C323.028 211.568 319.284 194.312 338.272 177.573C342.488 173.857 399.601 129.637 433.05 212.188C468.132 298.766 477.306 315.417 511.797 320.68C563.825 328.619 572.064 315.016 601.156 345.478C649.704 396.315 684.579 417.316 739.102 396.315C769.81 384.486 803.329 358.497 831.253 294.642C859.178 230.786 916.598 233.218 936.808 256.825C984.179 312.157 1013.88 431.652 1017.23 465.13" stroke="#FF718B" stroke-width="3" stroke-linecap="round" stroke-linejoin="round" stroke-dasharray="11 13"/>
<path d="M96.9629 467.951C114.789 403.827 173.245 279.434 234.284 279.434C273.454 279.434 274.316 286.269 301.168 327.765C306.617 336.186 331.925 393.183 430.426 396.354C510.13 385.868 540.877 365.356 588.131 401.778C613.253 421.142 682.822 449.51 729.827 394.185C776.833 338.859 785.468 309.702 833.375 304.146C869.928 312.143 886.17 326.203 913.76 380.805C917.103 387.421 929.977 408.316 963.175 416.616C999.894 425.795 1011.02 436.143 1016.44 467.428" stroke="#93AAFD" stroke-width="3" stroke-linecap="round" stroke-linejoin="round" stroke-dasharray="11 13"/>
<line x1="38.6426" y1="112.97" x2="1018.62" y2="112.97" stroke="#E5E5EF"/>
<rect x="738.142" y="36" width="280.05" height="49" rx="14.7687" fill="#F8F8FF"/>
<rect x="909.142" y="42" width="100" height="37" rx="13" fill="#1E1B39"/>
<path d="M929.292 54.8182V65H927.75V56.3594H927.691L925.255 57.9503V56.4787L927.795 54.8182H929.292ZM932.046 65V63.8864L935.491 60.3168C935.859 59.929 936.162 59.5893 936.401 59.2976C936.643 59.0026 936.824 58.7225 936.943 58.4574C937.062 58.1922 937.122 57.9105 937.122 57.6122C937.122 57.2741 937.042 56.9825 936.883 56.7372C936.724 56.4886 936.507 56.2981 936.232 56.1655C935.957 56.0296 935.647 55.9616 935.302 55.9616C934.938 55.9616 934.619 56.0362 934.348 56.1854C934.076 56.3345 933.867 56.545 933.721 56.8168C933.575 57.0885 933.502 57.4067 933.502 57.7713H932.036C932.036 57.1515 932.178 56.6096 932.463 56.1456C932.748 55.6816 933.14 55.322 933.637 55.0668C934.134 54.8082 934.699 54.679 935.332 54.679C935.972 54.679 936.535 54.8066 937.022 55.0618C937.513 55.3137 937.896 55.6584 938.171 56.0959C938.446 56.5301 938.583 57.0206 938.583 57.5675C938.583 57.9453 938.512 58.3149 938.37 58.6761C938.23 59.0374 937.987 59.4401 937.639 59.8842C937.291 60.325 936.807 60.8603 936.187 61.4901L934.164 63.608V63.6825H938.748V65H932.046ZM944.357 65V57.3636H945.784V58.6065H945.878C946.037 58.1856 946.297 57.8575 946.659 57.6222C947.02 57.3835 947.452 57.2642 947.956 57.2642C948.467 57.2642 948.894 57.3835 949.239 57.6222C949.587 57.8608 949.844 58.1889 950.009 58.6065H950.089C950.271 58.1989 950.561 57.8741 950.959 57.6321C951.357 57.3868 951.831 57.2642 952.381 57.2642C953.074 57.2642 953.639 57.4813 954.076 57.9155C954.517 58.3497 954.737 59.0043 954.737 59.8793V65H953.251V60.0185C953.251 59.5014 953.11 59.1269 952.828 58.8949C952.547 58.6629 952.21 58.5469 951.819 58.5469C951.335 58.5469 950.959 58.696 950.691 58.9943C950.422 59.2893 950.288 59.6688 950.288 60.1328V65H948.806V59.924C948.806 59.5097 948.677 59.1766 948.419 58.9247C948.16 58.6728 947.824 58.5469 947.409 58.5469C947.128 58.5469 946.867 58.6214 946.629 58.7706C946.393 58.9164 946.203 59.1203 946.057 59.3821C945.914 59.6439 945.843 59.9472 945.843 60.2919V65H944.357ZM959.946 65.1541C959.23 65.1541 958.606 64.9901 958.072 64.6619C957.538 64.3338 957.124 63.8748 956.829 63.2848C956.534 62.6948 956.387 62.0054 956.387 61.2166C956.387 60.4245 956.534 59.7318 956.829 59.1385C957.124 58.5452 957.538 58.0845 958.072 57.7564C958.606 57.4283 959.23 57.2642 959.946 57.2642C960.662 57.2642 961.287 57.4283 961.821 57.7564C962.354 58.0845 962.769 58.5452 963.064 59.1385C963.359 59.7318 963.506 60.4245 963.506 61.2166C963.506 62.0054 963.359 62.6948 963.064 63.2848C962.769 63.8748 962.354 64.3338 961.821 64.6619C961.287 64.9901 960.662 65.1541 959.946 65.1541ZM959.951 63.9062C960.415 63.9062 960.8 63.7836 961.105 63.5384C961.41 63.2931 961.635 62.9666 961.781 62.5589C961.93 62.1513 962.005 61.7022 962.005 61.2116C962.005 60.7244 961.93 60.277 961.781 59.8693C961.635 59.4583 961.41 59.1286 961.105 58.88C960.8 58.6314 960.415 58.5071 959.951 58.5071C959.484 58.5071 959.096 58.6314 958.788 58.88C958.483 59.1286 958.256 59.4583 958.107 59.8693C957.961 60.277 957.888 60.7244 957.888 61.2116C957.888 61.7022 957.961 62.1513 958.107 62.5589C958.256 62.9666 958.483 63.2931 958.788 63.5384C959.096 63.7836 959.484 63.9062 959.951 63.9062ZM966.652 60.4659V65H965.165V57.3636H966.592V58.6065H966.687C966.862 58.2022 967.137 57.8774 967.512 57.6321C967.89 57.3868 968.365 57.2642 968.939 57.2642C969.459 57.2642 969.915 57.3736 970.306 57.5923C970.697 57.8078 971 58.1293 971.216 58.5568C971.431 58.9844 971.539 59.513 971.539 60.1428V65H970.052V60.3217C970.052 59.7682 969.908 59.3357 969.62 59.0241C969.331 58.7093 968.935 58.5518 968.432 58.5518C968.087 58.5518 967.78 58.6264 967.512 58.7756C967.247 58.9247 967.036 59.1435 966.881 59.4318C966.728 59.7169 966.652 60.0616 966.652 60.4659ZM977.097 57.3636V58.5568H972.926V57.3636H977.097ZM974.045 55.5341H975.531V62.7578C975.531 63.0462 975.574 63.2633 975.66 63.4091C975.747 63.5516 975.858 63.6494 975.993 63.7024C976.133 63.7521 976.283 63.777 976.446 63.777C976.565 63.777 976.67 63.7687 976.759 63.7521C976.849 63.7356 976.918 63.7223 976.968 63.7124L977.236 64.9403C977.15 64.9735 977.028 65.0066 976.868 65.0398C976.709 65.0762 976.51 65.0961 976.272 65.0994C975.881 65.1061 975.516 65.0365 975.178 64.8906C974.84 64.7448 974.567 64.5194 974.358 64.2145C974.149 63.9096 974.045 63.5268 974.045 63.0661V55.5341ZM980.392 60.4659V65H978.906V54.8182H980.372V58.6065H980.467C980.646 58.1955 980.919 57.8691 981.287 57.6271C981.655 57.3852 982.135 57.2642 982.729 57.2642C983.252 57.2642 983.71 57.3719 984.101 57.5874C984.495 57.8028 984.8 58.1243 985.016 58.5518C985.234 58.9761 985.344 59.5064 985.344 60.1428V65H983.857V60.3217C983.857 59.7616 983.713 59.3274 983.425 59.0192C983.136 58.7076 982.735 58.5518 982.222 58.5518C981.87 58.5518 981.555 58.6264 981.277 58.7756C981.002 58.9247 980.785 59.1435 980.626 59.4318C980.47 59.7169 980.392 60.0616 980.392 60.4659ZM993.05 59.228L991.702 59.4666C991.646 59.2943 991.557 59.1302 991.434 58.9744C991.315 58.8187 991.152 58.6911 990.947 58.5916C990.741 58.4922 990.484 58.4425 990.176 58.4425C989.755 58.4425 989.404 58.5369 989.122 58.7259C988.84 58.9115 988.7 59.1518 988.7 59.4467C988.7 59.7019 988.794 59.9074 988.983 60.0632C989.172 60.219 989.477 60.3466 989.898 60.446L991.111 60.7244C991.813 60.8868 992.337 61.1371 992.682 61.4751C993.027 61.8132 993.199 62.2524 993.199 62.7926C993.199 63.25 993.066 63.6577 992.801 64.0156C992.539 64.3703 992.173 64.6487 991.702 64.8509C991.235 65.053 990.693 65.1541 990.077 65.1541C989.222 65.1541 988.524 64.9718 987.984 64.6072C987.443 64.2393 987.112 63.7173 986.989 63.0412L988.426 62.8224C988.516 63.197 988.7 63.4804 988.978 63.6726C989.256 63.8615 989.619 63.956 990.067 63.956C990.554 63.956 990.943 63.8549 991.235 63.6527C991.527 63.4472 991.673 63.197 991.673 62.902C991.673 62.6634 991.583 62.4628 991.404 62.3004C991.228 62.138 990.958 62.0154 990.594 61.9325L989.301 61.6491C988.589 61.4867 988.062 61.2282 987.72 60.8736C987.382 60.5189 987.213 60.0698 987.213 59.5263C987.213 59.0755 987.339 58.6811 987.591 58.343C987.843 58.005 988.191 57.7415 988.635 57.5526C989.079 57.3603 989.588 57.2642 990.161 57.2642C990.987 57.2642 991.636 57.4432 992.11 57.8011C992.584 58.1558 992.897 58.6314 993.05 59.228Z" fill="white"/>
<path d="M843.126 65.5916C842.47 65.5916 841.885 65.4789 841.371 65.2535C840.861 65.0282 840.455 64.7149 840.153 64.3139C839.855 63.9095 839.692 63.4406 839.666 62.9069H840.919C840.945 63.2351 841.058 63.5184 841.257 63.7571C841.456 63.9924 841.716 64.1747 842.037 64.304C842.359 64.4332 842.715 64.4978 843.106 64.4978C843.544 64.4978 843.932 64.4216 844.27 64.2692C844.608 64.1167 844.873 63.9046 845.065 63.6328C845.257 63.361 845.353 63.0461 845.353 62.6882C845.353 62.3137 845.261 61.9839 845.075 61.6988C844.889 61.4105 844.618 61.1851 844.26 61.0227C843.902 60.8603 843.464 60.7791 842.947 60.7791H842.132V59.6853H842.947C843.352 59.6853 843.706 59.6124 844.011 59.4666C844.319 59.3208 844.56 59.1153 844.732 58.8501C844.908 58.585 844.995 58.2734 844.995 57.9155C844.995 57.5708 844.919 57.2708 844.767 57.0156C844.614 56.7604 844.399 56.5615 844.12 56.419C843.845 56.2765 843.521 56.2052 843.146 56.2052C842.795 56.2052 842.463 56.2699 842.152 56.3991C841.843 56.5251 841.592 56.709 841.396 56.951C841.2 57.1896 841.094 57.478 841.078 57.816H839.885C839.905 57.2824 840.065 56.8151 840.367 56.414C840.669 56.0097 841.063 55.6948 841.55 55.4694C842.041 55.2441 842.579 55.1314 843.166 55.1314C843.796 55.1314 844.336 55.259 844.787 55.5142C845.237 55.7661 845.584 56.0992 845.826 56.5135C846.068 56.9278 846.189 57.3752 846.189 57.8558C846.189 58.4292 846.038 58.9181 845.736 59.3224C845.438 59.7268 845.032 60.0068 844.518 60.1626V60.2422C845.161 60.3482 845.663 60.6217 846.025 61.0625C846.386 61.5 846.566 62.0419 846.566 62.6882C846.566 63.2417 846.416 63.7389 846.114 64.1797C845.816 64.6172 845.408 64.9619 844.891 65.2138C844.374 65.4657 843.786 65.5916 843.126 65.5916ZM851.921 65.5916C851.172 65.5916 850.534 65.3878 850.007 64.9801C849.48 64.5691 849.077 63.9742 848.799 63.1953C848.52 62.4131 848.381 61.4685 848.381 60.3615C848.381 59.2611 848.52 58.3215 848.799 57.5426C849.08 56.7604 849.485 56.1638 850.012 55.7528C850.542 55.3385 851.178 55.1314 851.921 55.1314C852.663 55.1314 853.298 55.3385 853.825 55.7528C854.355 56.1638 854.76 56.7604 855.038 57.5426C855.32 58.3215 855.461 59.2611 855.461 60.3615C855.461 61.4685 855.321 62.4131 855.043 63.1953C854.765 63.9742 854.362 64.5691 853.835 64.9801C853.308 65.3878 852.67 65.5916 851.921 65.5916ZM851.921 64.4978C852.663 64.4978 853.24 64.1399 853.651 63.424C854.062 62.7081 854.267 61.6872 854.267 60.3615C854.267 59.4799 854.173 58.7291 853.984 58.1094C853.799 57.4896 853.53 57.0173 853.179 56.6924C852.831 56.3676 852.411 56.2052 851.921 56.2052C851.185 56.2052 850.61 56.5682 850.196 57.294C849.781 58.0165 849.574 59.039 849.574 60.3615C849.574 61.2431 849.667 61.9922 849.853 62.6086C850.038 63.2251 850.305 63.6941 850.653 64.0156C851.004 64.3371 851.427 64.4978 851.921 64.4978ZM864.191 65.6115C863.554 65.6115 862.993 65.4507 862.505 65.1292C862.018 64.8044 861.637 64.347 861.362 63.7571C861.087 63.1638 860.949 62.4628 860.949 61.6541C860.949 60.852 861.087 60.156 861.362 59.566C861.637 58.9761 862.02 58.5203 862.51 58.1988C863.001 57.8773 863.568 57.7166 864.211 57.7166C864.708 57.7166 865.101 57.7995 865.389 57.9652C865.681 58.1276 865.903 58.3132 866.055 58.522C866.211 58.7275 866.332 58.8965 866.418 59.0291H866.517V55.2706H867.691V65.4524H866.557V64.2791H866.418C866.332 64.4183 866.209 64.594 866.05 64.8061C865.891 65.0149 865.664 65.2022 865.369 65.3679C865.074 65.5303 864.681 65.6115 864.191 65.6115ZM864.35 64.5575C864.821 64.5575 865.218 64.4349 865.543 64.1896C865.868 63.941 866.115 63.598 866.284 63.1605C866.453 62.7197 866.537 62.2109 866.537 61.6342C866.537 61.0641 866.455 60.5653 866.289 60.1378C866.123 59.7069 865.878 59.3721 865.553 59.1335C865.228 58.8915 864.827 58.7706 864.35 58.7706C863.853 58.7706 863.438 58.8982 863.107 59.1534C862.779 59.4053 862.532 59.7483 862.366 60.1825C862.204 60.6134 862.123 61.0973 862.123 61.6342C862.123 62.1778 862.205 62.6716 862.371 63.1157C862.54 63.5566 862.789 63.9079 863.117 64.1697C863.448 64.4282 863.859 64.5575 864.35 64.5575ZM872.25 65.6314C871.766 65.6314 871.327 65.5402 870.932 65.3579C870.538 65.1723 870.225 64.9055 869.993 64.5575C869.761 64.2062 869.645 63.7819 869.645 63.2848C869.645 62.8473 869.731 62.4926 869.903 62.2209C870.075 61.9458 870.306 61.7303 870.594 61.5746C870.883 61.4188 871.201 61.3028 871.549 61.2265C871.9 61.147 872.253 61.084 872.608 61.0376C873.072 60.978 873.448 60.9332 873.736 60.9034C874.028 60.8702 874.24 60.8156 874.373 60.7393C874.508 60.6631 874.576 60.5305 874.576 60.3416V60.3018C874.576 59.8113 874.442 59.4301 874.174 59.1584C873.909 58.8866 873.506 58.7507 872.966 58.7507C872.406 58.7507 871.966 58.8733 871.648 59.1186C871.33 59.3639 871.106 59.6257 870.977 59.9041L869.863 59.5064C870.062 59.0424 870.327 58.6811 870.659 58.4226C870.994 58.1607 871.358 57.9784 871.753 57.8757C872.15 57.7696 872.541 57.7166 872.926 57.7166C873.171 57.7166 873.453 57.7464 873.771 57.8061C874.093 57.8624 874.402 57.9801 874.701 58.1591C875.002 58.338 875.253 58.6082 875.451 58.9694C875.65 59.3307 875.75 59.8146 875.75 60.4211V65.4524H874.576V64.4183H874.517C874.437 64.584 874.305 64.7613 874.119 64.9503C873.933 65.1392 873.687 65.2999 873.378 65.4325C873.07 65.5651 872.694 65.6314 872.25 65.6314ZM872.429 64.5774C872.893 64.5774 873.284 64.4862 873.602 64.304C873.924 64.1217 874.165 63.8863 874.328 63.598C874.494 63.3096 874.576 63.0064 874.576 62.6882V61.6143C874.527 61.674 874.417 61.7287 874.248 61.7784C874.083 61.8248 873.89 61.8662 873.672 61.9027C873.456 61.9358 873.246 61.9657 873.04 61.9922C872.838 62.0154 872.674 62.0353 872.548 62.0518C872.243 62.0916 871.958 62.1562 871.693 62.2457C871.431 62.3319 871.219 62.4628 871.057 62.6385C870.897 62.8108 870.818 63.0461 870.818 63.3444C870.818 63.7521 870.969 64.0603 871.27 64.2692C871.575 64.4746 871.961 64.5774 872.429 64.5774ZM878.373 68.316C878.175 68.316 877.997 68.2995 877.842 68.2663C877.686 68.2365 877.578 68.2067 877.518 68.1768L877.817 67.1427C878.102 67.2157 878.354 67.2422 878.572 67.2223C878.791 67.2024 878.985 67.1046 879.154 66.929C879.326 66.7566 879.484 66.4765 879.626 66.0888L879.845 65.4922L877.021 57.816H878.294L880.402 63.9013H880.481L882.589 57.816H883.862L880.621 66.566C880.475 66.9604 880.294 67.2869 880.079 67.5454C879.863 67.8073 879.613 68.0012 879.328 68.1271C879.046 68.2531 878.728 68.316 878.373 68.316ZM890.82 59.5263L889.766 59.8246C889.7 59.6489 889.602 59.4782 889.473 59.3125C889.347 59.1434 889.174 59.0042 888.956 58.8949C888.737 58.7855 888.457 58.7308 888.115 58.7308C887.648 58.7308 887.259 58.8385 886.947 59.054C886.639 59.2661 886.485 59.5362 886.485 59.8643C886.485 60.156 886.591 60.3863 886.803 60.5554C887.015 60.7244 887.346 60.8653 887.797 60.978L888.931 61.2564C889.613 61.4221 890.122 61.6756 890.457 62.017C890.792 62.3551 890.959 62.7909 890.959 63.3246C890.959 63.7621 890.833 64.1532 890.581 64.4978C890.333 64.8425 889.985 65.1143 889.537 65.3132C889.09 65.5121 888.569 65.6115 887.976 65.6115C887.197 65.6115 886.553 65.4424 886.042 65.1044C885.532 64.7663 885.209 64.2725 885.073 63.6228L886.186 63.3444C886.292 63.7554 886.493 64.0637 886.788 64.2692C887.086 64.4746 887.476 64.5774 887.956 64.5774C888.503 64.5774 888.937 64.4614 889.259 64.2294C889.584 63.9941 889.746 63.7123 889.746 63.3842C889.746 63.1191 889.653 62.897 889.468 62.718C889.282 62.5357 888.997 62.3998 888.612 62.3103L887.34 62.0121C886.64 61.8463 886.127 61.5895 885.799 61.2415C885.474 60.8901 885.311 60.451 885.311 59.924C885.311 59.4931 885.432 59.112 885.674 58.7805C885.92 58.4491 886.253 58.1889 886.674 58C887.098 57.8111 887.578 57.7166 888.115 57.7166C888.871 57.7166 889.464 57.8823 889.895 58.2138C890.329 58.5452 890.638 58.9827 890.82 59.5263Z" fill="#9291A5"/>
<path d="M763.837 65.5476L768.391 56.5391V56.4595H763.141V55.3658H769.664V56.5192L765.13 65.5476H763.837ZM778.358 65.7067C777.721 65.7067 777.16 65.546 776.672 65.2245C776.185 64.8996 775.804 64.4423 775.529 63.8523C775.254 63.259 775.116 62.558 775.116 61.7493C775.116 60.9472 775.254 60.2512 775.529 59.6612C775.804 59.0713 776.187 58.6156 776.677 58.2941C777.168 57.9726 777.735 57.8118 778.378 57.8118C778.875 57.8118 779.268 57.8947 779.556 58.0604C779.848 58.2228 780.07 58.4084 780.222 58.6172C780.378 58.8227 780.499 58.9917 780.585 59.1243H780.684V55.3658H781.858V65.5476H780.724V64.3743H780.585C780.499 64.5135 780.376 64.6892 780.217 64.9013C780.058 65.1101 779.831 65.2974 779.536 65.4631C779.241 65.6255 778.848 65.7067 778.358 65.7067ZM778.517 64.6527C778.988 64.6527 779.385 64.5301 779.71 64.2848C780.035 64.0362 780.282 63.6932 780.451 63.2557C780.62 62.8149 780.704 62.3061 780.704 61.7294C780.704 61.1593 780.622 60.6605 780.456 60.233C780.29 59.8021 780.045 59.4674 779.72 59.2287C779.395 58.9868 778.994 58.8658 778.517 58.8658C778.02 58.8658 777.605 58.9934 777.274 59.2486C776.946 59.5005 776.699 59.8435 776.533 60.2777C776.371 60.7086 776.29 61.1925 776.29 61.7294C776.29 62.273 776.372 62.7668 776.538 63.211C776.707 63.6518 776.956 64.0031 777.284 64.2649C777.615 64.5235 778.026 64.6527 778.517 64.6527ZM786.417 65.7266C785.933 65.7266 785.494 65.6354 785.099 65.4531C784.705 65.2675 784.392 65.0007 784.16 64.6527C783.928 64.3014 783.812 63.8772 783.812 63.38C783.812 62.9425 783.898 62.5879 784.07 62.3161C784.242 62.041 784.473 61.8255 784.761 61.6698C785.05 61.514 785.368 61.398 785.716 61.3218C786.067 61.2422 786.42 61.1792 786.775 61.1328C787.239 61.0732 787.615 61.0284 787.903 60.9986C788.195 60.9655 788.407 60.9108 788.54 60.8345C788.675 60.7583 788.743 60.6257 788.743 60.4368V60.397C788.743 59.9065 788.609 59.5254 788.341 59.2536C788.076 58.9818 787.673 58.8459 787.133 58.8459C786.573 58.8459 786.133 58.9685 785.815 59.2138C785.497 59.4591 785.273 59.7209 785.144 59.9993L784.03 59.6016C784.229 59.1376 784.494 58.7763 784.826 58.5178C785.161 58.2559 785.525 58.0736 785.92 57.9709C786.317 57.8648 786.708 57.8118 787.093 57.8118C787.338 57.8118 787.62 57.8416 787.938 57.9013C788.26 57.9576 788.569 58.0753 788.868 58.2543C789.169 58.4333 789.42 58.7034 789.618 59.0647C789.817 59.4259 789.917 59.9098 789.917 60.5164V65.5476H788.743V64.5135H788.684C788.604 64.6792 788.472 64.8566 788.286 65.0455C788.1 65.2344 787.854 65.3951 787.545 65.5277C787.237 65.6603 786.861 65.7266 786.417 65.7266ZM786.596 64.6726C787.06 64.6726 787.451 64.5815 787.769 64.3992C788.09 64.2169 788.332 63.9816 788.495 63.6932C788.661 63.4049 788.743 63.1016 788.743 62.7834V61.7095C788.694 61.7692 788.584 61.8239 788.415 61.8736C788.25 61.92 788.057 61.9614 787.839 61.9979C787.623 62.031 787.413 62.0609 787.207 62.0874C787.005 62.1106 786.841 62.1305 786.715 62.147C786.41 62.1868 786.125 62.2514 785.86 62.3409C785.598 62.4271 785.386 62.558 785.224 62.7337C785.064 62.906 784.985 63.1414 784.985 63.4397C784.985 63.8473 785.136 64.1556 785.437 64.3644C785.742 64.5699 786.128 64.6726 786.596 64.6726ZM792.54 68.4112C792.342 68.4112 792.164 68.3947 792.009 68.3615C791.853 68.3317 791.745 68.3019 791.685 68.272L791.984 67.2379C792.269 67.3109 792.521 67.3374 792.739 67.3175C792.958 67.2976 793.152 67.1998 793.321 67.0242C793.493 66.8518 793.651 66.5718 793.793 66.184L794.012 65.5874L791.188 57.9112H792.461L794.569 63.9965H794.648L796.756 57.9112H798.029L794.788 66.6612C794.642 67.0557 794.461 67.3821 794.246 67.6406C794.03 67.9025 793.78 68.0964 793.495 68.2223C793.213 68.3483 792.895 68.4112 792.54 68.4112ZM804.987 59.6215L803.933 59.9198C803.867 59.7441 803.769 59.5734 803.64 59.4077C803.514 59.2387 803.341 59.0995 803.123 58.9901C802.904 58.8807 802.624 58.826 802.282 58.826C801.815 58.826 801.426 58.9337 801.114 59.1492C800.806 59.3613 800.652 59.6314 800.652 59.9595C800.652 60.2512 800.758 60.4816 800.97 60.6506C801.182 60.8196 801.513 60.9605 801.964 61.0732L803.098 61.3516C803.78 61.5173 804.289 61.7709 804.624 62.1122C804.959 62.4503 805.126 62.8861 805.126 63.4198C805.126 63.8573 805 64.2484 804.748 64.5931C804.5 64.9378 804.152 65.2095 803.704 65.4084C803.257 65.6073 802.736 65.7067 802.143 65.7067C801.364 65.7067 800.72 65.5377 800.209 65.1996C799.699 64.8615 799.376 64.3677 799.24 63.7181L800.353 63.4397C800.459 63.8506 800.66 64.1589 800.955 64.3644C801.253 64.5699 801.643 64.6726 802.123 64.6726C802.67 64.6726 803.104 64.5566 803.426 64.3246C803.751 64.0893 803.913 63.8076 803.913 63.4794C803.913 63.2143 803.82 62.9922 803.635 62.8132C803.449 62.6309 803.164 62.4951 802.779 62.4056L801.507 62.1073C800.807 61.9415 800.294 61.6847 799.966 61.3367C799.641 60.9853 799.478 60.5462 799.478 60.0192C799.478 59.5883 799.599 59.2072 799.841 58.8757C800.087 58.5443 800.42 58.2841 800.841 58.0952C801.265 57.9063 801.745 57.8118 802.282 57.8118C803.038 57.8118 803.631 57.9775 804.062 58.309C804.496 58.6404 804.805 59.0779 804.987 59.6215Z" fill="#9291A5"/>
<rect x="603.365" y="46.5" width="101.276" height="29" rx="7.5" stroke="#E5E5EF"/>
<circle cx="619.003" cy="61" r="4.13794" fill="#93AAFD"/>
<path d="M632.042 65L629.656 56.2727H630.73L632.554 63.3807H632.639L634.497 56.2727H635.69L637.548 63.3807H637.633L639.457 56.2727H640.531L638.145 65H637.054L635.128 58.0455H635.059L633.133 65H632.042ZM643.846 65.1364C643.216 65.1364 642.672 64.9972 642.214 64.7188C641.76 64.4375 641.409 64.0455 641.162 63.5426C640.917 63.0369 640.795 62.4489 640.795 61.7784C640.795 61.108 640.917 60.517 641.162 60.0057C641.409 59.4915 641.753 59.0909 642.193 58.804C642.636 58.5142 643.153 58.3693 643.744 58.3693C644.085 58.3693 644.422 58.4261 644.754 58.5398C645.086 58.6534 645.389 58.8381 645.662 59.0938C645.934 59.3466 646.152 59.6818 646.314 60.0994C646.476 60.517 646.557 61.0312 646.557 61.642V62.0682H641.511V61.1989H645.534C645.534 60.8295 645.46 60.5 645.312 60.2102C645.167 59.9205 644.96 59.6918 644.69 59.5241C644.423 59.3565 644.108 59.2727 643.744 59.2727C643.344 59.2727 642.997 59.3722 642.704 59.571C642.415 59.767 642.192 60.0227 642.035 60.3381C641.879 60.6534 641.801 60.9915 641.801 61.3523V61.9318C641.801 62.4261 641.886 62.8452 642.057 63.1889C642.23 63.5298 642.47 63.7898 642.777 63.9688C643.084 64.1449 643.44 64.233 643.846 64.233C644.111 64.233 644.349 64.196 644.562 64.1222C644.778 64.0455 644.964 63.9318 645.121 63.7812C645.277 63.6278 645.398 63.4375 645.483 63.2102L646.454 63.483C646.352 63.8125 646.18 64.1023 645.939 64.3523C645.697 64.5994 645.399 64.7926 645.044 64.9318C644.689 65.0682 644.29 65.1364 643.846 65.1364ZM648.223 65V56.2727H649.229V59.4943H649.314C649.388 59.3807 649.49 59.2358 649.621 59.0597C649.754 58.8807 649.944 58.7216 650.192 58.5824C650.442 58.4403 650.78 58.3693 651.206 58.3693C651.757 58.3693 652.243 58.5071 652.663 58.7827C653.084 59.0582 653.412 59.4489 653.648 59.9545C653.883 60.4602 654.001 61.0568 654.001 61.7443C654.001 62.4375 653.883 63.0384 653.648 63.5469C653.412 64.0526 653.085 64.4446 652.667 64.723C652.25 64.9986 651.768 65.1364 651.223 65.1364C650.802 65.1364 650.466 65.0668 650.213 64.9276C649.96 64.7855 649.765 64.625 649.629 64.446C649.493 64.2642 649.388 64.1136 649.314 63.9943H649.194V65H648.223ZM649.211 61.7273C649.211 62.2216 649.284 62.6577 649.429 63.0355C649.574 63.4105 649.785 63.7045 650.064 63.9176C650.342 64.1278 650.683 64.233 651.086 64.233C651.507 64.233 651.858 64.1222 652.139 63.9006C652.423 63.6761 652.636 63.375 652.778 62.9972C652.923 62.6165 652.996 62.1932 652.996 61.7273C652.996 61.267 652.925 60.8523 652.782 60.483C652.643 60.1108 652.432 59.8168 652.148 59.6009C651.866 59.3821 651.513 59.2727 651.086 59.2727C650.677 59.2727 650.334 59.3764 650.055 59.5838C649.777 59.7884 649.567 60.0753 649.425 60.4446C649.282 60.8111 649.211 61.2386 649.211 61.7273ZM659.051 65V56.2727H664.284V57.2102H660.108V60.1591H663.892V61.0966H660.108V65H659.051ZM668.136 65.1364C667.545 65.1364 667.027 64.9957 666.581 64.7145C666.138 64.4332 665.791 64.0398 665.541 63.5341C665.294 63.0284 665.17 62.4375 665.17 61.7614C665.17 61.0795 665.294 60.4844 665.541 59.9759C665.791 59.4673 666.138 59.0724 666.581 58.7912C667.027 58.5099 667.545 58.3693 668.136 58.3693C668.727 58.3693 669.244 58.5099 669.687 58.7912C670.133 59.0724 670.48 59.4673 670.727 59.9759C670.977 60.4844 671.102 61.0795 671.102 61.7614C671.102 62.4375 670.977 63.0284 670.727 63.5341C670.48 64.0398 670.133 64.4332 669.687 64.7145C669.244 64.9957 668.727 65.1364 668.136 65.1364ZM668.136 64.233C668.585 64.233 668.954 64.1179 669.244 63.8878C669.534 63.6577 669.748 63.3551 669.888 62.9801C670.027 62.6051 670.096 62.1989 670.096 61.7614C670.096 61.3239 670.027 60.9162 669.888 60.5384C669.748 60.1605 669.534 59.8551 669.244 59.6222C668.954 59.3892 668.585 59.2727 668.136 59.2727C667.687 59.2727 667.318 59.3892 667.028 59.6222C666.738 59.8551 666.524 60.1605 666.385 60.5384C666.246 60.9162 666.176 61.3239 666.176 61.7614C666.176 62.1989 666.246 62.6051 666.385 62.9801C666.524 63.3551 666.738 63.6577 667.028 63.8878C667.318 64.1179 667.687 64.233 668.136 64.233ZM672.637 65V58.4545H673.609V59.4432H673.677C673.796 59.1193 674.012 58.8565 674.325 58.6548C674.637 58.4531 674.99 58.3523 675.382 58.3523C675.455 58.3523 675.548 58.3537 675.659 58.3565C675.769 58.3594 675.853 58.3636 675.91 58.3693V59.392C675.876 59.3835 675.798 59.3707 675.676 59.3537C675.556 59.3338 675.43 59.3239 675.296 59.3239C674.978 59.3239 674.694 59.3906 674.444 59.5241C674.197 59.6548 674.001 59.8366 673.856 60.0696C673.714 60.2997 673.643 60.5625 673.643 60.858V65H672.637ZM677.102 65V58.4545H678.074V59.4773H678.159C678.295 59.1278 678.515 58.8565 678.819 58.6634C679.123 58.4673 679.488 58.3693 679.915 58.3693C680.346 58.3693 680.706 58.4673 680.993 58.6634C681.282 58.8565 681.508 59.1278 681.67 59.4773H681.738C681.906 59.1392 682.157 58.8707 682.493 58.6719C682.828 58.4702 683.23 58.3693 683.699 58.3693C684.284 58.3693 684.763 58.5526 685.135 58.919C685.507 59.2827 685.693 59.8494 685.693 60.6193V65H684.687V60.6193C684.687 60.1364 684.555 59.7912 684.291 59.5838C684.027 59.3764 683.716 59.2727 683.358 59.2727C682.898 59.2727 682.541 59.4119 682.288 59.6903C682.035 59.9659 681.909 60.3153 681.909 60.7386V65H680.886V60.517C680.886 60.1449 680.765 59.8452 680.524 59.6179C680.282 59.3878 679.971 59.2727 679.591 59.2727C679.329 59.2727 679.085 59.3423 678.858 59.4815C678.633 59.6207 678.452 59.8139 678.312 60.0611C678.176 60.3054 678.108 60.5881 678.108 60.9091V65H677.102ZM692.168 59.9205L691.265 60.1761C691.208 60.0256 691.124 59.8793 691.013 59.7372C690.905 59.5923 690.758 59.473 690.57 59.3793C690.383 59.2855 690.143 59.2386 689.85 59.2386C689.449 59.2386 689.116 59.331 688.849 59.5156C688.584 59.6974 688.452 59.929 688.452 60.2102C688.452 60.4602 688.543 60.6577 688.725 60.8026C688.907 60.9474 689.191 61.0682 689.577 61.1648L690.549 61.4034C691.134 61.5455 691.57 61.7628 691.857 62.0554C692.144 62.3452 692.287 62.7187 692.287 63.1761C692.287 63.5511 692.18 63.8864 691.964 64.1818C691.751 64.4773 691.452 64.7102 691.069 64.8807C690.685 65.0511 690.239 65.1364 689.731 65.1364C689.063 65.1364 688.51 64.9915 688.073 64.7017C687.635 64.4119 687.358 63.9886 687.242 63.4318L688.197 63.1932C688.287 63.5455 688.459 63.8097 688.712 63.9858C688.968 64.1619 689.302 64.25 689.714 64.25C690.182 64.25 690.555 64.1506 690.83 63.9517C691.108 63.75 691.248 63.5085 691.248 63.2273C691.248 63 691.168 62.8097 691.009 62.6562C690.85 62.5 690.606 62.3835 690.276 62.3068L689.185 62.0511C688.586 61.9091 688.145 61.6889 687.864 61.3906C687.586 61.0895 687.447 60.7131 687.447 60.2614C687.447 59.892 687.55 59.5653 687.758 59.2812C687.968 58.9972 688.253 58.7741 688.614 58.6122C688.978 58.4503 689.39 58.3693 689.85 58.3693C690.498 58.3693 691.006 58.5114 691.376 58.7955C691.748 59.0795 692.012 59.4545 692.168 59.9205Z" fill="#1E1B39"/>
<rect x="445.09" y="46.5" width="102.276" height="29" rx="7.5" stroke="#E5E5EF"/>
<circle cx="460.728" cy="61" r="4.13794" fill="#FF718B"/>
<path d="M472.084 65V56.2727H475.033C475.718 56.2727 476.277 56.3963 476.712 56.6435C477.15 56.8878 477.473 57.2188 477.684 57.6364C477.894 58.054 477.999 58.5199 477.999 59.0341C477.999 59.5483 477.894 60.0156 477.684 60.4361C477.476 60.8565 477.155 61.1918 476.721 61.4418C476.286 61.6889 475.729 61.8125 475.05 61.8125H472.936V60.875H475.016C475.485 60.875 475.861 60.794 476.145 60.6321C476.429 60.4702 476.635 60.2514 476.763 59.9759C476.894 59.6974 476.959 59.3835 476.959 59.0341C476.959 58.6847 476.894 58.3722 476.763 58.0966C476.635 57.821 476.428 57.6051 476.141 57.4489C475.854 57.2898 475.473 57.2102 474.999 57.2102H473.141V65H472.084ZM480.571 61.0625V65H479.565V56.2727H480.571V59.4773H480.656C480.809 59.1392 481.039 58.8707 481.346 58.6719C481.656 58.4702 482.068 58.3693 482.582 58.3693C483.028 58.3693 483.419 58.4588 483.754 58.6378C484.089 58.8139 484.349 59.0852 484.534 59.4517C484.721 59.8153 484.815 60.2784 484.815 60.8409V65H483.809V60.9091C483.809 60.3892 483.674 59.9872 483.404 59.7031C483.137 59.4162 482.767 59.2727 482.292 59.2727C481.963 59.2727 481.667 59.3423 481.406 59.4815C481.147 59.6207 480.943 59.8239 480.792 60.0909C480.645 60.358 480.571 60.6818 480.571 61.0625ZM489.314 65.1364C488.723 65.1364 488.205 64.9957 487.759 64.7145C487.315 64.4332 486.969 64.0398 486.719 63.5341C486.472 63.0284 486.348 62.4375 486.348 61.7614C486.348 61.0795 486.472 60.4844 486.719 59.9759C486.969 59.4673 487.315 59.0724 487.759 58.7912C488.205 58.5099 488.723 58.3693 489.314 58.3693C489.905 58.3693 490.422 58.5099 490.865 58.7912C491.311 59.0724 491.658 59.4673 491.905 59.9759C492.155 60.4844 492.28 61.0795 492.28 61.7614C492.28 62.4375 492.155 63.0284 491.905 63.5341C491.658 64.0398 491.311 64.4332 490.865 64.7145C490.422 64.9957 489.905 65.1364 489.314 65.1364ZM489.314 64.233C489.763 64.233 490.132 64.1179 490.422 63.8878C490.712 63.6577 490.926 63.3551 491.065 62.9801C491.205 62.6051 491.274 62.1989 491.274 61.7614C491.274 61.3239 491.205 60.9162 491.065 60.5384C490.926 60.1605 490.712 59.8551 490.422 59.6222C490.132 59.3892 489.763 59.2727 489.314 59.2727C488.865 59.2727 488.496 59.3892 488.206 59.6222C487.916 59.8551 487.702 60.1605 487.562 60.5384C487.423 60.9162 487.354 61.3239 487.354 61.7614C487.354 62.1989 487.423 62.6051 487.562 62.9801C487.702 63.3551 487.916 63.6577 488.206 63.8878C488.496 64.1179 488.865 64.233 489.314 64.233ZM494.821 61.0625V65H493.815V58.4545H494.787V59.4773H494.872C495.025 59.1449 495.258 58.8778 495.571 58.6761C495.883 58.4716 496.287 58.3693 496.781 58.3693C497.224 58.3693 497.612 58.4602 497.944 58.642C498.277 58.821 498.535 59.0938 498.72 59.4602C498.904 59.8239 498.997 60.2841 498.997 60.8409V65H497.991V60.9091C497.991 60.3949 497.858 59.9943 497.591 59.7074C497.324 59.4176 496.957 59.2727 496.491 59.2727C496.17 59.2727 495.883 59.3423 495.63 59.4815C495.38 59.6207 495.183 59.8239 495.038 60.0909C494.893 60.358 494.821 60.6818 494.821 61.0625ZM503.579 65.1364C502.948 65.1364 502.404 64.9972 501.947 64.7188C501.492 64.4375 501.141 64.0455 500.894 63.5426C500.65 63.0369 500.528 62.4489 500.528 61.7784C500.528 61.108 500.65 60.517 500.894 60.0057C501.141 59.4915 501.485 59.0909 501.925 58.804C502.369 58.5142 502.886 58.3693 503.477 58.3693C503.817 58.3693 504.154 58.4261 504.487 58.5398C504.819 58.6534 505.121 58.8381 505.394 59.0938C505.667 59.3466 505.884 59.6818 506.046 60.0994C506.208 60.517 506.289 61.0312 506.289 61.642V62.0682H501.244V61.1989H505.266C505.266 60.8295 505.192 60.5 505.045 60.2102C504.9 59.9205 504.692 59.6918 504.423 59.5241C504.156 59.3565 503.84 59.2727 503.477 59.2727C503.076 59.2727 502.729 59.3722 502.437 59.571C502.147 59.767 501.924 60.0227 501.768 60.3381C501.612 60.6534 501.533 60.9915 501.533 61.3523V61.9318C501.533 62.4261 501.619 62.8452 501.789 63.1889C501.962 63.5298 502.202 63.7898 502.509 63.9688C502.816 64.1449 503.173 64.233 503.579 64.233C503.843 64.233 504.082 64.196 504.295 64.1222C504.511 64.0455 504.697 63.9318 504.853 63.7812C505.009 63.6278 505.13 63.4375 505.215 63.2102L506.187 63.483C506.085 63.8125 505.913 64.1023 505.671 64.3523C505.43 64.5994 505.131 64.7926 504.776 64.9318C504.421 65.0682 504.022 65.1364 503.579 65.1364ZM513.853 65.1364C513.239 65.1364 512.711 64.9915 512.268 64.7017C511.825 64.4119 511.484 64.0128 511.245 63.5043C511.006 62.9957 510.887 62.4148 510.887 61.7614C510.887 61.0966 511.009 60.5099 511.254 60.0014C511.501 59.4901 511.844 59.0909 512.285 58.804C512.728 58.5142 513.245 58.3693 513.836 58.3693C514.296 58.3693 514.711 58.4545 515.08 58.625C515.45 58.7955 515.752 59.0341 515.988 59.3409C516.224 59.6477 516.37 60.0057 516.427 60.4148H515.421C515.344 60.1165 515.174 59.8523 514.91 59.6222C514.648 59.3892 514.296 59.2727 513.853 59.2727C513.461 59.2727 513.117 59.375 512.822 59.5795C512.529 59.7812 512.3 60.0668 512.136 60.4361C511.974 60.8026 511.893 61.233 511.893 61.7273C511.893 62.233 511.972 62.6733 512.131 63.0483C512.293 63.4233 512.521 63.7145 512.813 63.9219C513.109 64.1293 513.455 64.233 513.853 64.233C514.114 64.233 514.352 64.1875 514.565 64.0966C514.778 64.0057 514.958 63.875 515.106 63.7045C515.254 63.5341 515.359 63.3295 515.421 63.0909H516.427C516.37 63.4773 516.229 63.8253 516.005 64.1349C515.783 64.4418 515.489 64.6861 515.123 64.8679C514.759 65.0469 514.336 65.1364 513.853 65.1364ZM519.823 65.1534C519.408 65.1534 519.032 65.0753 518.694 64.919C518.356 64.7599 518.087 64.5312 517.888 64.233C517.69 63.9318 517.59 63.5682 517.59 63.142C517.59 62.767 517.664 62.4631 517.812 62.2301C517.96 61.9943 518.157 61.8097 518.404 61.6761C518.651 61.5426 518.924 61.4432 519.222 61.3778C519.523 61.3097 519.826 61.2557 520.13 61.2159C520.528 61.1648 520.85 61.1264 521.097 61.1009C521.347 61.0724 521.529 61.0256 521.643 60.9602C521.759 60.8949 521.817 60.7812 521.817 60.6193V60.5852C521.817 60.1648 521.702 59.8381 521.472 59.6051C521.245 59.3722 520.9 59.2557 520.437 59.2557C519.957 59.2557 519.58 59.3608 519.308 59.571C519.035 59.7812 518.843 60.0057 518.732 60.2443L517.778 59.9034C517.948 59.5057 518.175 59.196 518.46 58.9744C518.746 58.75 519.059 58.5937 519.397 58.5057C519.738 58.4148 520.073 58.3693 520.403 58.3693C520.613 58.3693 520.854 58.3949 521.127 58.446C521.403 58.4943 521.668 58.5952 521.924 58.7486C522.183 58.902 522.397 59.1335 522.567 59.4432C522.738 59.7528 522.823 60.1676 522.823 60.6875V65H521.817V64.1136H521.766C521.698 64.2557 521.585 64.4077 521.425 64.5696C521.266 64.7315 521.055 64.8693 520.79 64.983C520.526 65.0966 520.204 65.1534 519.823 65.1534ZM519.977 64.25C520.374 64.25 520.71 64.1719 520.982 64.0156C521.258 63.8594 521.465 63.6577 521.604 63.4105C521.746 63.1634 521.817 62.9034 521.817 62.6307V61.7102C521.775 61.7614 521.681 61.8082 521.536 61.8509C521.394 61.8906 521.229 61.9261 521.042 61.9574C520.857 61.9858 520.677 62.0114 520.501 62.0341C520.327 62.054 520.187 62.071 520.079 62.0852C519.817 62.1193 519.573 62.1747 519.346 62.2514C519.121 62.3253 518.94 62.4375 518.8 62.5881C518.664 62.7358 518.596 62.9375 518.596 63.1932C518.596 63.5426 518.725 63.8068 518.984 63.9858C519.245 64.1619 519.576 64.25 519.977 64.25ZM525.664 56.2727V65H524.659V56.2727H525.664ZM528.512 56.2727V65H527.506V56.2727H528.512ZM534.99 59.9205L534.087 60.1761C534.03 60.0256 533.946 59.8793 533.836 59.7372C533.728 59.5923 533.58 59.473 533.392 59.3793C533.205 59.2855 532.965 59.2386 532.672 59.2386C532.272 59.2386 531.938 59.331 531.671 59.5156C531.407 59.6974 531.275 59.929 531.275 60.2102C531.275 60.4602 531.365 60.6577 531.547 60.8026C531.729 60.9474 532.013 61.0682 532.4 61.1648L533.371 61.4034C533.956 61.5455 534.392 61.7628 534.679 62.0554C534.966 62.3452 535.11 62.7187 535.11 63.1761C535.11 63.5511 535.002 63.8864 534.786 64.1818C534.573 64.4773 534.275 64.7102 533.891 64.8807C533.507 65.0511 533.061 65.1364 532.553 65.1364C531.885 65.1364 531.333 64.9915 530.895 64.7017C530.458 64.4119 530.181 63.9886 530.064 63.4318L531.019 63.1932C531.11 63.5455 531.282 63.8097 531.534 63.9858C531.79 64.1619 532.124 64.25 532.536 64.25C533.005 64.25 533.377 64.1506 533.652 63.9517C533.931 63.75 534.07 63.5085 534.07 63.2273C534.07 63 533.99 62.8097 533.831 62.6562C533.672 62.5 533.428 62.3835 533.098 62.3068L532.007 62.0511C531.408 61.9091 530.968 61.6889 530.686 61.3906C530.408 61.0895 530.269 60.7131 530.269 60.2614C530.269 59.892 530.373 59.5653 530.58 59.2812C530.79 58.9972 531.076 58.7741 531.436 58.6122C531.8 58.4503 532.212 58.3693 532.672 58.3693C533.32 58.3693 533.828 58.5114 534.198 58.7955C534.57 59.0795 534.834 59.4545 534.99 59.9205Z" fill="#1E1B39"/>
<rect x="312.814" y="46.5" width="100.276" height="29" rx="7.5" stroke="#E5E5EF"/>
<circle cx="328.452" cy="61" r="4.13794" fill="#962DFF"/>
<path d="M339.787 65V56.2727H342.838C343.446 56.2727 343.948 56.3778 344.343 56.5881C344.738 56.7955 345.032 57.0753 345.225 57.4276C345.418 57.777 345.515 58.1648 345.515 58.5909C345.515 58.9659 345.448 59.2756 345.314 59.5199C345.184 59.7642 345.01 59.9574 344.794 60.0994C344.581 60.2415 344.35 60.3466 344.1 60.4148V60.5C344.367 60.517 344.635 60.6108 344.905 60.7812C345.175 60.9517 345.401 61.196 345.583 61.5142C345.765 61.8324 345.855 62.2216 345.855 62.6818C345.855 63.1193 345.756 63.5128 345.557 63.8622C345.358 64.2116 345.044 64.4886 344.615 64.6932C344.186 64.8977 343.628 65 342.941 65H339.787ZM340.844 64.0625H342.941C343.631 64.0625 344.121 63.929 344.411 63.6619C344.703 63.392 344.85 63.0653 344.85 62.6818C344.85 62.3864 344.775 62.1136 344.624 61.8636C344.473 61.6108 344.259 61.4091 343.98 61.2585C343.702 61.1051 343.373 61.0284 342.992 61.0284H340.844V64.0625ZM340.844 60.108H342.804C343.123 60.108 343.409 60.0455 343.665 59.9205C343.924 59.7955 344.128 59.6193 344.279 59.392C344.432 59.1648 344.509 58.8977 344.509 58.5909C344.509 58.2074 344.375 57.8821 344.108 57.6151C343.841 57.3452 343.418 57.2102 342.838 57.2102H340.844V60.108ZM348.461 56.2727V65H347.456V56.2727H348.461ZM352.962 65.1364C352.371 65.1364 351.853 64.9957 351.407 64.7145C350.964 64.4332 350.617 64.0398 350.367 63.5341C350.12 63.0284 349.996 62.4375 349.996 61.7614C349.996 61.0795 350.12 60.4844 350.367 59.9759C350.617 59.4673 350.964 59.0724 351.407 58.7912C351.853 58.5099 352.371 58.3693 352.962 58.3693C353.553 58.3693 354.07 58.5099 354.513 58.7912C354.96 59.0724 355.306 59.4673 355.553 59.9759C355.803 60.4844 355.928 61.0795 355.928 61.7614C355.928 62.4375 355.803 63.0284 355.553 63.5341C355.306 64.0398 354.96 64.4332 354.513 64.7145C354.07 64.9957 353.553 65.1364 352.962 65.1364ZM352.962 64.233C353.411 64.233 353.781 64.1179 354.07 63.8878C354.36 63.6577 354.575 63.3551 354.714 62.9801C354.853 62.6051 354.923 62.1989 354.923 61.7614C354.923 61.3239 354.853 60.9162 354.714 60.5384C354.575 60.1605 354.36 59.8551 354.07 59.6222C353.781 59.3892 353.411 59.2727 352.962 59.2727C352.513 59.2727 352.144 59.3892 351.854 59.6222C351.565 59.8551 351.35 60.1605 351.211 60.5384C351.072 60.9162 351.002 61.3239 351.002 61.7614C351.002 62.1989 351.072 62.6051 351.211 62.9801C351.35 63.3551 351.565 63.6577 351.854 63.8878C352.144 64.1179 352.513 64.233 352.962 64.233ZM360.105 67.5909C359.62 67.5909 359.202 67.5284 358.853 67.4034C358.503 67.2812 358.212 67.1193 357.979 66.9176C357.749 66.7188 357.566 66.5057 357.429 66.2784L358.23 65.7159C358.321 65.8352 358.436 65.9716 358.576 66.125C358.715 66.2812 358.905 66.4162 359.147 66.5298C359.391 66.6463 359.711 66.7045 360.105 66.7045C360.634 66.7045 361.07 66.5767 361.414 66.321C361.757 66.0653 361.929 65.6648 361.929 65.1193V63.7898H361.844C361.77 63.9091 361.665 64.0568 361.529 64.233C361.395 64.4062 361.202 64.5611 360.949 64.6974C360.699 64.831 360.361 64.8977 359.935 64.8977C359.407 64.8977 358.932 64.7727 358.512 64.5227C358.094 64.2727 357.763 63.9091 357.519 63.4318C357.277 62.9545 357.157 62.375 357.157 61.6932C357.157 61.0227 357.275 60.4389 357.51 59.9418C357.746 59.4418 358.074 59.0554 358.495 58.7827C358.915 58.5071 359.401 58.3693 359.952 58.3693C360.378 58.3693 360.716 58.4403 360.966 58.5824C361.219 58.7216 361.412 58.8807 361.546 59.0597C361.682 59.2358 361.787 59.3807 361.861 59.4943H361.963V58.4545H362.935V65.1875C362.935 65.75 362.807 66.2074 362.551 66.5597C362.299 66.9148 361.958 67.1747 361.529 67.3395C361.103 67.5071 360.628 67.5909 360.105 67.5909ZM360.071 63.9943C360.475 63.9943 360.816 63.902 361.094 63.7173C361.373 63.5327 361.584 63.267 361.729 62.9205C361.874 62.5739 361.946 62.1591 361.946 61.6761C361.946 61.2045 361.875 60.7884 361.733 60.4276C361.591 60.0668 361.381 59.7841 361.103 59.5795C360.824 59.375 360.48 59.2727 360.071 59.2727C359.645 59.2727 359.29 59.3807 359.006 59.5966C358.725 59.8125 358.513 60.1023 358.371 60.4659C358.232 60.8295 358.162 61.233 358.162 61.6761C358.162 62.1307 358.233 62.5327 358.375 62.8821C358.52 63.2287 358.733 63.5014 359.015 63.7003C359.299 63.8963 359.651 63.9943 360.071 63.9943ZM368.287 65V56.2727H369.344V64.0625H373.401V65H368.287ZM377.645 65.1364C377.015 65.1364 376.471 64.9972 376.013 64.7188C375.559 64.4375 375.208 64.0455 374.961 63.5426C374.716 63.0369 374.594 62.4489 374.594 61.7784C374.594 61.108 374.716 60.517 374.961 60.0057C375.208 59.4915 375.551 59.0909 375.992 58.804C376.435 58.5142 376.952 58.3693 377.543 58.3693C377.884 58.3693 378.221 58.4261 378.553 58.5398C378.885 58.6534 379.188 58.8381 379.461 59.0938C379.733 59.3466 379.951 59.6818 380.113 60.0994C380.275 60.517 380.355 61.0312 380.355 61.642V62.0682H375.31V61.1989H379.333C379.333 60.8295 379.259 60.5 379.111 60.2102C378.966 59.9205 378.759 59.6918 378.489 59.5241C378.222 59.3565 377.907 59.2727 377.543 59.2727C377.142 59.2727 376.796 59.3722 376.503 59.571C376.213 59.767 375.99 60.0227 375.834 60.3381C375.678 60.6534 375.6 60.9915 375.6 61.3523V61.9318C375.6 62.4261 375.685 62.8452 375.855 63.1889C376.029 63.5298 376.269 63.7898 376.576 63.9688C376.882 64.1449 377.239 64.233 377.645 64.233C377.909 64.233 378.148 64.196 378.361 64.1222C378.577 64.0455 378.763 63.9318 378.919 63.7812C379.076 63.6278 379.196 63.4375 379.282 63.2102L380.253 63.483C380.151 63.8125 379.979 64.1023 379.738 64.3523C379.496 64.5994 379.198 64.7926 378.843 64.9318C378.488 65.0682 378.088 65.1364 377.645 65.1364ZM383.811 65.1534C383.397 65.1534 383.02 65.0753 382.682 64.919C382.344 64.7599 382.076 64.5312 381.877 64.233C381.678 63.9318 381.578 63.5682 381.578 63.142C381.578 62.767 381.652 62.4631 381.8 62.2301C381.948 61.9943 382.145 61.8097 382.392 61.6761C382.64 61.5426 382.912 61.4432 383.211 61.3778C383.512 61.3097 383.814 61.2557 384.118 61.2159C384.516 61.1648 384.838 61.1264 385.086 61.1009C385.336 61.0724 385.517 61.0256 385.631 60.9602C385.748 60.8949 385.806 60.7812 385.806 60.6193V60.5852C385.806 60.1648 385.691 59.8381 385.461 59.6051C385.233 59.3722 384.888 59.2557 384.425 59.2557C383.945 59.2557 383.569 59.3608 383.296 59.571C383.023 59.7812 382.831 60.0057 382.721 60.2443L381.766 59.9034C381.936 59.5057 382.164 59.196 382.448 58.9744C382.735 58.75 383.047 58.5937 383.385 58.5057C383.726 58.4148 384.061 58.3693 384.391 58.3693C384.601 58.3693 384.843 58.3949 385.115 58.446C385.391 58.4943 385.657 58.5952 385.912 58.7486C386.171 58.902 386.385 59.1335 386.556 59.4432C386.726 59.7528 386.811 60.1676 386.811 60.6875V65H385.806V64.1136H385.755C385.686 64.2557 385.573 64.4077 385.414 64.5696C385.255 64.7315 385.043 64.8693 384.779 64.983C384.515 65.0966 384.192 65.1534 383.811 65.1534ZM383.965 64.25C384.363 64.25 384.698 64.1719 384.971 64.0156C385.246 63.8594 385.453 63.6577 385.593 63.4105C385.735 63.1634 385.806 62.9034 385.806 62.6307V61.7102C385.763 61.7614 385.669 61.8082 385.525 61.8509C385.382 61.8906 385.218 61.9261 385.03 61.9574C384.846 61.9858 384.665 62.0114 384.489 62.0341C384.316 62.054 384.175 62.071 384.067 62.0852C383.806 62.1193 383.561 62.1747 383.334 62.2514C383.11 62.3253 382.928 62.4375 382.789 62.5881C382.652 62.7358 382.584 62.9375 382.584 63.1932C382.584 63.5426 382.713 63.8068 382.972 63.9858C383.233 64.1619 383.564 64.25 383.965 64.25ZM391.119 65.1364C390.573 65.1364 390.092 64.9986 389.674 64.723C389.256 64.4446 388.93 64.0526 388.694 63.5469C388.458 63.0384 388.34 62.4375 388.34 61.7443C388.34 61.0568 388.458 60.4602 388.694 59.9545C388.93 59.4489 389.258 59.0582 389.678 58.7827C390.099 58.5071 390.585 58.3693 391.136 58.3693C391.562 58.3693 391.898 58.4403 392.146 58.5824C392.396 58.7216 392.586 58.8807 392.717 59.0597C392.85 59.2358 392.954 59.3807 393.028 59.4943H393.113V56.2727H394.119V65H393.147V63.9943H393.028C392.954 64.1136 392.849 64.2642 392.712 64.446C392.576 64.625 392.381 64.7855 392.129 64.9276C391.876 65.0668 391.539 65.1364 391.119 65.1364ZM391.255 64.233C391.658 64.233 391.999 64.1278 392.278 63.9176C392.556 63.7045 392.768 63.4105 392.913 63.0355C393.058 62.6577 393.13 62.2216 393.13 61.7273C393.13 61.2386 393.059 60.8111 392.917 60.4446C392.775 60.0753 392.565 59.7884 392.286 59.5838C392.008 59.3764 391.664 59.2727 391.255 59.2727C390.829 59.2727 390.474 59.3821 390.19 59.6009C389.908 59.8168 389.697 60.1108 389.555 60.483C389.415 60.8523 389.346 61.267 389.346 61.7273C389.346 62.1932 389.417 62.6165 389.559 62.9972C389.704 63.375 389.917 63.6761 390.198 63.9006C390.482 64.1222 390.835 64.233 391.255 64.233ZM400.737 59.9205L399.833 60.1761C399.776 60.0256 399.692 59.8793 399.582 59.7372C399.474 59.5923 399.326 59.473 399.138 59.3793C398.951 59.2855 398.711 59.2386 398.418 59.2386C398.018 59.2386 397.684 59.331 397.417 59.5156C397.153 59.6974 397.021 59.929 397.021 60.2102C397.021 60.4602 397.112 60.6577 397.293 60.8026C397.475 60.9474 397.759 61.0682 398.146 61.1648L399.117 61.4034C399.702 61.5455 400.138 61.7628 400.425 62.0554C400.712 62.3452 400.856 62.7187 400.856 63.1761C400.856 63.5511 400.748 63.8864 400.532 64.1818C400.319 64.4773 400.021 64.7102 399.637 64.8807C399.254 65.0511 398.808 65.1364 398.299 65.1364C397.631 65.1364 397.079 64.9915 396.641 64.7017C396.204 64.4119 395.927 63.9886 395.81 63.4318L396.765 63.1932C396.856 63.5455 397.028 63.8097 397.281 63.9858C397.536 64.1619 397.87 64.25 398.282 64.25C398.751 64.25 399.123 64.1506 399.398 63.9517C399.677 63.75 399.816 63.5085 399.816 63.2273C399.816 63 399.737 62.8097 399.577 62.6562C399.418 62.5 399.174 62.3835 398.844 62.3068L397.754 62.0511C397.154 61.9091 396.714 61.6889 396.433 61.3906C396.154 61.0895 396.015 60.7131 396.015 60.2614C396.015 59.892 396.119 59.5653 396.326 59.2812C396.536 58.9972 396.822 58.7741 397.183 58.6122C397.546 58.4503 397.958 58.3693 398.418 58.3693C399.066 58.3693 399.575 58.5114 399.944 58.7955C400.316 59.0795 400.58 59.4545 400.737 59.9205Z" fill="#1E1B39"/>
<path d="M54.1504 75.0715H50.7285C50.666 74.6288 50.5384 74.2356 50.3457 73.8918C50.153 73.5429 49.9056 73.246 49.6035 73.0012C49.3014 72.7564 48.9525 72.5689 48.5566 72.4387C48.166 72.3085 47.7415 72.2434 47.2832 72.2434C46.4551 72.2434 45.7337 72.4491 45.1191 72.8606C44.5046 73.2668 44.028 73.8606 43.6895 74.6418C43.3509 75.4179 43.1816 76.3606 43.1816 77.47C43.1816 78.6106 43.3509 79.5689 43.6895 80.345C44.0332 81.121 44.5124 81.7069 45.127 82.1028C45.7415 82.4986 46.4525 82.6965 47.2598 82.6965C47.7129 82.6965 48.1322 82.6366 48.5176 82.5168C48.9082 82.3971 49.2546 82.2226 49.5566 81.9934C49.8587 81.759 50.1087 81.4752 50.3066 81.1418C50.5098 80.8085 50.6504 80.4283 50.7285 80.0012L54.1504 80.0168C54.0618 80.7512 53.8405 81.4596 53.4863 82.1418C53.1374 82.8189 52.666 83.4257 52.0723 83.9622C51.4837 84.4934 50.7806 84.9153 49.9629 85.2278C49.1504 85.5351 48.2311 85.6887 47.2051 85.6887C45.778 85.6887 44.502 85.3658 43.377 84.72C42.2572 84.0741 41.3717 83.1392 40.7207 81.9153C40.0749 80.6913 39.752 79.2096 39.752 77.47C39.752 75.7252 40.0801 74.2408 40.7363 73.0168C41.3926 71.7929 42.2832 70.8606 43.4082 70.22C44.5332 69.5741 45.7988 69.2512 47.2051 69.2512C48.1322 69.2512 48.9915 69.3814 49.7832 69.6418C50.5801 69.9023 51.2858 70.2825 51.9004 70.7825C52.515 71.2773 53.015 71.884 53.4004 72.6028C53.791 73.3215 54.041 74.1444 54.1504 75.0715ZM59.9355 85.6965C59.1699 85.6965 58.4876 85.5637 57.8887 85.2981C57.2897 85.0273 56.8158 84.6288 56.4668 84.1028C56.123 83.5715 55.9512 82.9101 55.9512 82.1184C55.9512 81.4517 56.0736 80.8918 56.3184 80.4387C56.5632 79.9856 56.8965 79.621 57.3184 79.345C57.7402 79.0689 58.2194 78.8606 58.7559 78.72C59.2975 78.5793 59.8652 78.4804 60.459 78.4231C61.1569 78.3502 61.7194 78.2825 62.1465 78.22C62.5736 78.1523 62.8835 78.0533 63.0762 77.9231C63.2689 77.7929 63.3652 77.6002 63.3652 77.345V77.2981C63.3652 76.8033 63.209 76.4205 62.8965 76.1497C62.5892 75.8788 62.1517 75.7434 61.584 75.7434C60.985 75.7434 60.5085 75.8762 60.1543 76.1418C59.8001 76.4023 59.5658 76.7304 59.4512 77.1262L56.373 76.8762C56.5293 76.1471 56.8366 75.5168 57.2949 74.9856C57.7533 74.4491 58.3444 74.0377 59.0684 73.7512C59.7975 73.4596 60.6413 73.3137 61.5996 73.3137C62.2663 73.3137 62.9043 73.3918 63.5137 73.5481C64.1283 73.7043 64.6725 73.9465 65.1465 74.2747C65.6257 74.6028 66.0033 75.0247 66.2793 75.5403C66.5553 76.0507 66.6934 76.6627 66.6934 77.3762V85.47H63.5371V83.8059H63.4434C63.2507 84.1809 62.9928 84.5116 62.6699 84.7981C62.347 85.0793 61.959 85.3007 61.5059 85.4622C61.0527 85.6184 60.5293 85.6965 59.9355 85.6965ZM60.8887 83.3997C61.3783 83.3997 61.8105 83.3033 62.1855 83.1106C62.5605 82.9127 62.8548 82.6471 63.0684 82.3137C63.2819 81.9804 63.3887 81.6028 63.3887 81.1809V79.9075C63.2845 79.9752 63.1413 80.0377 62.959 80.095C62.7819 80.1471 62.5814 80.1965 62.3574 80.2434C62.1335 80.2851 61.9095 80.3241 61.6855 80.3606C61.4616 80.3918 61.2585 80.4205 61.0762 80.4465C60.6855 80.5038 60.3444 80.595 60.0527 80.72C59.7611 80.845 59.5345 81.0142 59.373 81.2278C59.2116 81.4361 59.1309 81.6965 59.1309 82.009C59.1309 82.4622 59.2949 82.8085 59.623 83.0481C59.9564 83.2825 60.3783 83.3997 60.8887 83.3997ZM79.2598 76.8918L76.2129 77.0793C76.1608 76.8189 76.0488 76.5846 75.877 76.3762C75.7051 76.1627 75.4785 75.9934 75.1973 75.8684C74.9212 75.7382 74.5905 75.6731 74.2051 75.6731C73.6895 75.6731 73.2546 75.7825 72.9004 76.0012C72.5462 76.2148 72.3691 76.5012 72.3691 76.8606C72.3691 77.1471 72.4837 77.3892 72.7129 77.5872C72.9421 77.7851 73.3353 77.9439 73.8926 78.0637L76.0645 78.5012C77.2311 78.7408 78.1009 79.1262 78.6738 79.6575C79.2467 80.1887 79.5332 80.8866 79.5332 81.7512C79.5332 82.5377 79.3014 83.2278 78.8379 83.8215C78.3796 84.4153 77.7493 84.8788 76.9473 85.2122C76.1504 85.5403 75.2311 85.7043 74.1895 85.7043C72.6009 85.7043 71.3353 85.3736 70.3926 84.7122C69.4551 84.0455 68.9056 83.1392 68.7441 81.9934L72.0176 81.8215C72.1165 82.3059 72.3561 82.6757 72.7363 82.9309C73.1165 83.1809 73.6035 83.3059 74.1973 83.3059C74.7806 83.3059 75.2493 83.1939 75.6035 82.97C75.9629 82.7408 76.1452 82.4465 76.1504 82.0872C76.1452 81.7851 76.0176 81.5377 75.7676 81.345C75.5176 81.1471 75.1322 80.996 74.6113 80.8918L72.5332 80.4778C71.3613 80.2434 70.4889 79.8372 69.916 79.259C69.3483 78.6809 69.0645 77.9439 69.0645 77.0481C69.0645 76.2773 69.2728 75.6132 69.6895 75.0559C70.1113 74.4986 70.7025 74.0689 71.4629 73.7668C72.2285 73.4648 73.1243 73.3137 74.1504 73.3137C75.666 73.3137 76.8587 73.634 77.7285 74.2747C78.6035 74.9153 79.1139 75.7877 79.2598 76.8918ZM87.0977 85.7043C85.8633 85.7043 84.8008 85.4543 83.9102 84.9543C83.0247 84.4491 82.3424 83.7356 81.8633 82.8137C81.3841 81.8866 81.1445 80.7903 81.1445 79.5247C81.1445 78.2903 81.3841 77.2069 81.8633 76.2747C82.3424 75.3424 83.0169 74.6158 83.8867 74.095C84.7617 73.5741 85.7878 73.3137 86.9648 73.3137C87.7565 73.3137 88.4935 73.4413 89.1758 73.6965C89.8633 73.9465 90.4622 74.3241 90.9727 74.8293C91.4883 75.3346 91.8893 75.97 92.1758 76.7356C92.4622 77.496 92.6055 78.3866 92.6055 79.4075V80.3215H82.4727V78.259H89.4727C89.4727 77.7799 89.3685 77.3554 89.1602 76.9856C88.9518 76.6158 88.6628 76.3267 88.293 76.1184C87.9284 75.9049 87.5039 75.7981 87.0195 75.7981C86.5143 75.7981 86.0664 75.9153 85.6758 76.1497C85.2904 76.3788 84.9883 76.6887 84.7695 77.0793C84.5508 77.4648 84.4388 77.8944 84.4336 78.3684V80.3293C84.4336 80.9231 84.543 81.4361 84.7617 81.8684C84.9857 82.3007 85.3008 82.634 85.707 82.8684C86.1133 83.1028 86.5951 83.22 87.1523 83.22C87.5221 83.22 87.8607 83.1679 88.168 83.0637C88.4753 82.9596 88.7383 82.8033 88.957 82.595C89.1758 82.3866 89.3424 82.1314 89.457 81.8293L92.5352 82.0325C92.3789 82.7721 92.0586 83.4179 91.5742 83.97C91.0951 84.5168 90.4753 84.9439 89.7148 85.2512C88.9596 85.5533 88.0872 85.7043 87.0977 85.7043ZM104.762 76.8918L101.715 77.0793C101.663 76.8189 101.551 76.5846 101.379 76.3762C101.207 76.1627 100.98 75.9934 100.699 75.8684C100.423 75.7382 100.092 75.6731 99.707 75.6731C99.1914 75.6731 98.7565 75.7825 98.4023 76.0012C98.0482 76.2148 97.8711 76.5012 97.8711 76.8606C97.8711 77.1471 97.9857 77.3892 98.2148 77.5872C98.444 77.7851 98.8372 77.9439 99.3945 78.0637L101.566 78.5012C102.733 78.7408 103.603 79.1262 104.176 79.6575C104.749 80.1887 105.035 80.8866 105.035 81.7512C105.035 82.5377 104.803 83.2278 104.34 83.8215C103.882 84.4153 103.251 84.8788 102.449 85.2122C101.652 85.5403 100.733 85.7043 99.6914 85.7043C98.1029 85.7043 96.8372 85.3736 95.8945 84.7122C94.957 84.0455 94.4076 83.1392 94.2461 81.9934L97.5195 81.8215C97.6185 82.3059 97.8581 82.6757 98.2383 82.9309C98.6185 83.1809 99.1055 83.3059 99.6992 83.3059C100.283 83.3059 100.751 83.1939 101.105 82.97C101.465 82.7408 101.647 82.4465 101.652 82.0872C101.647 81.7851 101.52 81.5377 101.27 81.345C101.02 81.1471 100.634 80.996 100.113 80.8918L98.0352 80.4778C96.8633 80.2434 95.9909 79.8372 95.418 79.259C94.8503 78.6809 94.5664 77.9439 94.5664 77.0481C94.5664 76.2773 94.7747 75.6132 95.1914 75.0559C95.6133 74.4986 96.2044 74.0689 96.9648 73.7668C97.7305 73.4648 98.6263 73.3137 99.6523 73.3137C101.168 73.3137 102.361 73.634 103.23 74.2747C104.105 74.9153 104.616 75.7877 104.762 76.8918ZM112.223 85.47V73.47H115.449V75.5637H115.574C115.793 74.8189 116.16 74.2564 116.676 73.8762C117.191 73.4908 117.785 73.2981 118.457 73.2981C118.624 73.2981 118.803 73.3085 118.996 73.3293C119.189 73.3502 119.358 73.3788 119.504 73.4153V76.3684C119.348 76.3215 119.132 76.2799 118.855 76.2434C118.579 76.2069 118.327 76.1887 118.098 76.1887C117.608 76.1887 117.171 76.2955 116.785 76.509C116.405 76.7174 116.103 77.009 115.879 77.384C115.66 77.759 115.551 78.1913 115.551 78.6809V85.47H112.223ZM126.135 85.7043C124.9 85.7043 123.838 85.4543 122.947 84.9543C122.062 84.4491 121.38 83.7356 120.9 82.8137C120.421 81.8866 120.182 80.7903 120.182 79.5247C120.182 78.2903 120.421 77.2069 120.9 76.2747C121.38 75.3424 122.054 74.6158 122.924 74.095C123.799 73.5741 124.825 73.3137 126.002 73.3137C126.794 73.3137 127.531 73.4413 128.213 73.6965C128.9 73.9465 129.499 74.3241 130.01 74.8293C130.525 75.3346 130.926 75.97 131.213 76.7356C131.499 77.496 131.643 78.3866 131.643 79.4075V80.3215H121.51V78.259H128.51C128.51 77.7799 128.406 77.3554 128.197 76.9856C127.989 76.6158 127.7 76.3267 127.33 76.1184C126.965 75.9049 126.541 75.7981 126.057 75.7981C125.551 75.7981 125.104 75.9153 124.713 76.1497C124.327 76.3788 124.025 76.6887 123.807 77.0793C123.588 77.4648 123.476 77.8944 123.471 78.3684V80.3293C123.471 80.9231 123.58 81.4361 123.799 81.8684C124.023 82.3007 124.338 82.634 124.744 82.8684C125.15 83.1028 125.632 83.22 126.189 83.22C126.559 83.22 126.898 83.1679 127.205 83.0637C127.512 82.9596 127.775 82.8033 127.994 82.595C128.213 82.3866 128.38 82.1314 128.494 81.8293L131.572 82.0325C131.416 82.7721 131.096 83.4179 130.611 83.97C130.132 84.5168 129.512 84.9439 128.752 85.2512C127.997 85.5533 127.124 85.7043 126.135 85.7043ZM133.814 89.97V73.47H137.096V75.4856H137.244C137.39 75.1627 137.601 74.8346 137.877 74.5012C138.158 74.1627 138.523 73.8814 138.971 73.6575C139.424 73.4283 139.986 73.3137 140.658 73.3137C141.533 73.3137 142.34 73.5429 143.08 74.0012C143.82 74.4543 144.411 75.1392 144.854 76.0559C145.296 76.9674 145.518 78.1106 145.518 79.4856C145.518 80.8241 145.301 81.9543 144.869 82.8762C144.442 83.7929 143.859 84.4882 143.119 84.9622C142.385 85.4309 141.562 85.6653 140.65 85.6653C140.005 85.6653 139.455 85.5585 139.002 85.345C138.554 85.1314 138.187 84.8632 137.9 84.5403C137.614 84.2122 137.395 83.8814 137.244 83.5481H137.143V89.97H133.814ZM137.072 79.47C137.072 80.1835 137.171 80.8059 137.369 81.3372C137.567 81.8684 137.854 82.2825 138.229 82.5793C138.604 82.871 139.059 83.0168 139.596 83.0168C140.137 83.0168 140.596 82.8684 140.971 82.5715C141.346 82.2694 141.63 81.8528 141.822 81.3215C142.02 80.7851 142.119 80.1679 142.119 79.47C142.119 78.7773 142.023 78.1679 141.83 77.6418C141.637 77.1158 141.354 76.7043 140.979 76.4075C140.604 76.1106 140.143 75.9622 139.596 75.9622C139.054 75.9622 138.596 76.1054 138.221 76.3918C137.851 76.6783 137.567 77.0846 137.369 77.6106C137.171 78.1366 137.072 78.7564 137.072 79.47ZM153.158 85.7043C151.945 85.7043 150.895 85.4465 150.01 84.9309C149.13 84.4101 148.45 83.6861 147.971 82.759C147.492 81.8267 147.252 80.746 147.252 79.5168C147.252 78.2773 147.492 77.1939 147.971 76.2668C148.45 75.3346 149.13 74.6106 150.01 74.095C150.895 73.5741 151.945 73.3137 153.158 73.3137C154.372 73.3137 155.419 73.5741 156.299 74.095C157.184 74.6106 157.867 75.3346 158.346 76.2668C158.825 77.1939 159.064 78.2773 159.064 79.5168C159.064 80.746 158.825 81.8267 158.346 82.759C157.867 83.6861 157.184 84.4101 156.299 84.9309C155.419 85.4465 154.372 85.7043 153.158 85.7043ZM153.174 83.1262C153.726 83.1262 154.187 82.97 154.557 82.6575C154.926 82.3398 155.205 81.9075 155.393 81.3606C155.585 80.8137 155.682 80.1913 155.682 79.4934C155.682 78.7955 155.585 78.1731 155.393 77.6262C155.205 77.0793 154.926 76.6471 154.557 76.3293C154.187 76.0116 153.726 75.8528 153.174 75.8528C152.617 75.8528 152.148 76.0116 151.768 76.3293C151.393 76.6471 151.109 77.0793 150.916 77.6262C150.729 78.1731 150.635 78.7955 150.635 79.4934C150.635 80.1913 150.729 80.8137 150.916 81.3606C151.109 81.9075 151.393 82.3398 151.768 82.6575C152.148 82.97 152.617 83.1262 153.174 83.1262ZM161.229 85.47V73.47H164.455V75.5637H164.58C164.799 74.8189 165.166 74.2564 165.682 73.8762C166.197 73.4908 166.791 73.2981 167.463 73.2981C167.63 73.2981 167.809 73.3085 168.002 73.3293C168.195 73.3502 168.364 73.3788 168.51 73.4153V76.3684C168.354 76.3215 168.137 76.2799 167.861 76.2434C167.585 76.2069 167.333 76.1887 167.104 76.1887C166.614 76.1887 166.176 76.2955 165.791 76.509C165.411 76.7174 165.109 77.009 164.885 77.384C164.666 77.759 164.557 78.1913 164.557 78.6809V85.47H161.229ZM177.215 73.47V75.97H169.988V73.47H177.215ZM171.629 70.595H174.957V81.7825C174.957 82.0898 175.004 82.3293 175.098 82.5012C175.191 82.6679 175.322 82.7851 175.488 82.8528C175.66 82.9205 175.858 82.9543 176.082 82.9543C176.238 82.9543 176.395 82.9413 176.551 82.9153C176.707 82.884 176.827 82.8606 176.91 82.845L177.434 85.3215C177.267 85.3736 177.033 85.4335 176.73 85.5012C176.428 85.5741 176.061 85.6184 175.629 85.634C174.827 85.6653 174.124 85.5585 173.52 85.3137C172.921 85.0689 172.454 84.6887 172.121 84.1731C171.788 83.6575 171.624 83.0064 171.629 82.22V70.595Z" fill="#1E1B39"/>
<path d="M39.1028 43.3791H40.9181L44.5488 49.4899H44.7022L48.3329 43.3791H50.1483L45.4181 51.0751V56.47H43.8329V51.0751L39.1028 43.3791ZM54.5939 56.6745C53.7076 56.6745 52.9299 56.4636 52.2608 56.0417C51.5961 55.6198 51.0762 55.0296 50.7012 54.2711C50.3304 53.5126 50.1451 52.6262 50.1451 51.612C50.1451 50.5893 50.3304 49.6965 50.7012 48.9337C51.0762 48.171 51.5961 47.5786 52.2608 47.1568C52.9299 46.7349 53.7076 46.5239 54.5939 46.5239C55.4803 46.5239 56.2559 46.7349 56.9206 47.1568C57.5897 47.5786 58.1096 48.171 58.4803 48.9337C58.8553 49.6965 59.0428 50.5893 59.0428 51.612C59.0428 52.6262 58.8553 53.5126 58.4803 54.2711C58.1096 55.0296 57.5897 55.6198 56.9206 56.0417C56.2559 56.4636 55.4803 56.6745 54.5939 56.6745ZM54.5939 55.3194C55.2672 55.3194 55.8212 55.1468 56.2559 54.8016C56.6905 54.4565 57.0123 54.0026 57.2211 53.4401C57.4299 52.8776 57.5343 52.2683 57.5343 51.612C57.5343 50.9558 57.4299 50.3443 57.2211 49.7775C57.0123 49.2107 56.6905 48.7526 56.2559 48.4032C55.8212 48.0538 55.2672 47.8791 54.5939 47.8791C53.9206 47.8791 53.3667 48.0538 52.932 48.4032C52.4973 48.7526 52.1756 49.2107 51.9668 49.7775C51.758 50.3443 51.6536 50.9558 51.6536 51.612C51.6536 52.2683 51.758 52.8776 51.9668 53.4401C52.1756 54.0026 52.4973 54.4565 52.932 54.8016C53.3667 55.1468 53.9206 55.3194 54.5939 55.3194ZM67.533 52.4558V46.6518H69.0415V56.47H67.533V54.808H67.4308C67.2006 55.3066 66.8427 55.7306 66.3569 56.0801C65.8711 56.4252 65.2575 56.5978 64.516 56.5978C63.9023 56.5978 63.3569 56.4636 62.8796 56.1951C62.4023 55.9224 62.0273 55.5133 61.7546 54.9678C61.4819 54.4181 61.3455 53.7257 61.3455 52.8904V46.6518H62.854V52.7882C62.854 53.5041 63.0543 54.0751 63.4549 54.5012C63.8597 54.9274 64.3754 55.1404 65.0018 55.1404C65.3768 55.1404 65.7582 55.0445 66.146 54.8528C66.538 54.661 66.8661 54.367 67.1303 53.9707C67.3988 53.5744 67.533 53.0694 67.533 52.4558ZM71.8045 56.47V46.6518H73.2619V48.1347H73.3642C73.5431 47.6489 73.867 47.2548 74.3358 46.9522C74.8045 46.6497 75.3329 46.4984 75.921 46.4984C76.0318 46.4984 76.1703 46.5005 76.3365 46.5048C76.5027 46.509 76.6284 46.5154 76.7136 46.5239V48.058C76.6625 48.0453 76.5453 48.0261 76.362 48.0005C76.1831 47.9707 75.9934 47.9558 75.7931 47.9558C75.3159 47.9558 74.8897 48.0559 74.5147 48.2562C74.144 48.4522 73.85 48.7249 73.6326 49.0744C73.4196 49.4195 73.313 49.8137 73.313 50.2569V56.47H71.8045ZM83.7688 56.47V43.3791H85.354V55.0637H91.4393V56.47H83.7688ZM96.5785 56.7001C95.9563 56.7001 95.3917 56.5829 94.8846 56.3485C94.3775 56.1099 93.9748 55.7668 93.6765 55.3194C93.3782 54.8677 93.229 54.3222 93.229 53.683C93.229 53.1205 93.3398 52.6646 93.5614 52.3151C93.783 51.9614 94.0792 51.6845 94.4499 51.4842C94.8207 51.2839 95.2298 51.1347 95.6772 51.0367C96.1289 50.9345 96.5827 50.8535 97.0387 50.7938C97.6353 50.7171 98.119 50.6596 98.4897 50.6212C98.8647 50.5786 99.1374 50.5083 99.3079 50.4103C99.4826 50.3123 99.57 50.1418 99.57 49.8989V49.8478C99.57 49.2171 99.3974 48.7271 99.0522 48.3776C98.7113 48.0282 98.1935 47.8535 97.4989 47.8535C96.7788 47.8535 96.2141 48.0112 95.805 48.3265C95.396 48.6418 95.1083 48.9785 94.9421 49.3364L93.5103 48.8251C93.766 48.2285 94.1069 47.764 94.533 47.4316C94.9634 47.095 95.4322 46.8606 95.9393 46.7285C96.4506 46.5921 96.9535 46.5239 97.4478 46.5239C97.7631 46.5239 98.1254 46.5623 98.5344 46.639C98.9478 46.7114 99.3462 46.8627 99.7298 47.0928C100.118 47.323 100.439 47.6703 100.695 48.1347C100.951 48.5992 101.078 49.2214 101.078 50.0012V56.47H99.57V55.1404H99.4933C99.391 55.3535 99.2205 55.5815 98.9819 55.8244C98.7433 56.0673 98.4258 56.2739 98.0295 56.4444C97.6332 56.6149 97.1495 56.7001 96.5785 56.7001ZM96.8086 55.345C97.4052 55.345 97.908 55.2278 98.3171 54.9934C98.7305 54.759 99.0415 54.4565 99.2504 54.0857C99.4634 53.715 99.57 53.3251 99.57 52.916V51.5353C99.506 51.612 99.3654 51.6823 99.1481 51.7462C98.935 51.8059 98.6879 51.8592 98.4066 51.906C98.1296 51.9487 97.859 51.987 97.5948 52.0211C97.3349 52.0509 97.1239 52.0765 96.962 52.0978C96.57 52.1489 96.2035 52.232 95.8626 52.3471C95.5259 52.4579 95.2532 52.6262 95.0444 52.8521C94.8398 53.0737 94.7376 53.3762 94.7376 53.7597C94.7376 54.2839 94.9315 54.6802 95.3192 54.9487C95.7113 55.2129 96.2077 55.345 96.8086 55.345ZM106.056 56.47L103.065 46.6518H104.65L106.772 54.1688H106.874L108.971 46.6518H110.582L112.653 54.1433H112.755L114.877 46.6518H116.463L113.471 56.47H111.988L109.84 48.9274H109.687L107.539 56.47H106.056ZM123.724 56.47V43.3791H131.573V44.7853H125.309V49.2086H130.985V50.6149H125.309V56.47H123.724ZM134.084 56.47V46.6518H135.592V56.47H134.084ZM134.851 45.0154C134.557 45.0154 134.303 44.9153 134.09 44.715C133.881 44.5147 133.777 44.2739 133.777 43.9927C133.777 43.7114 133.881 43.4707 134.09 43.2704C134.303 43.0701 134.557 42.97 134.851 42.97C135.145 42.97 135.396 43.0701 135.605 43.2704C135.818 43.4707 135.925 43.7114 135.925 43.9927C135.925 44.2739 135.818 44.5147 135.605 44.715C135.396 44.9153 135.145 45.0154 134.851 45.0154ZM138.355 56.47V46.6518H139.813V48.1347H139.915C140.094 47.6489 140.418 47.2548 140.887 46.9522C141.355 46.6497 141.884 46.4984 142.472 46.4984C142.583 46.4984 142.721 46.5005 142.887 46.5048C143.053 46.509 143.179 46.5154 143.264 46.5239V48.058C143.213 48.0453 143.096 48.0261 142.913 48.0005C142.734 47.9707 142.544 47.9558 142.344 47.9558C141.867 47.9558 141.441 48.0559 141.066 48.2562C140.695 48.4522 140.401 48.7249 140.183 49.0744C139.97 49.4195 139.864 49.8137 139.864 50.2569V56.47H138.355ZM145.053 56.47V46.6518H146.51V48.1859H146.638C146.842 47.6617 147.173 47.2548 147.629 46.965C148.085 46.671 148.632 46.5239 149.271 46.5239C149.919 46.5239 150.458 46.671 150.888 46.965C151.323 47.2548 151.662 47.6617 151.905 48.1859H152.007C152.259 47.6788 152.636 47.2761 153.138 46.9778C153.641 46.6752 154.244 46.5239 154.947 46.5239C155.825 46.5239 156.543 46.7988 157.102 47.3485C157.66 47.894 157.939 48.7441 157.939 49.8989V56.47H156.43V49.8989C156.43 49.1745 156.232 48.6568 155.836 48.3457C155.44 48.0346 154.973 47.8791 154.436 47.8791C153.746 47.8791 153.211 48.0879 152.832 48.5055C152.452 48.9188 152.263 49.443 152.263 50.0779V56.47H150.729V49.7455C150.729 49.1873 150.548 48.7377 150.185 48.3968C149.823 48.0516 149.357 47.8791 148.786 47.8791C148.393 47.8791 148.027 47.9835 147.686 48.1923C147.349 48.4011 147.077 48.6909 146.868 49.0616C146.663 49.4281 146.561 49.8521 146.561 50.3336V56.47H145.053Z" fill="#9291A5"/>
<defs>
<filter id="filter0_d_143_1079" x="0.642578" y="0.265381" width="1056" height="549.024" filterUnits="userSpaceOnUse" color-interpolation-filters="sRGB">
<feFlood flood-opacity="0" result="BackgroundImageFix"/>
<feColorMatrix in="SourceAlpha" type="matrix" values="0 0 0 0 0 0 0 0 0 0 0 0 0 0 0 0 0 0 127 0" result="hardAlpha"/>
<feOffset dy="2"/>
<feGaussianBlur stdDeviation="3"/>
<feComposite in2="hardAlpha" operator="out"/>
<feColorMatrix type="matrix" values="0 0 0 0 0.0509804 0 0 0 0 0.0392157 0 0 0 0 0.172549 0 0 0 0.08 0"/>
<feBlend mode="normal" in2="BackgroundImageFix" result="effect1_dropShadow_143_1079"/>
<feBlend mode="normal" in="SourceGraphic" in2="effect1_dropShadow_143_1079" result="shape"/>
</filter>
</defs>
</svg>
