<svg width="523" height="423" viewBox="0 0 523 423" fill="none" xmlns="http://www.w3.org/2000/svg">
<g filter="url(#filter0_d_143_1100)">
<rect x="6.64258" y="4.28979" width="510" height="410" rx="20" fill="white"/>
</g>
<path d="M44.3793 369.108V379.29H43.1463V370.401H43.0867L40.6009 372.051V370.798L43.1463 369.108H44.3793ZM51.4686 379.429C50.7195 379.429 50.0815 379.225 49.5545 378.817C49.0275 378.407 48.6248 377.812 48.3464 377.033C48.068 376.25 47.9288 375.306 47.9288 374.199C47.9288 373.099 48.068 372.159 48.3464 371.38C48.6282 370.598 49.0325 370.001 49.5595 369.59C50.0898 369.176 50.7262 368.969 51.4686 368.969C52.211 368.969 52.8457 369.176 53.3727 369.59C53.903 370.001 54.3074 370.598 54.5858 371.38C54.8675 372.159 55.0084 373.099 55.0084 374.199C55.0084 375.306 54.8692 376.25 54.5908 377.033C54.3123 377.812 53.9096 378.407 53.3827 378.817C52.8557 379.225 52.2176 379.429 51.4686 379.429ZM51.4686 378.335C52.211 378.335 52.7877 377.977 53.1987 377.261C53.6097 376.545 53.8152 375.525 53.8152 374.199C53.8152 373.317 53.7207 372.567 53.5318 371.947C53.3462 371.327 53.0777 370.855 52.7264 370.53C52.3784 370.205 51.9591 370.043 51.4686 370.043C50.7328 370.043 50.1578 370.406 49.7435 371.131C49.3292 371.854 49.122 372.876 49.122 374.199C49.122 375.081 49.2148 375.83 49.4004 376.446C49.586 377.063 49.8528 377.532 50.2008 377.853C50.5522 378.175 50.9747 378.335 51.4686 378.335ZM58.6126 377.987C58.3673 377.987 58.1568 377.899 57.9812 377.724C57.8055 377.548 57.7177 377.338 57.7177 377.092C57.7177 376.847 57.8055 376.637 57.9812 376.461C58.1568 376.285 58.3673 376.197 58.6126 376.197C58.8578 376.197 59.0683 376.285 59.244 376.461C59.4196 376.637 59.5075 376.847 59.5075 377.092C59.5075 377.255 59.466 377.404 59.3832 377.54C59.3036 377.676 59.1959 377.785 59.06 377.868C58.9274 377.947 58.7783 377.987 58.6126 377.987ZM58.6126 372.837C58.3673 372.837 58.1568 372.749 57.9812 372.573C57.8055 372.398 57.7177 372.187 57.7177 371.942C57.7177 371.697 57.8055 371.486 57.9812 371.31C58.1568 371.135 58.3673 371.047 58.6126 371.047C58.8578 371.047 59.0683 371.135 59.244 371.31C59.4196 371.486 59.5075 371.697 59.5075 371.942C59.5075 372.104 59.466 372.253 59.3832 372.389C59.3036 372.525 59.1959 372.634 59.06 372.717C58.9274 372.797 58.7783 372.837 58.6126 372.837ZM65.7541 379.429C65.005 379.429 64.367 379.225 63.84 378.817C63.313 378.407 62.9103 377.812 62.6319 377.033C62.3535 376.25 62.2143 375.306 62.2143 374.199C62.2143 373.099 62.3535 372.159 62.6319 371.38C62.9136 370.598 63.318 370.001 63.845 369.59C64.3753 369.176 65.0116 368.969 65.7541 368.969C66.4965 368.969 67.1312 369.176 67.6582 369.59C68.1885 370.001 68.5928 370.598 68.8713 371.38C69.153 372.159 69.2938 373.099 69.2938 374.199C69.2938 375.306 69.1546 376.25 68.8762 377.033C68.5978 377.812 68.1951 378.407 67.6681 378.817C67.1411 379.225 66.5031 379.429 65.7541 379.429ZM65.7541 378.335C66.4965 378.335 67.0732 377.977 67.4842 377.261C67.8952 376.545 68.1007 375.525 68.1007 374.199C68.1007 373.317 68.0062 372.567 67.8173 371.947C67.6317 371.327 67.3632 370.855 67.0119 370.53C66.6639 370.205 66.2446 370.043 65.7541 370.043C65.0183 370.043 64.4432 370.406 64.0289 371.131C63.6146 371.854 63.4075 372.876 63.4075 374.199C63.4075 375.081 63.5003 375.83 63.6859 376.446C63.8715 377.063 64.1383 377.532 64.4863 377.853C64.8376 378.175 65.2602 378.335 65.7541 378.335ZM75.3441 379.429C74.595 379.429 73.957 379.225 73.43 378.817C72.903 378.407 72.5003 377.812 72.2219 377.033C71.9435 376.25 71.8043 375.306 71.8043 374.199C71.8043 373.099 71.9435 372.159 72.2219 371.38C72.5036 370.598 72.908 370.001 73.435 369.59C73.9653 369.176 74.6016 368.969 75.3441 368.969C76.0865 368.969 76.7212 369.176 77.2482 369.59C77.7785 370.001 78.1828 370.598 78.4613 371.38C78.743 372.159 78.8838 373.099 78.8838 374.199C78.8838 375.306 78.7446 376.25 78.4662 377.033C78.1878 377.812 77.7851 378.407 77.2581 378.817C76.7311 379.225 76.0931 379.429 75.3441 379.429ZM75.3441 378.335C76.0865 378.335 76.6632 377.977 77.0742 377.261C77.4852 376.545 77.6907 375.525 77.6907 374.199C77.6907 373.317 77.5962 372.567 77.4073 371.947C77.2217 371.327 76.9532 370.855 76.6019 370.53C76.2539 370.205 75.8346 370.043 75.3441 370.043C74.6083 370.043 74.0332 370.406 73.6189 371.131C73.2046 371.854 72.9975 372.876 72.9975 374.199C72.9975 375.081 73.0903 375.83 73.2759 376.446C73.4615 377.063 73.7283 377.532 74.0763 377.853C74.4276 378.175 74.8502 378.335 75.3441 378.335Z" fill="#615E83"/>
<path d="M145.332 369.108V379.29H144.099V370.401H144.04L141.554 372.051V370.798L144.099 369.108H145.332ZM149.101 379.29V378.395L152.461 374.716C152.856 374.285 153.181 373.911 153.436 373.592C153.691 373.271 153.88 372.969 154.003 372.688C154.129 372.402 154.192 372.104 154.192 371.793C154.192 371.435 154.105 371.125 153.933 370.863C153.764 370.601 153.532 370.399 153.237 370.256C152.942 370.114 152.611 370.043 152.243 370.043C151.852 370.043 151.51 370.124 151.219 370.286C150.93 370.445 150.707 370.669 150.547 370.957C150.392 371.246 150.314 371.584 150.314 371.972H149.14C149.14 371.375 149.278 370.851 149.553 370.401C149.828 369.95 150.203 369.599 150.677 369.347C151.154 369.095 151.689 368.969 152.283 368.969C152.879 368.969 153.408 369.095 153.868 369.347C154.329 369.599 154.69 369.938 154.952 370.366C155.214 370.793 155.345 371.269 155.345 371.793C155.345 372.167 155.277 372.533 155.141 372.891C155.009 373.246 154.777 373.642 154.445 374.08C154.117 374.514 153.661 375.044 153.078 375.67L150.791 378.116V378.196H155.524V379.29H149.101ZM159.292 377.987C159.047 377.987 158.837 377.899 158.661 377.724C158.485 377.548 158.397 377.338 158.397 377.092C158.397 376.847 158.485 376.637 158.661 376.461C158.837 376.285 159.047 376.197 159.292 376.197C159.538 376.197 159.748 376.285 159.924 376.461C160.099 376.637 160.187 376.847 160.187 377.092C160.187 377.255 160.146 377.404 160.063 377.54C159.983 377.676 159.876 377.785 159.74 377.868C159.607 377.947 159.458 377.987 159.292 377.987ZM159.292 372.837C159.047 372.837 158.837 372.749 158.661 372.573C158.485 372.398 158.397 372.187 158.397 371.942C158.397 371.697 158.485 371.486 158.661 371.31C158.837 371.135 159.047 371.047 159.292 371.047C159.538 371.047 159.748 371.135 159.924 371.31C160.099 371.486 160.187 371.697 160.187 371.942C160.187 372.104 160.146 372.253 160.063 372.389C159.983 372.525 159.876 372.634 159.74 372.717C159.607 372.797 159.458 372.837 159.292 372.837ZM166.434 379.429C165.685 379.429 165.047 379.225 164.52 378.817C163.993 378.407 163.59 377.812 163.312 377.033C163.033 376.25 162.894 375.306 162.894 374.199C162.894 373.099 163.033 372.159 163.312 371.38C163.593 370.598 163.998 370.001 164.525 369.59C165.055 369.176 165.691 368.969 166.434 368.969C167.176 368.969 167.811 369.176 168.338 369.59C168.868 370.001 169.273 370.598 169.551 371.38C169.833 372.159 169.974 373.099 169.974 374.199C169.974 375.306 169.834 376.25 169.556 377.033C169.278 377.812 168.875 378.407 168.348 378.817C167.821 379.225 167.183 379.429 166.434 379.429ZM166.434 378.335C167.176 378.335 167.753 377.977 168.164 377.261C168.575 376.545 168.78 375.525 168.78 374.199C168.78 373.317 168.686 372.567 168.497 371.947C168.311 371.327 168.043 370.855 167.692 370.53C167.344 370.205 166.924 370.043 166.434 370.043C165.698 370.043 165.123 370.406 164.709 371.131C164.294 371.854 164.087 372.876 164.087 374.199C164.087 375.081 164.18 375.83 164.366 376.446C164.551 377.063 164.818 377.532 165.166 377.853C165.517 378.175 165.94 378.335 166.434 378.335ZM176.024 379.429C175.275 379.429 174.637 379.225 174.11 378.817C173.583 378.407 173.18 377.812 172.902 377.033C172.623 376.25 172.484 375.306 172.484 374.199C172.484 373.099 172.623 372.159 172.902 371.38C173.183 370.598 173.588 370.001 174.115 369.59C174.645 369.176 175.281 368.969 176.024 368.969C176.766 368.969 177.401 369.176 177.928 369.59C178.458 370.001 178.863 370.598 179.141 371.38C179.423 372.159 179.564 373.099 179.564 374.199C179.564 375.306 179.424 376.25 179.146 377.033C178.868 377.812 178.465 378.407 177.938 378.817C177.411 379.225 176.773 379.429 176.024 379.429ZM176.024 378.335C176.766 378.335 177.343 377.977 177.754 377.261C178.165 376.545 178.37 375.525 178.37 374.199C178.37 373.317 178.276 372.567 178.087 371.947C177.901 371.327 177.633 370.855 177.282 370.53C176.934 370.205 176.514 370.043 176.024 370.043C175.288 370.043 174.713 370.406 174.299 371.131C173.884 371.854 173.677 372.876 173.677 374.199C173.677 375.081 173.77 375.83 173.956 376.446C174.141 377.063 174.408 377.532 174.756 377.853C175.107 378.175 175.53 378.335 176.024 378.335Z" fill="#615E83"/>
<path d="M246.396 369.108V379.29H245.163V370.401H245.103L242.617 372.051V370.798L245.163 369.108H246.396ZM249.926 377.202V376.188L254.4 369.108H255.136V370.679H254.639L251.258 376.028V376.108H257.283V377.202H249.926ZM254.718 379.29V376.893V376.421V369.108H255.891V379.29H254.718ZM260.862 377.987C260.616 377.987 260.406 377.899 260.23 377.724C260.055 377.548 259.967 377.338 259.967 377.092C259.967 376.847 260.055 376.637 260.23 376.461C260.406 376.285 260.616 376.197 260.862 376.197C261.107 376.197 261.317 376.285 261.493 376.461C261.669 376.637 261.756 376.847 261.756 377.092C261.756 377.255 261.715 377.404 261.632 377.54C261.553 377.676 261.445 377.785 261.309 377.868C261.176 377.947 261.027 377.987 260.862 377.987ZM260.862 372.837C260.616 372.837 260.406 372.749 260.23 372.573C260.055 372.398 259.967 372.187 259.967 371.942C259.967 371.697 260.055 371.486 260.23 371.31C260.406 371.135 260.616 371.047 260.862 371.047C261.107 371.047 261.317 371.135 261.493 371.31C261.669 371.486 261.756 371.697 261.756 371.942C261.756 372.104 261.715 372.253 261.632 372.389C261.553 372.525 261.445 372.634 261.309 372.717C261.176 372.797 261.027 372.837 260.862 372.837ZM268.003 379.429C267.254 379.429 266.616 379.225 266.089 378.817C265.562 378.407 265.159 377.812 264.881 377.033C264.603 376.25 264.463 375.306 264.463 374.199C264.463 373.099 264.603 372.159 264.881 371.38C265.163 370.598 265.567 370.001 266.094 369.59C266.624 369.176 267.261 368.969 268.003 368.969C268.746 368.969 269.38 369.176 269.907 369.59C270.438 370.001 270.842 370.598 271.12 371.38C271.402 372.159 271.543 373.099 271.543 374.199C271.543 375.306 271.404 376.25 271.125 377.033C270.847 377.812 270.444 378.407 269.917 378.817C269.39 379.225 268.752 379.429 268.003 379.429ZM268.003 378.335C268.746 378.335 269.322 377.977 269.733 377.261C270.144 376.545 270.35 375.525 270.35 374.199C270.35 373.317 270.255 372.567 270.066 371.947C269.881 371.327 269.612 370.855 269.261 370.53C268.913 370.205 268.494 370.043 268.003 370.043C267.267 370.043 266.692 370.406 266.278 371.131C265.864 371.854 265.656 372.876 265.656 374.199C265.656 375.081 265.749 375.83 265.935 376.446C266.121 377.063 266.387 377.532 266.735 377.853C267.087 378.175 267.509 378.335 268.003 378.335ZM277.593 379.429C276.844 379.429 276.206 379.225 275.679 378.817C275.152 378.407 274.749 377.812 274.471 377.033C274.193 376.25 274.053 375.306 274.053 374.199C274.053 373.099 274.193 372.159 274.471 371.38C274.753 370.598 275.157 370.001 275.684 369.59C276.214 369.176 276.851 368.969 277.593 368.969C278.336 368.969 278.97 369.176 279.497 369.59C280.028 370.001 280.432 370.598 280.71 371.38C280.992 372.159 281.133 373.099 281.133 374.199C281.133 375.306 280.994 376.25 280.715 377.033C280.437 377.812 280.034 378.407 279.507 378.817C278.98 379.225 278.342 379.429 277.593 379.429ZM277.593 378.335C278.336 378.335 278.912 377.977 279.323 377.261C279.734 376.545 279.94 375.525 279.94 374.199C279.94 373.317 279.845 372.567 279.656 371.947C279.471 371.327 279.202 370.855 278.851 370.53C278.503 370.205 278.084 370.043 277.593 370.043C276.857 370.043 276.282 370.406 275.868 371.131C275.454 371.854 275.246 372.876 275.246 374.199C275.246 375.081 275.339 375.83 275.525 376.446C275.711 377.063 275.977 377.532 276.325 377.853C276.677 378.175 277.099 378.335 277.593 378.335Z" fill="#615E83"/>
<path d="M347.835 369.108V379.29H346.602V370.401H346.543L344.057 372.051V370.798L346.602 369.108H347.835ZM354.984 379.429C354.567 379.422 354.149 379.343 353.731 379.19C353.314 379.038 352.933 378.781 352.588 378.42C352.243 378.055 351.967 377.563 351.758 376.943C351.549 376.32 351.445 375.538 351.445 374.597C351.445 373.695 351.529 372.896 351.698 372.2C351.867 371.501 352.112 370.913 352.434 370.435C352.755 369.955 353.143 369.59 353.597 369.342C354.055 369.093 354.57 368.969 355.143 368.969C355.713 368.969 356.221 369.083 356.665 369.312C357.112 369.537 357.477 369.852 357.758 370.256C358.04 370.661 358.222 371.126 358.305 371.653H357.092C356.98 371.196 356.761 370.817 356.436 370.515C356.111 370.213 355.68 370.063 355.143 370.063C354.355 370.063 353.733 370.406 353.279 371.092C352.828 371.778 352.601 372.741 352.598 373.98H352.677C352.863 373.698 353.084 373.458 353.339 373.259C353.597 373.057 353.882 372.901 354.194 372.792C354.505 372.683 354.835 372.628 355.183 372.628C355.767 372.628 356.3 372.774 356.784 373.065C357.268 373.354 357.656 373.753 357.947 374.264C358.239 374.771 358.385 375.352 358.385 376.009C358.385 376.638 358.244 377.215 357.962 377.739C357.681 378.259 357.284 378.673 356.774 378.982C356.267 379.286 355.67 379.436 354.984 379.429ZM354.984 378.335C355.402 378.335 355.776 378.231 356.108 378.022C356.443 377.813 356.706 377.533 356.898 377.182C357.094 376.831 357.192 376.439 357.192 376.009C357.192 375.588 357.097 375.205 356.908 374.86C356.723 374.512 356.466 374.235 356.138 374.03C355.813 373.824 355.442 373.722 355.024 373.722C354.709 373.722 354.416 373.785 354.144 373.911C353.872 374.033 353.634 374.202 353.428 374.418C353.226 374.633 353.067 374.88 352.951 375.158C352.835 375.433 352.777 375.724 352.777 376.028C352.777 376.433 352.871 376.811 353.06 377.162C353.253 377.513 353.514 377.797 353.846 378.012C354.181 378.228 354.56 378.335 354.984 378.335ZM362.055 377.987C361.81 377.987 361.599 377.899 361.424 377.724C361.248 377.548 361.16 377.338 361.16 377.092C361.16 376.847 361.248 376.637 361.424 376.461C361.599 376.285 361.81 376.197 362.055 376.197C362.3 376.197 362.511 376.285 362.686 376.461C362.862 376.637 362.95 376.847 362.95 377.092C362.95 377.255 362.908 377.404 362.826 377.54C362.746 377.676 362.638 377.785 362.502 377.868C362.37 377.947 362.221 377.987 362.055 377.987ZM362.055 372.837C361.81 372.837 361.599 372.749 361.424 372.573C361.248 372.398 361.16 372.187 361.16 371.942C361.16 371.697 361.248 371.486 361.424 371.31C361.599 371.135 361.81 371.047 362.055 371.047C362.3 371.047 362.511 371.135 362.686 371.31C362.862 371.486 362.95 371.697 362.95 371.942C362.95 372.104 362.908 372.253 362.826 372.389C362.746 372.525 362.638 372.634 362.502 372.717C362.37 372.797 362.221 372.837 362.055 372.837ZM369.196 379.429C368.447 379.429 367.809 379.225 367.282 378.817C366.755 378.407 366.353 377.812 366.074 377.033C365.796 376.25 365.657 375.306 365.657 374.199C365.657 373.099 365.796 372.159 366.074 371.38C366.356 370.598 366.76 370.001 367.287 369.59C367.818 369.176 368.454 368.969 369.196 368.969C369.939 368.969 370.574 369.176 371.101 369.59C371.631 370.001 372.035 370.598 372.314 371.38C372.595 372.159 372.736 373.099 372.736 374.199C372.736 375.306 372.597 376.25 372.319 377.033C372.04 377.812 371.637 378.407 371.111 378.817C370.584 379.225 369.945 379.429 369.196 379.429ZM369.196 378.335C369.939 378.335 370.516 377.977 370.927 377.261C371.338 376.545 371.543 375.525 371.543 374.199C371.543 373.317 371.449 372.567 371.26 371.947C371.074 371.327 370.806 370.855 370.454 370.53C370.106 370.205 369.687 370.043 369.196 370.043C368.461 370.043 367.886 370.406 367.471 371.131C367.057 371.854 366.85 372.876 366.85 374.199C366.85 375.081 366.943 375.83 367.128 376.446C367.314 377.063 367.581 377.532 367.929 377.853C368.28 378.175 368.703 378.335 369.196 378.335ZM378.786 379.429C378.037 379.429 377.399 379.225 376.872 378.817C376.345 378.407 375.943 377.812 375.664 377.033C375.386 376.25 375.247 375.306 375.247 374.199C375.247 373.099 375.386 372.159 375.664 371.38C375.946 370.598 376.35 370.001 376.877 369.59C377.408 369.176 378.044 368.969 378.786 368.969C379.529 368.969 380.164 369.176 380.691 369.59C381.221 370.001 381.625 370.598 381.904 371.38C382.185 372.159 382.326 373.099 382.326 374.199C382.326 375.306 382.187 376.25 381.909 377.033C381.63 377.812 381.227 378.407 380.701 378.817C380.174 379.225 379.535 379.429 378.786 379.429ZM378.786 378.335C379.529 378.335 380.106 377.977 380.517 377.261C380.928 376.545 381.133 375.525 381.133 374.199C381.133 373.317 381.039 372.567 380.85 371.947C380.664 371.327 380.396 370.855 380.044 370.53C379.696 370.205 379.277 370.043 378.786 370.043C378.051 370.043 377.476 370.406 377.061 371.131C376.647 371.854 376.44 372.876 376.44 374.199C376.44 375.081 376.533 375.83 376.718 376.446C376.904 377.063 377.171 377.532 377.519 377.853C377.87 378.175 378.293 378.335 378.786 378.335Z" fill="#615E83"/>
<path d="M448.706 369.108V379.29H447.473V370.401H447.414L444.928 372.051V370.798L447.473 369.108H448.706ZM455.736 379.429C455.053 379.429 454.45 379.308 453.926 379.066C453.406 378.821 453 378.484 452.708 378.057C452.417 377.626 452.273 377.135 452.276 376.585C452.273 376.154 452.357 375.757 452.529 375.392C452.702 375.024 452.937 374.718 453.235 374.472C453.537 374.224 453.873 374.066 454.245 374V373.94C453.757 373.814 453.37 373.541 453.081 373.12C452.793 372.696 452.65 372.214 452.654 371.673C452.65 371.156 452.781 370.694 453.046 370.286C453.312 369.879 453.676 369.557 454.14 369.322C454.608 369.086 455.139 368.969 455.736 368.969C456.326 368.969 456.853 369.086 457.317 369.322C457.781 369.557 458.146 369.879 458.411 370.286C458.679 370.694 458.815 371.156 458.818 371.673C458.815 372.214 458.668 372.696 458.376 373.12C458.088 373.541 457.705 373.814 457.228 373.94V374C457.595 374.066 457.927 374.224 458.222 374.472C458.517 374.718 458.752 375.024 458.928 375.392C459.104 375.757 459.193 376.154 459.196 376.585C459.193 377.135 459.044 377.626 458.749 378.057C458.457 378.484 458.051 378.821 457.531 379.066C457.014 379.308 456.416 379.429 455.736 379.429ZM455.736 378.335C456.197 378.335 456.595 378.261 456.929 378.112C457.264 377.962 457.523 377.752 457.705 377.48C457.887 377.208 457.98 376.89 457.983 376.526C457.98 376.141 457.88 375.801 457.685 375.506C457.489 375.211 457.223 374.979 456.885 374.81C456.55 374.641 456.167 374.557 455.736 374.557C455.302 374.557 454.914 374.641 454.573 374.81C454.235 374.979 453.968 375.211 453.772 375.506C453.58 375.801 453.486 376.141 453.489 376.526C453.486 376.89 453.573 377.208 453.752 377.48C453.935 377.752 454.195 377.962 454.533 378.112C454.871 378.261 455.272 378.335 455.736 378.335ZM455.736 373.503C456.101 373.503 456.424 373.43 456.706 373.284C456.991 373.138 457.214 372.934 457.377 372.673C457.539 372.411 457.622 372.104 457.625 371.753C457.622 371.408 457.541 371.108 457.382 370.853C457.223 370.594 457.002 370.396 456.72 370.256C456.439 370.114 456.111 370.043 455.736 370.043C455.355 370.043 455.022 370.114 454.737 370.256C454.452 370.396 454.231 370.594 454.076 370.853C453.92 371.108 453.844 371.408 453.847 371.753C453.844 372.104 453.921 372.411 454.081 372.673C454.243 372.934 454.467 373.138 454.752 373.284C455.037 373.43 455.365 373.503 455.736 373.503ZM462.817 377.987C462.571 377.987 462.361 377.899 462.185 377.724C462.01 377.548 461.922 377.338 461.922 377.092C461.922 376.847 462.01 376.637 462.185 376.461C462.361 376.285 462.571 376.197 462.817 376.197C463.062 376.197 463.272 376.285 463.448 376.461C463.624 376.637 463.712 376.847 463.712 377.092C463.712 377.255 463.67 377.404 463.587 377.54C463.508 377.676 463.4 377.785 463.264 377.868C463.132 377.947 462.982 377.987 462.817 377.987ZM462.817 372.837C462.571 372.837 462.361 372.749 462.185 372.573C462.01 372.398 461.922 372.187 461.922 371.942C461.922 371.697 462.01 371.486 462.185 371.31C462.361 371.135 462.571 371.047 462.817 371.047C463.062 371.047 463.272 371.135 463.448 371.31C463.624 371.486 463.712 371.697 463.712 371.942C463.712 372.104 463.67 372.253 463.587 372.389C463.508 372.525 463.4 372.634 463.264 372.717C463.132 372.797 462.982 372.837 462.817 372.837ZM469.958 379.429C469.209 379.429 468.571 379.225 468.044 378.817C467.517 378.407 467.114 377.812 466.836 377.033C466.558 376.25 466.418 375.306 466.418 374.199C466.418 373.099 466.558 372.159 466.836 371.38C467.118 370.598 467.522 370.001 468.049 369.59C468.579 369.176 469.216 368.969 469.958 368.969C470.701 368.969 471.335 369.176 471.862 369.59C472.393 370.001 472.797 370.598 473.075 371.38C473.357 372.159 473.498 373.099 473.498 374.199C473.498 375.306 473.359 376.25 473.08 377.033C472.802 377.812 472.399 378.407 471.872 378.817C471.345 379.225 470.707 379.429 469.958 379.429ZM469.958 378.335C470.701 378.335 471.277 377.977 471.688 377.261C472.099 376.545 472.305 375.525 472.305 374.199C472.305 373.317 472.21 372.567 472.021 371.947C471.836 371.327 471.567 370.855 471.216 370.53C470.868 370.205 470.449 370.043 469.958 370.043C469.222 370.043 468.647 370.406 468.233 371.131C467.819 371.854 467.612 372.876 467.612 374.199C467.612 375.081 467.704 375.83 467.89 376.446C468.076 377.063 468.342 377.532 468.69 377.853C469.042 378.175 469.464 378.335 469.958 378.335ZM479.548 379.429C478.799 379.429 478.161 379.225 477.634 378.817C477.107 378.407 476.704 377.812 476.426 377.033C476.148 376.25 476.008 375.306 476.008 374.199C476.008 373.099 476.148 372.159 476.426 371.38C476.708 370.598 477.112 370.001 477.639 369.59C478.169 369.176 478.806 368.969 479.548 368.969C480.291 368.969 480.925 369.176 481.452 369.59C481.983 370.001 482.387 370.598 482.665 371.38C482.947 372.159 483.088 373.099 483.088 374.199C483.088 375.306 482.949 376.25 482.67 377.033C482.392 377.812 481.989 378.407 481.462 378.817C480.935 379.225 480.297 379.429 479.548 379.429ZM479.548 378.335C480.291 378.335 480.867 377.977 481.278 377.261C481.689 376.545 481.895 375.525 481.895 374.199C481.895 373.317 481.8 372.567 481.611 371.947C481.426 371.327 481.157 370.855 480.806 370.53C480.458 370.205 480.039 370.043 479.548 370.043C478.812 370.043 478.237 370.406 477.823 371.131C477.409 371.854 477.202 372.876 477.202 374.199C477.202 375.081 477.294 375.83 477.48 376.446C477.666 377.063 477.932 377.532 478.28 377.853C478.632 378.175 479.054 378.335 479.548 378.335Z" fill="#615E83"/>
<line x1="150.494" y1="341.54" x2="150.494" y2="111.04" stroke="#E5E5EF" stroke-width="1.5" stroke-linecap="round" stroke-dasharray="4 7"/>
<line x1="260.893" y1="341.54" x2="260.893" y2="111.04" stroke="#E5E5EF" stroke-width="1.5" stroke-linecap="round" stroke-dasharray="4 7"/>
<line x1="371.291" y1="341.54" x2="371.291" y2="111.04" stroke="#E5E5EF" stroke-width="1.5" stroke-linecap="round" stroke-dasharray="4 7"/>
<g style="mix-blend-mode:multiply" opacity="0.33">
<path d="M16.3686 291.626C13.5252 291.097 8.66729 293.607 6.59375 294.929V414.29H516.643V277.532C514.199 277.532 514.643 277.532 510.645 273.128C506.646 268.724 505.535 266.742 498.871 270.046C492.206 273.349 491.318 270.046 486.875 264.1C482.432 258.154 480.211 259.916 474.879 261.898C469.547 263.88 468.659 255.732 462.989 250.227C457.32 244.722 454.886 256.833 452.664 265.421C450.456 273.957 445.395 281.841 440.753 289.072L440.668 289.203C436.003 296.47 429.117 286.341 426.895 281.937C424.674 277.532 424.007 276.872 417.343 277.532C410.679 278.193 408.679 275.33 406.458 270.046C404.236 264.761 404.681 266.082 399.571 261.898C394.462 257.714 392.018 260.577 389.13 259.916C386.243 259.255 382.91 251.548 380.689 247.144C378.467 242.74 378.69 239.657 372.025 241.639C365.457 243.592 364.067 241.267 360.626 235.508L360.474 235.253C356.919 229.308 354.476 227.546 347.367 224.463C340.258 221.38 342.48 222.701 337.148 224.463C331.817 226.225 329.151 223.803 325.819 219.619C322.487 215.435 323.597 207.067 314.489 210.37C305.381 213.673 303.382 205.746 301.383 197.378C299.383 189.01 293.83 189.01 288.276 190.772C282.722 192.533 280.279 180.422 279.834 172.054C279.39 163.687 278.946 160.384 272.504 160.384C266.061 160.384 266.506 173.596 264.062 190.772C261.618 207.948 262.951 208.388 255.62 209.049L255.62 209.049C248.29 209.709 248.29 209.709 244.291 222.701C240.292 235.693 238.737 235.253 231.629 235.253C224.52 235.253 221.854 245.603 219.411 256.393C216.996 267.055 211.762 264.171 203.922 259.852L203.638 259.696C195.641 255.292 193.864 256.393 188.754 240.758C183.645 225.124 177.203 232.39 174.315 242.079C171.427 251.769 169.872 253.09 164.985 256.393C160.097 259.696 155.21 260.577 153.433 266.522C151.656 272.468 145.658 277.312 140.548 273.789C135.439 270.266 131.663 271.146 128.775 277.312C125.887 283.478 122.999 283.258 119.667 283.918C116.335 284.579 109.226 283.918 105.671 290.084C102.117 296.25 97.2299 294.929 94.5642 293.607C91.8984 292.286 86.3447 291.626 84.5676 293.607C82.7904 295.589 77.4589 302.636 71.5679 291.626C65.677 280.615 59.0207 287.882 57.6878 290.084L57.6345 290.172C56.2731 292.423 53.1809 297.537 48.3577 294.929C43.4705 292.286 39.4718 291.626 35.6953 294.929C31.9188 298.232 28.3645 299.553 25.6987 297.571C23.033 295.589 19.9229 292.286 16.3686 291.626Z" fill="url(#paint0_linear_143_1100)"/>
</g>
<path d="M8.59375 293.843C10.6512 292.532 15.4713 290.041 18.2926 290.565C21.8192 291.221 24.905 294.498 27.55 296.464C30.195 298.431 33.7217 297.12 37.4688 293.843C41.2159 290.565 45.1834 291.221 50.0326 293.843C54.8818 296.464 57.9677 291.221 59.2902 289.036C60.6127 286.851 67.2171 279.64 73.0622 290.565C78.9073 301.49 84.1974 294.498 85.9607 292.531C87.724 290.565 93.2345 291.22 95.8795 292.531C98.5245 293.843 103.374 295.154 106.9 289.036C110.427 282.918 117.48 283.573 120.787 282.918C124.093 282.262 126.958 282.481 129.824 276.363C132.689 270.245 136.436 269.371 141.506 272.867C146.576 276.363 152.527 271.556 154.29 265.657C156.053 259.758 160.903 258.884 165.752 255.607C170.601 252.329 172.144 251.018 175.009 241.405C177.875 231.791 184.267 224.581 189.337 240.094C194.406 255.607 196.169 254.514 204.104 258.884C212.04 263.254 217.33 266.313 219.754 255.607C222.179 244.9 224.824 234.631 231.877 234.631C238.93 234.631 240.473 235.068 244.441 222.177C248.408 209.286 248.408 209.286 255.682 208.631C262.956 207.975 261.633 207.538 264.058 190.496C266.483 173.454 266.042 160.344 272.434 160.344C278.826 160.344 279.267 163.622 279.708 171.924C280.149 180.227 282.573 192.244 288.084 190.496C293.594 188.748 299.104 188.748 301.088 197.051C303.072 205.354 305.056 213.219 314.093 209.942C323.13 206.665 322.028 214.967 325.334 219.119C328.64 223.27 331.285 225.673 336.575 223.925C341.865 222.177 339.661 220.866 346.715 223.925C353.768 226.984 356.193 228.732 359.719 234.631C363.246 240.531 364.568 242.934 371.181 240.968C377.794 239.001 377.573 242.06 379.777 246.43C381.981 250.8 385.288 258.447 388.153 259.102C391.019 259.758 393.443 256.917 398.513 261.069C403.582 265.22 403.142 263.909 405.346 269.153C407.55 274.397 409.534 277.237 416.146 276.582C422.759 275.926 423.42 276.582 425.624 280.951C427.828 285.321 434.661 295.372 439.29 288.162C443.919 280.951 448.988 273.086 451.193 264.565C453.397 256.044 455.812 244.027 461.437 249.489C467.063 254.951 467.944 263.035 473.234 261.069C478.524 259.102 480.729 257.354 485.137 263.254C489.545 269.153 490.427 272.43 497.039 269.153C503.652 265.876 504.754 267.842 508.722 272.212C512.689 276.582 512.248 276.582 514.673 276.582" stroke="url(#paint1_linear_143_1100)" stroke-width="4" stroke-linecap="round"/>
<line x1="181.697" y1="230.955" x2="181.697" y2="341.29" stroke="#9291A5" stroke-width="2" stroke-linecap="round" stroke-dasharray="7 7"/>
<g filter="url(#filter1_d_143_1100)">
<circle cx="181.891" cy="229.955" r="10.8438" fill="#03CEA4"/>
<circle cx="181.891" cy="229.955" r="8.84375" stroke="white" stroke-width="4"/>
</g>
<g filter="url(#filter2_d_143_1100)">
<path fill-rule="evenodd" clip-rule="evenodd" d="M157.418 161.275C153 161.275 149.418 164.857 149.418 169.275L149.418 195.275C149.418 199.694 153 203.275 157.418 203.275L173.853 203.275C173.866 203.29 173.879 203.305 173.892 203.319L180.414 210.46C181.207 211.329 182.575 211.329 183.368 210.46L189.89 203.319C189.903 203.305 189.916 203.29 189.928 203.275L206.364 203.275C210.783 203.275 214.364 199.694 214.364 195.275L214.364 169.275C214.364 164.857 210.783 161.275 206.364 161.275L157.418 161.275Z" fill="white"/>
</g>
<path d="M172.492 188.434C171.78 188.434 171.14 188.298 170.572 188.025C170.008 187.749 169.557 187.37 169.22 186.889C168.883 186.408 168.703 185.859 168.68 185.241H170.384C170.426 185.741 170.648 186.152 171.049 186.474C171.451 186.796 171.932 186.957 172.492 186.957C172.939 186.957 173.335 186.855 173.68 186.65C174.028 186.442 174.301 186.156 174.498 185.792C174.699 185.429 174.799 185.014 174.799 184.548C174.799 184.075 174.697 183.652 174.492 183.281C174.288 182.91 174.006 182.618 173.646 182.406C173.29 182.194 172.881 182.086 172.419 182.082C172.066 182.082 171.712 182.143 171.356 182.264C171 182.385 170.712 182.544 170.492 182.741L168.884 182.503L169.538 176.639H175.936V178.145H170.998L170.629 181.4H170.697C170.924 181.181 171.225 180.997 171.6 180.849C171.979 180.702 172.384 180.628 172.816 180.628C173.525 180.628 174.155 180.796 174.708 181.133C175.265 181.47 175.703 181.931 176.021 182.514C176.343 183.094 176.502 183.76 176.498 184.514C176.502 185.268 176.331 185.94 175.987 186.531C175.646 187.122 175.172 187.588 174.566 187.929C173.964 188.266 173.273 188.434 172.492 188.434ZM178.965 188.275L184.045 178.23V178.145H178.17V176.639H185.863V178.196L180.801 188.275H178.965ZM186.657 186.003V184.582L191.686 176.639H192.805V178.73H192.095L188.498 184.423V184.514H195.39V186.003H186.657ZM192.174 188.275V185.571L192.186 184.923V176.639H193.85V188.275H192.174Z" fill="#1E1B39"/>
<line x1="39.7324" y1="109.79" x2="483.282" y2="109.79" stroke="#E5E5EF"/>
<path d="M429.597 76.8441V89.9351H428.012V78.5061H427.935L424.739 80.6282V79.0174L428.012 76.8441H429.597ZM433.362 89.9351V88.7845L437.683 84.0544C438.19 83.5004 438.608 83.0189 438.936 82.6098C439.264 82.1964 439.507 81.8086 439.665 81.4464C439.826 81.0799 439.907 80.6964 439.907 80.2959C439.907 79.8356 439.797 79.4372 439.575 79.1005C439.358 78.7639 439.059 78.504 438.68 78.3207C438.301 78.1375 437.875 78.0459 437.402 78.0459C436.899 78.0459 436.46 78.1503 436.085 78.3591C435.714 78.5636 435.427 78.8513 435.222 79.222C435.022 79.5927 434.922 80.0274 434.922 80.526H433.413C433.413 79.7589 433.59 79.0856 433.944 78.5061C434.297 77.9265 434.779 77.4748 435.388 77.151C436.002 76.8271 436.69 76.6652 437.453 76.6652C438.22 76.6652 438.9 76.8271 439.492 77.151C440.084 77.4748 440.549 77.9116 440.885 78.4613C441.222 79.0111 441.39 79.6226 441.39 80.2959C441.39 80.7774 441.303 81.2483 441.128 81.7085C440.958 82.1645 440.66 82.6737 440.233 83.2362C439.812 83.7944 439.226 84.4763 438.476 85.2816L435.535 88.4265V88.5288H441.62V89.9351H433.362ZM445.385 90.0373C445.07 90.0373 444.799 89.9244 444.574 89.6986C444.348 89.4727 444.235 89.2021 444.235 88.8868C444.235 88.5714 444.348 88.3008 444.574 88.075C444.799 87.8491 445.07 87.7362 445.385 87.7362C445.701 87.7362 445.971 87.8491 446.197 88.075C446.423 88.3008 446.536 88.5714 446.536 88.8868C446.536 89.0956 446.483 89.2873 446.376 89.462C446.274 89.6368 446.135 89.7774 445.961 89.8839C445.79 89.9862 445.598 90.0373 445.385 90.0373ZM449.363 89.9351L455.218 78.3527V78.2504H448.468V76.8441H456.854V78.3271L451.025 89.9351H449.363ZM463.152 90.114C462.402 90.114 461.727 89.9649 461.126 89.6666C460.525 89.3683 460.043 88.9592 459.681 88.4393C459.319 87.9194 459.121 87.3271 459.087 86.6623H460.621C460.68 87.2547 460.949 87.7447 461.426 88.1325C461.908 88.516 462.483 88.7078 463.152 88.7078C463.689 88.7078 464.166 88.5821 464.584 88.3307C465.006 88.0792 465.336 87.7341 465.575 87.2951C465.818 86.852 465.939 86.3513 465.939 85.793C465.939 85.222 465.813 84.7128 465.562 84.2653C465.315 83.8136 464.974 83.4578 464.539 83.1978C464.104 82.9379 463.608 82.8058 463.05 82.8015C462.649 82.7973 462.238 82.8591 461.816 82.9869C461.394 83.1105 461.047 83.2703 460.774 83.4663L459.291 83.2873L460.084 76.8441H466.885V78.2504H461.413L460.953 82.1112H461.03C461.298 81.8981 461.635 81.7213 462.04 81.5807C462.445 81.44 462.867 81.3697 463.305 81.3697C464.107 81.3697 464.82 81.5615 465.447 81.945C466.078 82.3243 466.572 82.8441 466.93 83.5047C467.292 84.1652 467.473 84.9194 467.473 85.7674C467.473 86.6027 467.286 87.3484 466.911 88.0047C466.54 88.6566 466.028 89.1723 465.377 89.5515C464.725 89.9265 463.983 90.114 463.152 90.114ZM476.686 87.4805V86.7902C476.686 86.3129 476.784 85.8761 476.98 85.4798C477.18 85.0792 477.47 84.7596 477.849 84.521C478.233 84.2781 478.697 84.1566 479.242 84.1566C479.796 84.1566 480.261 84.2781 480.636 84.521C481.011 84.7596 481.294 85.0792 481.486 85.4798C481.678 85.8761 481.774 86.3129 481.774 86.7902V87.4805C481.774 87.9578 481.676 88.3967 481.48 88.7973C481.288 89.1936 481.002 89.5132 480.623 89.7561C480.248 89.9947 479.788 90.114 479.242 90.114C478.688 90.114 478.222 89.9947 477.843 89.7561C477.463 89.5132 477.176 89.1936 476.98 88.7973C476.784 88.3967 476.686 87.9578 476.686 87.4805ZM477.99 86.7902V87.4805C477.99 87.8768 478.083 88.2326 478.271 88.548C478.458 88.8591 478.782 89.0146 479.242 89.0146C479.69 89.0146 480.005 88.8591 480.188 88.548C480.376 88.2326 480.47 87.8768 480.47 87.4805V86.7902C480.47 86.3939 480.38 86.0402 480.201 85.7291C480.022 85.4138 479.703 85.2561 479.242 85.2561C478.795 85.2561 478.473 85.4138 478.277 85.7291C478.085 86.0402 477.99 86.3939 477.99 86.7902ZM470.166 79.989V79.2987C470.166 78.8214 470.264 78.3846 470.46 77.9883C470.66 77.5878 470.95 77.2682 471.329 77.0295C471.713 76.7866 472.177 76.6652 472.723 76.6652C473.277 76.6652 473.741 76.7866 474.116 77.0295C474.491 77.2682 474.774 77.5878 474.966 77.9883C475.158 78.3846 475.254 78.8214 475.254 79.2987V79.989C475.254 80.4663 475.156 80.9052 474.96 81.3058C474.768 81.7021 474.483 82.0217 474.103 82.2646C473.728 82.5032 473.268 82.6226 472.723 82.6226C472.169 82.6226 471.702 82.5032 471.323 82.2646C470.943 82.0217 470.656 81.7021 470.46 81.3058C470.264 80.9052 470.166 80.4663 470.166 79.989ZM471.47 79.2987V79.989C471.47 80.3853 471.563 80.7412 471.751 81.0565C471.938 81.3676 472.262 81.5231 472.723 81.5231C473.17 81.5231 473.485 81.3676 473.669 81.0565C473.856 80.7412 473.95 80.3853 473.95 79.989V79.2987C473.95 78.9024 473.86 78.5487 473.681 78.2376C473.502 77.9223 473.183 77.7646 472.723 77.7646C472.275 77.7646 471.953 77.9223 471.757 78.2376C471.566 78.5487 471.47 78.9024 471.47 79.2987ZM470.652 89.9351L479.652 76.8441H481.109L472.109 89.9351H470.652Z" fill="#03CEA4"/>
<circle cx="404.404" cy="82.9347" r="10.8781" fill="#E1F6E3"/>
<path d="M406.847 81.7758L406.555 82.0677C404.993 83.6296 403.431 85.1917 401.868 86.754C401.552 87.07 401.179 87.1392 400.806 86.9666C400.447 86.7977 400.25 86.4885 400.302 86.1146C400.349 85.8445 400.477 85.5949 400.668 85.3983C402.178 83.8605 403.708 82.3423 405.232 80.8182L405.521 80.5295C405.428 80.5135 405.334 80.5026 405.24 80.4967C404.629 80.494 404.017 80.4999 403.406 80.4921C402.923 80.4867 402.589 80.1538 402.583 79.6911C402.576 79.1866 402.879 78.8482 403.385 78.8451C404.79 78.8359 406.195 78.8349 407.599 78.8419C408.167 78.8451 408.487 79.152 408.497 79.7134C408.523 81.1072 408.538 82.5011 408.543 83.8951C408.545 84.4061 408.213 84.7066 407.705 84.7025C407.226 84.6979 406.911 84.3901 406.896 83.8938C406.881 83.3045 406.879 82.7148 406.871 82.1251C406.869 82.0322 406.857 81.9411 406.847 81.7758Z" fill="#03CEA4"/>
<path d="M410.242 39.4941V62.7668H405.321V44.1646H405.185L399.855 47.5055V43.1418L405.617 39.4941H410.242ZM419.83 59.585L419.705 60.835C419.606 61.835 419.417 62.8312 419.137 63.8237C418.864 64.8237 418.576 65.729 418.273 66.5396C417.978 67.3502 417.739 67.9865 417.557 68.4487H414.421C414.534 68.0017 414.69 67.3767 414.887 66.5737C415.084 65.7782 415.269 64.8843 415.444 63.8918C415.618 62.8994 415.728 61.8881 415.773 60.8578L415.83 59.585H419.83ZM432.398 63.2782C430.444 63.2706 428.762 62.7896 427.353 61.835C425.951 60.8805 424.872 59.4979 424.114 57.6873C423.364 55.8767 422.993 53.6987 423 51.1532C423 48.6153 423.375 46.4525 424.125 44.6646C424.883 42.8767 425.962 41.5168 427.364 40.585C428.773 39.6456 430.451 39.1759 432.398 39.1759C434.345 39.1759 436.019 39.6456 437.421 40.585C438.83 41.5244 439.913 42.8881 440.671 44.6759C441.428 46.4562 441.803 48.6153 441.796 51.1532C441.796 53.7062 441.417 55.8881 440.659 57.6987C439.909 59.5093 438.834 60.8918 437.432 61.8464C436.031 62.8009 434.353 63.2782 432.398 63.2782ZM432.398 59.1987C433.731 59.1987 434.796 58.5282 435.591 57.1873C436.387 55.8464 436.781 53.835 436.773 51.1532C436.773 49.3881 436.591 47.9184 436.228 46.7441C435.872 45.5699 435.364 44.6873 434.705 44.0964C434.053 43.5055 433.284 43.21 432.398 43.21C431.072 43.21 430.012 43.8729 429.216 45.1987C428.421 46.5244 428.019 48.5093 428.012 51.1532C428.012 52.9411 428.19 54.4335 428.546 55.6305C428.909 56.8199 429.421 57.7138 430.08 58.3123C430.739 58.9032 431.512 59.1987 432.398 59.1987ZM445.304 62.7668V59.2214L453.588 51.5509C454.293 50.8691 454.884 50.2555 455.361 49.71C455.846 49.1646 456.213 48.6305 456.463 48.1078C456.713 47.5775 456.838 47.0055 456.838 46.3918C456.838 45.71 456.683 45.1229 456.373 44.6305C456.062 44.1305 455.638 43.7479 455.1 43.4828C454.562 43.21 453.952 43.0737 453.27 43.0737C452.558 43.0737 451.937 43.2176 451.407 43.5055C450.876 43.7934 450.467 44.2062 450.179 44.7441C449.891 45.282 449.748 45.9221 449.748 46.6646H445.077C445.077 45.1418 445.422 43.8199 446.111 42.6987C446.801 41.5775 447.766 40.71 449.009 40.0964C450.251 39.4828 451.683 39.1759 453.304 39.1759C454.971 39.1759 456.422 39.4714 457.657 40.0623C458.899 40.6456 459.865 41.4562 460.554 42.4941C461.244 43.532 461.588 44.7214 461.588 46.0623C461.588 46.9411 461.414 47.8085 461.066 48.6646C460.725 49.5206 460.115 50.4714 459.236 51.5168C458.357 52.5547 457.119 53.8009 455.52 55.2555L452.123 58.585V58.7441H461.895V62.7668H445.304ZM466.381 62.7668L476.029 43.6759V43.5168H464.79V39.4941H481.12V43.5737L471.461 62.7668H466.381Z" fill="#1E1B39"/>
<path d="M41.123 82.2898V66.2898H47.4355C48.6439 66.2898 49.6751 66.5059 50.5293 66.9382C51.3887 67.3653 52.0423 67.9721 52.4902 68.7585C52.9434 69.5398 53.1699 70.4591 53.1699 71.5164C53.1699 72.5789 52.9408 73.4929 52.4824 74.2585C52.0241 75.019 51.36 75.6023 50.4902 76.0085C49.6257 76.4148 48.5788 76.6179 47.3496 76.6179H43.123V73.8992H46.8027C47.4486 73.8992 47.985 73.8106 48.4121 73.6335C48.8392 73.4565 49.1569 73.1908 49.3652 72.8367C49.5788 72.4825 49.6855 72.0424 49.6855 71.5164C49.6855 70.9851 49.5788 70.5372 49.3652 70.1726C49.1569 69.808 48.8366 69.532 48.4043 69.3445C47.9772 69.1518 47.4382 69.0554 46.7871 69.0554H44.5059V82.2898H41.123ZM49.7637 75.0085L53.7402 82.2898H50.0059L46.1152 75.0085H49.7637ZM60.7734 82.5242C59.5391 82.5242 58.4766 82.2742 57.5859 81.7742C56.7005 81.269 56.0182 80.5554 55.5391 79.6335C55.0599 78.7065 54.8203 77.6101 54.8203 76.3445C54.8203 75.1101 55.0599 74.0268 55.5391 73.0945C56.0182 72.1622 56.6927 71.4356 57.5625 70.9148C58.4375 70.394 59.4635 70.1335 60.6406 70.1335C61.4323 70.1335 62.1693 70.2611 62.8516 70.5164C63.5391 70.7664 64.138 71.144 64.6484 71.6492C65.1641 72.1544 65.5651 72.7898 65.8516 73.5554C66.138 74.3158 66.2813 75.2065 66.2813 76.2273V77.1414H56.1484V75.0789H63.1484C63.1484 74.5997 63.0443 74.1752 62.8359 73.8054C62.6276 73.4356 62.3385 73.1466 61.9688 72.9382C61.6042 72.7247 61.1797 72.6179 60.6953 72.6179C60.1901 72.6179 59.7422 72.7351 59.3516 72.9695C58.9661 73.1986 58.6641 73.5085 58.4453 73.8992C58.2266 74.2846 58.1146 74.7143 58.1094 75.1882V77.1492C58.1094 77.7429 58.2188 78.2559 58.4375 78.6882C58.6615 79.1205 58.9766 79.4539 59.3828 79.6882C59.7891 79.9226 60.2708 80.0398 60.8281 80.0398C61.1979 80.0398 61.5365 79.9877 61.8438 79.8835C62.151 79.7794 62.4141 79.6231 62.6328 79.4148C62.8516 79.2065 63.0182 78.9513 63.1328 78.6492L66.2109 78.8523C66.0547 79.5919 65.7344 80.2377 65.25 80.7898C64.7708 81.3367 64.151 81.7638 63.3906 82.071C62.6354 82.3731 61.763 82.5242 60.7734 82.5242ZM71.875 82.5164C71.1094 82.5164 70.4271 82.3835 69.8281 82.1179C69.2292 81.8471 68.7552 81.4486 68.4063 80.9226C68.0625 80.3914 67.8906 79.7299 67.8906 78.9382C67.8906 78.2716 68.013 77.7117 68.2578 77.2585C68.5026 76.8054 68.8359 76.4408 69.2578 76.1648C69.6797 75.8888 70.1589 75.6804 70.6953 75.5398C71.237 75.3992 71.8047 75.3002 72.3984 75.2429C73.0964 75.17 73.6589 75.1023 74.0859 75.0398C74.513 74.9721 74.8229 74.8731 75.0156 74.7429C75.2083 74.6127 75.3047 74.42 75.3047 74.1648V74.1179C75.3047 73.6231 75.1484 73.2403 74.8359 72.9695C74.5286 72.6986 74.0911 72.5632 73.5234 72.5632C72.9245 72.5632 72.4479 72.696 72.0938 72.9617C71.7396 73.2221 71.5052 73.5502 71.3906 73.946L68.3125 73.696C68.4688 72.9669 68.776 72.3367 69.2344 71.8054C69.6927 71.269 70.2839 70.8575 71.0078 70.571C71.737 70.2794 72.5807 70.1335 73.5391 70.1335C74.2057 70.1335 74.8438 70.2117 75.4531 70.3679C76.0677 70.5242 76.612 70.7664 77.0859 71.0945C77.5651 71.4226 77.9427 71.8445 78.2188 72.3601C78.4948 72.8705 78.6328 73.4825 78.6328 74.196V82.2898H75.4766V80.6257H75.3828C75.1901 81.0007 74.9323 81.3315 74.6094 81.6179C74.2865 81.8992 73.8984 82.1205 73.4453 82.282C72.9922 82.4382 72.4688 82.5164 71.875 82.5164ZM72.8281 80.2195C73.3177 80.2195 73.75 80.1231 74.125 79.9304C74.5 79.7325 74.7943 79.4669 75.0078 79.1335C75.2214 78.8002 75.3281 78.4226 75.3281 78.0007V76.7273C75.224 76.795 75.0807 76.8575 74.8984 76.9148C74.7214 76.9669 74.5208 77.0164 74.2969 77.0632C74.0729 77.1049 73.849 77.144 73.625 77.1804C73.401 77.2117 73.1979 77.2403 73.0156 77.2664C72.625 77.3236 72.2839 77.4148 71.9922 77.5398C71.7005 77.6648 71.474 77.8341 71.3125 78.0476C71.151 78.2559 71.0703 78.5164 71.0703 78.8289C71.0703 79.282 71.2344 79.6283 71.5625 79.8679C71.8958 80.1023 72.3177 80.2195 72.8281 80.2195ZM84.543 66.2898V82.2898H81.2148V66.2898H84.543ZM94.6855 74.3992V77.0398H87.3887V74.3992H94.6855ZM103.904 70.2898V72.7898H96.6777V70.2898H103.904ZM98.3184 67.4148H101.646V78.6023C101.646 78.9096 101.693 79.1492 101.787 79.321C101.881 79.4877 102.011 79.6049 102.178 79.6726C102.35 79.7403 102.548 79.7742 102.771 79.7742C102.928 79.7742 103.084 79.7611 103.24 79.7351C103.396 79.7039 103.516 79.6804 103.6 79.6648L104.123 82.1414C103.956 82.1934 103.722 82.2533 103.42 82.321C103.118 82.394 102.751 82.4382 102.318 82.4539C101.516 82.4851 100.813 82.3783 100.209 82.1335C99.61 81.8888 99.1439 81.5085 98.8105 80.9929C98.4772 80.4773 98.3132 79.8263 98.3184 79.0398V67.4148ZM106.072 82.2898V70.2898H109.4V82.2898H106.072ZM107.744 68.7429C107.249 68.7429 106.825 68.5789 106.471 68.2507C106.122 67.9174 105.947 67.519 105.947 67.0554C105.947 66.5971 106.122 66.2039 106.471 65.8757C106.825 65.5424 107.249 65.3757 107.744 65.3757C108.239 65.3757 108.661 65.5424 109.01 65.8757C109.364 66.2039 109.541 66.5971 109.541 67.0554C109.541 67.519 109.364 67.9174 109.01 68.2507C108.661 68.5789 108.239 68.7429 107.744 68.7429ZM112.066 82.2898V70.2898H115.238V72.407H115.379C115.629 71.7039 116.046 71.1492 116.629 70.7429C117.212 70.3367 117.91 70.1335 118.723 70.1335C119.546 70.1335 120.246 70.3393 120.824 70.7507C121.402 71.157 121.788 71.7091 121.98 72.407H122.105C122.35 71.7195 122.793 71.17 123.434 70.7585C124.079 70.3419 124.842 70.1335 125.723 70.1335C126.842 70.1335 127.751 70.4903 128.449 71.2039C129.152 71.9122 129.504 72.9174 129.504 74.2195V82.2898H126.184V74.8757C126.184 74.2091 126.007 73.7091 125.652 73.3757C125.298 73.0424 124.855 72.8757 124.324 72.8757C123.72 72.8757 123.249 73.0684 122.91 73.4539C122.572 73.8341 122.402 74.3367 122.402 74.9617V82.2898H119.176V74.8054C119.176 74.2169 119.007 73.7481 118.668 73.3992C118.335 73.0502 117.895 72.8757 117.348 72.8757C116.978 72.8757 116.645 72.9695 116.348 73.157C116.056 73.3393 115.824 73.5971 115.652 73.9304C115.48 74.2585 115.395 74.644 115.395 75.0867V82.2898H112.066ZM137.602 82.5242C136.367 82.5242 135.305 82.2742 134.414 81.7742C133.529 81.269 132.846 80.5554 132.367 79.6335C131.888 78.7065 131.648 77.6101 131.648 76.3445C131.648 75.1101 131.888 74.0268 132.367 73.0945C132.846 72.1622 133.521 71.4356 134.391 70.9148C135.266 70.394 136.292 70.1335 137.469 70.1335C138.26 70.1335 138.997 70.2611 139.68 70.5164C140.367 70.7664 140.966 71.144 141.477 71.6492C141.992 72.1544 142.393 72.7898 142.68 73.5554C142.966 74.3158 143.109 75.2065 143.109 76.2273V77.1414H132.977V75.0789H139.977C139.977 74.5997 139.872 74.1752 139.664 73.8054C139.456 73.4356 139.167 73.1466 138.797 72.9382C138.432 72.7247 138.008 72.6179 137.523 72.6179C137.018 72.6179 136.57 72.7351 136.18 72.9695C135.794 73.1986 135.492 73.5085 135.273 73.8992C135.055 74.2846 134.943 74.7143 134.938 75.1882V77.1492C134.938 77.7429 135.047 78.2559 135.266 78.6882C135.49 79.1205 135.805 79.4539 136.211 79.6882C136.617 79.9226 137.099 80.0398 137.656 80.0398C138.026 80.0398 138.365 79.9877 138.672 79.8835C138.979 79.7794 139.242 79.6231 139.461 79.4148C139.68 79.2065 139.846 78.9513 139.961 78.6492L143.039 78.8523C142.883 79.5919 142.563 80.2377 142.078 80.7898C141.599 81.3367 140.979 81.7638 140.219 82.071C139.464 82.3731 138.591 82.5242 137.602 82.5242ZM155.795 82.5242C154.566 82.5242 153.508 82.2638 152.623 81.7429C151.743 81.2169 151.066 80.4877 150.592 79.5554C150.123 78.6231 149.889 77.5502 149.889 76.3367C149.889 75.1075 150.126 74.0294 150.6 73.1023C151.079 72.17 151.758 71.4434 152.639 70.9226C153.519 70.3966 154.566 70.1335 155.779 70.1335C156.826 70.1335 157.743 70.3236 158.529 70.7039C159.316 71.0841 159.938 71.6179 160.396 72.3054C160.855 72.9929 161.107 73.8002 161.154 74.7273H158.014C157.925 74.1283 157.691 73.6466 157.311 73.282C156.936 72.9122 156.443 72.7273 155.834 72.7273C155.318 72.7273 154.868 72.8679 154.482 73.1492C154.102 73.4252 153.805 73.8289 153.592 74.3601C153.378 74.8914 153.271 75.5346 153.271 76.2898C153.271 77.0554 153.376 77.7065 153.584 78.2429C153.798 78.7794 154.097 79.1882 154.482 79.4695C154.868 79.7507 155.318 79.8914 155.834 79.8914C156.214 79.8914 156.555 79.8132 156.857 79.657C157.165 79.5007 157.417 79.2742 157.615 78.9773C157.818 78.6752 157.951 78.3132 158.014 77.8914H161.154C161.102 78.808 160.852 79.6153 160.404 80.3132C159.962 81.0059 159.35 81.5476 158.568 81.9382C157.787 82.3289 156.863 82.5242 155.795 82.5242ZM170.98 77.1804V70.2898H174.309V82.2898H171.113V80.1101H170.988C170.717 80.8132 170.267 81.3783 169.637 81.8054C169.012 82.2325 168.249 82.446 167.348 82.446C166.546 82.446 165.84 82.2638 165.23 81.8992C164.621 81.5346 164.145 81.0164 163.801 80.3445C163.462 79.6726 163.29 78.8679 163.285 77.9304V70.2898H166.613V77.3367C166.618 78.045 166.809 78.6049 167.184 79.0164C167.559 79.4278 168.061 79.6335 168.691 79.6335C169.092 79.6335 169.467 79.5424 169.816 79.3601C170.165 79.1726 170.447 78.8966 170.66 78.532C170.879 78.1674 170.986 77.7169 170.98 77.1804ZM186.955 73.7117L183.908 73.8992C183.856 73.6388 183.744 73.4044 183.572 73.196C183.4 72.9825 183.174 72.8132 182.893 72.6882C182.617 72.558 182.286 72.4929 181.9 72.4929C181.385 72.4929 180.95 72.6023 180.596 72.821C180.242 73.0346 180.064 73.321 180.064 73.6804C180.064 73.9669 180.179 74.2091 180.408 74.407C180.637 74.6049 181.031 74.7638 181.588 74.8835L183.76 75.321C184.926 75.5606 185.796 75.946 186.369 76.4773C186.942 77.0085 187.229 77.7065 187.229 78.571C187.229 79.3575 186.997 80.0476 186.533 80.6414C186.075 81.2351 185.445 81.6986 184.643 82.032C183.846 82.3601 182.926 82.5242 181.885 82.5242C180.296 82.5242 179.031 82.1934 178.088 81.532C177.15 80.8653 176.601 79.9591 176.439 78.8132L179.713 78.6414C179.812 79.1257 180.051 79.4955 180.432 79.7507C180.812 80.0007 181.299 80.1257 181.893 80.1257C182.476 80.1257 182.945 80.0138 183.299 79.7898C183.658 79.5606 183.84 79.2664 183.846 78.907C183.84 78.6049 183.713 78.3575 183.463 78.1648C183.213 77.9669 182.827 77.8158 182.307 77.7117L180.229 77.2976C179.057 77.0632 178.184 76.657 177.611 76.0789C177.044 75.5007 176.76 74.7638 176.76 73.8679C176.76 73.0971 176.968 72.433 177.385 71.8757C177.807 71.3184 178.398 70.8888 179.158 70.5867C179.924 70.2846 180.82 70.1335 181.846 70.1335C183.361 70.1335 184.554 70.4539 185.424 71.0945C186.299 71.7351 186.809 72.6075 186.955 73.7117ZM195.707 70.2898V72.7898H188.48V70.2898H195.707ZM190.121 67.4148H193.449V78.6023C193.449 78.9096 193.496 79.1492 193.59 79.321C193.684 79.4877 193.814 79.6049 193.98 79.6726C194.152 79.7403 194.35 79.7742 194.574 79.7742C194.73 79.7742 194.887 79.7611 195.043 79.7351C195.199 79.7039 195.319 79.6804 195.402 79.6648L195.926 82.1414C195.759 82.1934 195.525 82.2533 195.223 82.321C194.921 82.394 194.553 82.4382 194.121 82.4539C193.319 82.4851 192.616 82.3783 192.012 82.1335C191.413 81.8888 190.947 81.5085 190.613 80.9929C190.28 80.4773 190.116 79.8263 190.121 79.0398V67.4148ZM203.168 82.5242C201.954 82.5242 200.905 82.2664 200.02 81.7507C199.139 81.2299 198.46 80.5059 197.98 79.5789C197.501 78.6466 197.262 77.5658 197.262 76.3367C197.262 75.0971 197.501 74.0138 197.98 73.0867C198.46 72.1544 199.139 71.4304 200.02 70.9148C200.905 70.394 201.954 70.1335 203.168 70.1335C204.382 70.1335 205.428 70.394 206.309 70.9148C207.194 71.4304 207.876 72.1544 208.355 73.0867C208.835 74.0138 209.074 75.0971 209.074 76.3367C209.074 77.5658 208.835 78.6466 208.355 79.5789C207.876 80.5059 207.194 81.2299 206.309 81.7507C205.428 82.2664 204.382 82.5242 203.168 82.5242ZM203.184 79.946C203.736 79.946 204.197 79.7898 204.566 79.4773C204.936 79.1596 205.215 78.7273 205.402 78.1804C205.595 77.6335 205.691 77.0111 205.691 76.3132C205.691 75.6153 205.595 74.9929 205.402 74.446C205.215 73.8992 204.936 73.4669 204.566 73.1492C204.197 72.8315 203.736 72.6726 203.184 72.6726C202.626 72.6726 202.158 72.8315 201.777 73.1492C201.402 73.4669 201.118 73.8992 200.926 74.446C200.738 74.9929 200.645 75.6153 200.645 76.3132C200.645 77.0111 200.738 77.6335 200.926 78.1804C201.118 78.7273 201.402 79.1596 201.777 79.4773C202.158 79.7898 202.626 79.946 203.184 79.946ZM211.238 82.2898V70.2898H214.41V72.407H214.551C214.801 71.7039 215.217 71.1492 215.801 70.7429C216.384 70.3367 217.082 70.1335 217.895 70.1335C218.717 70.1335 219.418 70.3393 219.996 70.7507C220.574 71.157 220.96 71.7091 221.152 72.407H221.277C221.522 71.7195 221.965 71.17 222.605 70.7585C223.251 70.3419 224.014 70.1335 224.895 70.1335C226.014 70.1335 226.923 70.4903 227.621 71.2039C228.324 71.9122 228.676 72.9174 228.676 74.2195V82.2898H225.355V74.8757C225.355 74.2091 225.178 73.7091 224.824 73.3757C224.47 73.0424 224.027 72.8757 223.496 72.8757C222.892 72.8757 222.421 73.0684 222.082 73.4539C221.743 73.8341 221.574 74.3367 221.574 74.9617V82.2898H218.348V74.8054C218.348 74.2169 218.178 73.7481 217.84 73.3992C217.507 73.0502 217.066 72.8757 216.52 72.8757C216.15 72.8757 215.816 72.9695 215.52 73.157C215.228 73.3393 214.996 73.5971 214.824 73.9304C214.652 74.2585 214.566 74.644 214.566 75.0867V82.2898H211.238ZM236.773 82.5242C235.539 82.5242 234.477 82.2742 233.586 81.7742C232.701 81.269 232.018 80.5554 231.539 79.6335C231.06 78.7065 230.82 77.6101 230.82 76.3445C230.82 75.1101 231.06 74.0268 231.539 73.0945C232.018 72.1622 232.693 71.4356 233.563 70.9148C234.438 70.394 235.464 70.1335 236.641 70.1335C237.432 70.1335 238.169 70.2611 238.852 70.5164C239.539 70.7664 240.138 71.144 240.648 71.6492C241.164 72.1544 241.565 72.7898 241.852 73.5554C242.138 74.3158 242.281 75.2065 242.281 76.2273V77.1414H232.148V75.0789H239.148C239.148 74.5997 239.044 74.1752 238.836 73.8054C238.628 73.4356 238.339 73.1466 237.969 72.9382C237.604 72.7247 237.18 72.6179 236.695 72.6179C236.19 72.6179 235.742 72.7351 235.352 72.9695C234.966 73.1986 234.664 73.5085 234.445 73.8992C234.227 74.2846 234.115 74.7143 234.109 75.1882V77.1492C234.109 77.7429 234.219 78.2559 234.438 78.6882C234.661 79.1205 234.977 79.4539 235.383 79.6882C235.789 79.9226 236.271 80.0398 236.828 80.0398C237.198 80.0398 237.536 79.9877 237.844 79.8835C238.151 79.7794 238.414 79.6231 238.633 79.4148C238.852 79.2065 239.018 78.9513 239.133 78.6492L242.211 78.8523C242.055 79.5919 241.734 80.2377 241.25 80.7898C240.771 81.3367 240.151 81.7638 239.391 82.071C238.635 82.3731 237.763 82.5242 236.773 82.5242ZM244.453 82.2898V70.2898H247.68V72.3835H247.805C248.023 71.6388 248.391 71.0763 248.906 70.696C249.422 70.3106 250.016 70.1179 250.688 70.1179C250.854 70.1179 251.034 70.1283 251.227 70.1492C251.419 70.17 251.589 70.1986 251.734 70.2351V73.1882C251.578 73.1414 251.362 73.0997 251.086 73.0632C250.81 73.0268 250.557 73.0085 250.328 73.0085C249.839 73.0085 249.401 73.1153 249.016 73.3289C248.635 73.5372 248.333 73.8289 248.109 74.2039C247.891 74.5789 247.781 75.0111 247.781 75.5007V82.2898H244.453ZM263.439 73.7117L260.393 73.8992C260.34 73.6388 260.229 73.4044 260.057 73.196C259.885 72.9825 259.658 72.8132 259.377 72.6882C259.101 72.558 258.77 72.4929 258.385 72.4929C257.869 72.4929 257.434 72.6023 257.08 72.821C256.726 73.0346 256.549 73.321 256.549 73.6804C256.549 73.9669 256.663 74.2091 256.893 74.407C257.122 74.6049 257.515 74.7638 258.072 74.8835L260.244 75.321C261.411 75.5606 262.281 75.946 262.854 76.4773C263.426 77.0085 263.713 77.7065 263.713 78.571C263.713 79.3575 263.481 80.0476 263.018 80.6414C262.559 81.2351 261.929 81.6986 261.127 82.032C260.33 82.3601 259.411 82.5242 258.369 82.5242C256.781 82.5242 255.515 82.1934 254.572 81.532C253.635 80.8653 253.085 79.9591 252.924 78.8132L256.197 78.6414C256.296 79.1257 256.536 79.4955 256.916 79.7507C257.296 80.0007 257.783 80.1257 258.377 80.1257C258.96 80.1257 259.429 80.0138 259.783 79.7898C260.143 79.5606 260.325 79.2664 260.33 78.907C260.325 78.6049 260.197 78.3575 259.947 78.1648C259.697 77.9669 259.312 77.8158 258.791 77.7117L256.713 77.2976C255.541 77.0632 254.669 76.657 254.096 76.0789C253.528 75.5007 253.244 74.7638 253.244 73.8679C253.244 73.0971 253.452 72.433 253.869 71.8757C254.291 71.3184 254.882 70.8888 255.643 70.5867C256.408 70.2846 257.304 70.1335 258.33 70.1335C259.846 70.1335 261.038 70.4539 261.908 71.0945C262.783 71.7351 263.294 72.6075 263.439 73.7117Z" fill="#1E1B39"/>
<path d="M40.1926 40.1989H42.008L45.6387 46.3097H45.7921L49.4228 40.1989H51.2381L46.508 47.8949V53.2898H44.9228V47.8949L40.1926 40.1989ZM55.6838 53.4943C54.7974 53.4943 54.0197 53.2834 53.3507 52.8615C52.6859 52.4397 52.166 51.8495 51.791 51.0909C51.4203 50.3324 51.2349 49.446 51.2349 48.4318C51.2349 47.4091 51.4203 46.5164 51.791 45.7536C52.166 44.9908 52.6859 44.3985 53.3507 43.9766C54.0197 43.5547 54.7974 43.3438 55.6838 43.3438C56.5701 43.3438 57.3457 43.5547 58.0105 43.9766C58.6795 44.3985 59.1994 44.9908 59.5701 45.7536C59.9451 46.5164 60.1326 47.4091 60.1326 48.4318C60.1326 49.446 59.9451 50.3324 59.5701 51.0909C59.1994 51.8495 58.6795 52.4397 58.0105 52.8615C57.3457 53.2834 56.5701 53.4943 55.6838 53.4943ZM55.6838 52.1392C56.3571 52.1392 56.911 51.9666 57.3457 51.6215C57.7804 51.2763 58.1021 50.8225 58.3109 50.26C58.5197 49.6975 58.6241 49.0881 58.6241 48.4318C58.6241 47.7756 58.5197 47.1641 58.3109 46.5973C58.1021 46.0306 57.7804 45.5725 57.3457 45.223C56.911 44.8736 56.3571 44.6989 55.6838 44.6989C55.0105 44.6989 54.4565 44.8736 54.0218 45.223C53.5872 45.5725 53.2654 46.0306 53.0566 46.5973C52.8478 47.1641 52.7434 47.7756 52.7434 48.4318C52.7434 49.0881 52.8478 49.6975 53.0566 50.26C53.2654 50.8225 53.5872 51.2763 54.0218 51.6215C54.4565 51.9666 55.0105 52.1392 55.6838 52.1392ZM68.6229 49.2756V43.4716H70.1314V53.2898H68.6229V51.6279H68.5206C68.2905 52.1264 67.9325 52.5504 67.4467 52.8999C66.9609 53.2451 66.3473 53.4176 65.6058 53.4176C64.9922 53.4176 64.4467 53.2834 63.9695 53.0149C63.4922 52.7422 63.1172 52.3331 62.8445 51.7877C62.5717 51.2379 62.4354 50.5455 62.4354 49.7102V43.4716H63.9439V49.608C63.9439 50.3239 64.1442 50.8949 64.5447 51.321C64.9496 51.7472 65.4652 51.9602 66.0916 51.9602C66.4666 51.9602 66.848 51.8644 67.2358 51.6726C67.6278 51.4808 67.956 51.1868 68.2202 50.7905C68.4886 50.3942 68.6229 49.8892 68.6229 49.2756ZM72.8944 53.2898V43.4716H74.3517V44.9546H74.454C74.633 44.4688 74.9569 44.0746 75.4256 43.772C75.8944 43.4695 76.4228 43.3182 77.0108 43.3182C77.1216 43.3182 77.2601 43.3203 77.4263 43.3246C77.5925 43.3289 77.7182 43.3352 77.8034 43.3438V44.8779C77.7523 44.8651 77.6351 44.8459 77.4519 44.8203C77.2729 44.7905 77.0833 44.7756 76.883 44.7756C76.4057 44.7756 75.9796 44.8757 75.6046 45.076C75.2338 45.272 74.9398 45.5448 74.7225 45.8942C74.5094 46.2394 74.4029 46.6335 74.4029 47.0767V53.2898H72.8944ZM84.8587 53.2898V40.1989H86.4439V51.8835H92.5291V53.2898H84.8587ZM97.6683 53.5199C97.0462 53.5199 96.4815 53.4027 95.9744 53.1683C95.4673 52.9297 95.0646 52.5867 94.7663 52.1392C94.468 51.6875 94.3189 51.1421 94.3189 50.5029C94.3189 49.9404 94.4297 49.4844 94.6513 49.135C94.8729 48.7813 95.169 48.5043 95.5398 48.304C95.9105 48.1037 96.3196 47.9546 96.767 47.8566C97.2188 47.7543 97.6726 47.6733 98.1286 47.6137C98.7251 47.537 99.2088 47.4794 99.5795 47.4411C99.9545 47.3985 100.227 47.3281 100.398 47.2301C100.572 47.1321 100.66 46.9617 100.66 46.7188V46.6676C100.66 46.037 100.487 45.5469 100.142 45.1975C99.8011 44.848 99.2834 44.6733 98.5888 44.6733C97.8686 44.6733 97.304 44.831 96.8949 45.1463C96.4858 45.4617 96.1982 45.7983 96.032 46.1563L94.6001 45.6449C94.8558 45.0483 95.1967 44.5838 95.6229 44.2514C96.0533 43.9148 96.522 43.6804 97.0291 43.5483C97.5405 43.412 98.0433 43.3438 98.5376 43.3438C98.853 43.3438 99.2152 43.3821 99.6243 43.4588C100.038 43.5313 100.436 43.6825 100.82 43.9127C101.207 44.1428 101.529 44.4901 101.785 44.9546C102.04 45.4191 102.168 46.0412 102.168 46.821V53.2898H100.66V51.9602H100.583C100.481 52.1733 100.31 52.4013 100.072 52.6442C99.8331 52.8871 99.5156 53.0938 99.1193 53.2642C98.723 53.4347 98.2393 53.5199 97.6683 53.5199ZM97.8984 52.1648C98.495 52.1648 98.9979 52.0476 99.407 51.8132C99.8203 51.5789 100.131 51.2763 100.34 50.9056C100.553 50.5348 100.66 50.1449 100.66 49.7358V48.3551C100.596 48.4318 100.455 48.5022 100.238 48.5661C100.025 48.6257 99.7777 48.679 99.4964 48.7259C99.2195 48.7685 98.9489 48.8068 98.6847 48.8409C98.4247 48.8708 98.2138 48.8963 98.0518 48.9176C97.6598 48.9688 97.2933 49.0519 96.9524 49.1669C96.6158 49.2777 96.343 49.446 96.1342 49.6719C95.9297 49.8935 95.8274 50.196 95.8274 50.5796C95.8274 51.1037 96.0213 51.5 96.4091 51.7685C96.8011 52.0327 97.2976 52.1648 97.8984 52.1648ZM107.146 53.2898L104.155 43.4716H105.74L107.862 50.9887H107.964L110.061 43.4716H111.672L113.743 50.9631H113.845L115.967 43.4716H117.552L114.561 53.2898H113.078L110.93 45.7472H110.777L108.629 53.2898H107.146ZM124.814 53.2898V40.1989H132.663V41.6051H126.399V46.0284H132.075V47.4347H126.399V53.2898H124.814ZM135.174 53.2898V43.4716H136.682V53.2898H135.174ZM135.941 41.8352C135.647 41.8352 135.393 41.7351 135.18 41.5348C134.971 41.3345 134.867 41.0938 134.867 40.8125C134.867 40.5313 134.971 40.2905 135.18 40.0902C135.393 39.8899 135.647 39.7898 135.941 39.7898C136.235 39.7898 136.486 39.8899 136.695 40.0902C136.908 40.2905 137.015 40.5313 137.015 40.8125C137.015 41.0938 136.908 41.3345 136.695 41.5348C136.486 41.7351 136.235 41.8352 135.941 41.8352ZM139.445 53.2898V43.4716H140.903V44.9546H141.005C141.184 44.4688 141.508 44.0746 141.976 43.772C142.445 43.4695 142.974 43.3182 143.562 43.3182C143.672 43.3182 143.811 43.3203 143.977 43.3246C144.143 43.3289 144.269 43.3352 144.354 43.3438V44.8779C144.303 44.8651 144.186 44.8459 144.003 44.8203C143.824 44.7905 143.634 44.7756 143.434 44.7756C142.956 44.7756 142.53 44.8757 142.155 45.076C141.785 45.272 141.491 45.5448 141.273 45.8942C141.06 46.2394 140.954 46.6335 140.954 47.0767V53.2898H139.445ZM146.142 53.2898V43.4716H147.6V45.0057H147.728C147.932 44.4816 148.262 44.0746 148.718 43.7848C149.174 43.4908 149.722 43.3438 150.361 43.3438C151.009 43.3438 151.548 43.4908 151.978 43.7848C152.413 44.0746 152.752 44.4816 152.995 45.0057H153.097C153.348 44.4986 153.725 44.0959 154.228 43.7976C154.731 43.4951 155.334 43.3438 156.037 43.3438C156.915 43.3438 157.633 43.6186 158.191 44.1683C158.75 44.7138 159.029 45.5639 159.029 46.7188V53.2898H157.52V46.7188C157.52 45.9943 157.322 45.4766 156.926 45.1655C156.529 44.8544 156.063 44.6989 155.526 44.6989C154.836 44.6989 154.301 44.9077 153.922 45.3253C153.542 45.7387 153.353 46.2628 153.353 46.8977V53.2898H151.819V46.5654C151.819 46.0071 151.637 45.5576 151.275 45.2166C150.913 44.8715 150.446 44.6989 149.875 44.6989C149.483 44.6989 149.117 44.8033 148.776 45.0121C148.439 45.2209 148.167 45.5107 147.958 45.8814C147.753 46.2479 147.651 46.6719 147.651 47.1534V53.2898H146.142Z" fill="#9291A5"/>
<defs>
<filter id="filter0_d_143_1100" x="0.642578" y="0.289795" width="522" height="422" filterUnits="userSpaceOnUse" color-interpolation-filters="sRGB">
<feFlood flood-opacity="0" result="BackgroundImageFix"/>
<feColorMatrix in="SourceAlpha" type="matrix" values="0 0 0 0 0 0 0 0 0 0 0 0 0 0 0 0 0 0 127 0" result="hardAlpha"/>
<feOffset dy="2"/>
<feGaussianBlur stdDeviation="3"/>
<feComposite in2="hardAlpha" operator="out"/>
<feColorMatrix type="matrix" values="0 0 0 0 0.0509804 0 0 0 0 0.0392157 0 0 0 0 0.172549 0 0 0 0.08 0"/>
<feBlend mode="normal" in2="BackgroundImageFix" result="effect1_dropShadow_143_1100"/>
<feBlend mode="normal" in="SourceGraphic" in2="effect1_dropShadow_143_1100" result="shape"/>
</filter>
<filter id="filter1_d_143_1100" x="163.047" y="219.112" width="37.6875" height="37.6875" filterUnits="userSpaceOnUse" color-interpolation-filters="sRGB">
<feFlood flood-opacity="0" result="BackgroundImageFix"/>
<feColorMatrix in="SourceAlpha" type="matrix" values="0 0 0 0 0 0 0 0 0 0 0 0 0 0 0 0 0 0 127 0" result="hardAlpha"/>
<feOffset dy="8"/>
<feGaussianBlur stdDeviation="4"/>
<feComposite in2="hardAlpha" operator="out"/>
<feColorMatrix type="matrix" values="0 0 0 0 0.0509804 0 0 0 0 0.0392157 0 0 0 0 0.172549 0 0 0 0.08 0"/>
<feBlend mode="normal" in2="BackgroundImageFix" result="effect1_dropShadow_143_1100"/>
<feBlend mode="normal" in="SourceGraphic" in2="effect1_dropShadow_143_1100" result="shape"/>
</filter>
<filter id="filter2_d_143_1100" x="133.418" y="147.275" width="96.9463" height="81.8362" filterUnits="userSpaceOnUse" color-interpolation-filters="sRGB">
<feFlood flood-opacity="0" result="BackgroundImageFix"/>
<feColorMatrix in="SourceAlpha" type="matrix" values="0 0 0 0 0 0 0 0 0 0 0 0 0 0 0 0 0 0 127 0" result="hardAlpha"/>
<feOffset dy="2"/>
<feGaussianBlur stdDeviation="8"/>
<feComposite in2="hardAlpha" operator="out"/>
<feColorMatrix type="matrix" values="0 0 0 0 0.0509804 0 0 0 0 0.0392157 0 0 0 0 0.172549 0 0 0 0.12 0"/>
<feBlend mode="normal" in2="BackgroundImageFix" result="effect1_dropShadow_143_1100"/>
<feBlend mode="normal" in="SourceGraphic" in2="effect1_dropShadow_143_1100" result="shape"/>
</filter>
<linearGradient id="paint0_linear_143_1100" x1="261.618" y1="160.384" x2="261.618" y2="390.131" gradientUnits="userSpaceOnUse">
<stop stop-color="#9A008A"/>
<stop offset="0.46679" stop-color="#9A008A"/>
<stop offset="1" stop-color="white"/>
</linearGradient>
<linearGradient id="paint1_linear_143_1100" x1="8.59375" y1="219.342" x2="514.673" y2="219.342" gradientUnits="userSpaceOnUse">
<stop stop-color="#F8DA1B"/>
<stop offset="1" stop-color="#9A008A"/>
</linearGradient>
</defs>
</svg>
