<svg width="345" height="238" viewBox="0 0 345 238" fill="none" xmlns="http://www.w3.org/2000/svg">
<g filter="url(#filter0_d_143_1073)">
<rect x="6.64258" y="4.04541" width="332" height="225.22" rx="20" fill="white"/>
</g>
<path d="M160.507 186.12L177.75 169.298L185.11 150.373L196.045 177.078L203.404 164.462L211.185 85.186L231.161 162.779L245.671 136.915L273.428 186.12L282.049 173.714L287.306 153.107L303.498 136.915" stroke="#70E4EF" stroke-width="3" stroke-linecap="round" stroke-linejoin="round"/>
<path d="M104.564 167.317C103.771 168.112 103.012 168.872 102.253 169.633C101.603 170.283 100.953 170.932 100.303 171.58C100.091 171.791 99.8342 171.856 99.5451 171.771C99.256 171.686 99.084 171.481 99.0202 171.191C98.9587 170.909 99.0663 170.678 99.2635 170.479C100.165 169.578 101.065 168.677 101.965 167.776C102.632 167.109 103.3 166.442 103.968 165.776C104.335 165.412 104.759 165.41 105.123 165.77C105.63 166.27 106.134 166.774 106.634 167.281C106.691 167.338 106.726 167.416 106.766 167.476L110.979 163.259C110.919 163.256 110.861 163.249 110.803 163.249C110.316 163.249 109.829 163.254 109.341 163.246C109.019 163.241 108.776 163.085 108.644 162.792C108.518 162.512 108.56 162.241 108.757 162.002C108.827 161.914 108.917 161.843 109.02 161.795C109.122 161.747 109.234 161.723 109.347 161.725C110.514 161.722 111.684 161.72 112.852 161.726C113.293 161.728 113.62 162.063 113.621 162.504C113.625 163.666 113.625 164.829 113.621 165.991C113.621 166.433 113.275 166.778 112.856 166.775C112.437 166.771 112.114 166.441 112.106 165.998C112.099 165.523 112.104 165.048 112.104 164.573V164.376L112.036 164.332C111.994 164.399 111.946 164.463 111.894 164.522C110.403 166.017 108.91 167.51 107.416 169.002C107.027 169.39 106.607 169.391 106.219 169.006C105.711 168.499 105.203 167.991 104.696 167.482C104.653 167.438 104.618 167.384 104.564 167.317Z" fill="#04CE00"/>
<path d="M43.9951 170.097V163.376H45.3325V170.097H43.9951ZM41.3055 167.403V166.07H48.0271V167.403H41.3055ZM49.8964 171.808V170.694L53.3417 167.124C53.7096 166.737 54.0129 166.397 54.2515 166.105C54.4935 165.81 54.6741 165.53 54.7934 165.265C54.9127 165 54.9724 164.718 54.9724 164.42C54.9724 164.082 54.8928 163.79 54.7338 163.545C54.5747 163.296 54.3576 163.106 54.0825 162.973C53.8074 162.837 53.4975 162.769 53.1528 162.769C52.7882 162.769 52.47 162.844 52.1982 162.993C51.9265 163.142 51.7177 163.353 51.5718 163.624C51.426 163.896 51.3531 164.214 51.3531 164.579H49.8865C49.8865 163.959 50.029 163.417 50.314 162.953C50.599 162.489 50.9901 162.13 51.4873 161.874C51.9845 161.616 52.5496 161.487 53.1826 161.487C53.8223 161.487 54.3857 161.614 54.873 161.869C55.3635 162.121 55.7463 162.466 56.0214 162.903C56.2965 163.338 56.434 163.828 56.434 164.375C56.434 164.753 56.3628 165.122 56.2203 165.484C56.0811 165.845 55.8374 166.248 55.4894 166.692C55.1414 167.133 54.6575 167.668 54.0377 168.298L52.0143 170.416V170.49H56.5981V171.808H49.8964ZM62.3453 161.626V171.808H60.8041V163.167H60.7444L58.3083 164.758V163.286L60.8488 161.626H62.3453ZM65.5109 171.902C65.2391 171.902 65.0055 171.806 64.8099 171.614C64.6144 171.418 64.5166 171.183 64.5166 170.908C64.5166 170.636 64.6144 170.404 64.8099 170.212C65.0055 170.016 65.2391 169.918 65.5109 169.918C65.7827 169.918 66.0164 170.016 66.2119 170.212C66.4075 170.404 66.5052 170.636 66.5052 170.908C66.5052 171.09 66.4588 171.257 66.366 171.41C66.2765 171.559 66.1572 171.678 66.0081 171.768C65.8589 171.857 65.6932 171.902 65.5109 171.902ZM71.6521 171.977C70.8666 171.973 70.1954 171.766 69.6386 171.355C69.0818 170.944 68.6559 170.346 68.3609 169.56C68.0659 168.775 67.9184 167.829 67.9184 166.722C67.9184 165.618 68.0659 164.675 68.3609 163.893C68.6592 163.111 69.0867 162.514 69.6436 162.103C70.2037 161.692 70.8732 161.487 71.6521 161.487C72.431 161.487 73.0988 161.694 73.6556 162.108C74.2124 162.519 74.6383 163.116 74.9333 163.898C75.2316 164.677 75.3808 165.618 75.3808 166.722C75.3808 167.832 75.2333 168.78 74.9383 169.565C74.6433 170.348 74.2174 170.946 73.6606 171.36C73.1038 171.771 72.4343 171.977 71.6521 171.977ZM71.6521 170.649C72.3415 170.649 72.8801 170.313 73.2678 169.64C73.6589 168.967 73.8545 167.994 73.8545 166.722C73.8545 165.877 73.765 165.162 73.586 164.579C73.4104 163.992 73.1568 163.548 72.8254 163.247C72.4972 162.942 72.1061 162.789 71.6521 162.789C70.966 162.789 70.4274 163.127 70.0363 163.803C69.6452 164.479 69.448 165.452 69.4447 166.722C69.4447 167.57 69.5325 168.288 69.7082 168.874C69.8872 169.458 70.1407 169.9 70.4688 170.202C70.797 170.5 71.1914 170.649 71.6521 170.649ZM81.0074 161.626V171.808H79.4662V163.167H79.4065L76.9704 164.758V163.286L79.5109 161.626H81.0074ZM89.0763 169.899V169.362C89.0763 168.977 89.1558 168.626 89.3149 168.308C89.4773 167.986 89.7126 167.729 90.0209 167.537C90.3324 167.341 90.7086 167.244 91.1494 167.244C91.6002 167.244 91.978 167.34 92.2829 167.532C92.5879 167.724 92.8182 167.981 92.974 168.303C93.1331 168.624 93.2126 168.977 93.2126 169.362V169.899C93.2126 170.283 93.1331 170.636 92.974 170.957C92.8149 171.276 92.5812 171.533 92.273 171.728C91.9681 171.92 91.5935 172.016 91.1494 172.016C90.702 172.016 90.3241 171.92 90.0159 171.728C89.7077 171.533 89.474 171.276 89.3149 170.957C89.1558 170.636 89.0763 170.283 89.0763 169.899ZM90.2346 169.362V169.899C90.2346 170.184 90.3026 170.442 90.4385 170.674C90.5744 170.906 90.8113 171.022 91.1494 171.022C91.4842 171.022 91.7178 170.906 91.8504 170.674C91.983 170.442 92.0493 170.184 92.0493 169.899V169.362C92.0493 169.077 91.9846 168.818 91.8554 168.586C91.7294 168.354 91.4941 168.238 91.1494 168.238C90.818 168.238 90.5827 168.354 90.4434 168.586C90.3042 168.818 90.2346 169.077 90.2346 169.362ZM83.9555 164.072V163.535C83.9555 163.15 84.0351 162.797 84.1942 162.476C84.3566 162.154 84.5919 161.898 84.9001 161.705C85.2117 161.513 85.5879 161.417 86.0287 161.417C86.4794 161.417 86.8573 161.513 87.1622 161.705C87.4671 161.898 87.6975 162.154 87.8532 162.476C88.009 162.797 88.0869 163.15 88.0869 163.535V164.072C88.0869 164.456 88.0074 164.809 87.8483 165.131C87.6925 165.449 87.4605 165.706 87.1523 165.901C86.8473 166.094 86.4728 166.19 86.0287 166.19C85.5779 166.19 85.1984 166.094 84.8902 165.901C84.5853 165.706 84.3532 165.449 84.1942 165.131C84.0351 164.809 83.9555 164.456 83.9555 164.072ZM85.1189 163.535V164.072C85.1189 164.357 85.1852 164.615 85.3177 164.847C85.4536 165.079 85.6906 165.195 86.0287 165.195C86.3601 165.195 86.5921 165.079 86.7247 164.847C86.8606 164.615 86.9285 164.357 86.9285 164.072V163.535C86.9285 163.25 86.8639 162.991 86.7346 162.759C86.6054 162.527 86.3701 162.411 86.0287 162.411C85.6972 162.411 85.4619 162.527 85.3227 162.759C85.1868 162.991 85.1189 163.25 85.1189 163.535ZM84.4278 171.808L91.4278 161.626H92.616L85.616 171.808H84.4278Z" fill="#04CE00"/>
<path d="M43.5918 144.808L56.8574 118.558V118.339H41.4043V112.808H63.8574V118.417L50.5762 144.808H43.5918ZM79.752 145.245C77.5436 145.245 75.5749 144.839 73.8457 144.026C72.127 143.214 70.7624 142.094 69.752 140.667C68.7415 139.24 68.2155 137.604 68.1738 135.761H74.7363C74.8092 137 75.3301 138.006 76.2988 138.776C77.2676 139.547 78.4186 139.933 79.752 139.933C80.8145 139.933 81.752 139.698 82.5645 139.229C83.3874 138.75 84.028 138.089 84.4863 137.245C84.9551 136.391 85.1895 135.412 85.1895 134.308C85.1895 133.183 84.9499 132.193 84.4707 131.339C84.002 130.485 83.3509 129.818 82.5176 129.339C81.6842 128.86 80.7311 128.615 79.6582 128.604C78.7207 128.604 77.8092 128.797 76.9238 129.183C76.0488 129.568 75.3665 130.094 74.877 130.761L68.8613 129.683L70.377 112.808H89.9395V118.339H75.9551L75.127 126.354H75.3145C75.877 125.563 76.7259 124.907 77.8613 124.386C78.9967 123.865 80.2676 123.604 81.6738 123.604C83.6009 123.604 85.3197 124.058 86.8301 124.964C88.3405 125.87 89.5332 127.115 90.4082 128.698C91.2832 130.271 91.7155 132.084 91.7051 134.136C91.7155 136.292 91.2155 138.209 90.2051 139.886C89.2051 141.552 87.804 142.865 86.002 143.823C84.2103 144.771 82.127 145.245 79.752 145.245Z" fill="#1E1B39"/>
<path d="M45.5108 75.0454H40.8702V61.9545H45.5492C46.8659 61.9545 47.9995 62.2166 48.9498 62.7407C49.9 63.2606 50.6309 64.0085 51.1422 64.9843C51.6578 65.9602 51.9157 67.1278 51.9157 68.4872C51.9157 69.8508 51.6578 71.0227 51.1422 72.0028C50.6309 72.9829 49.8958 73.735 48.937 74.2592C47.9824 74.7833 46.8404 75.0454 45.5108 75.0454ZM43.638 72.674H45.3958C46.214 72.674 46.9022 72.5291 47.4604 72.2393C48.0229 71.9453 48.4448 71.4914 48.726 70.8778C49.0115 70.2599 49.1543 69.463 49.1543 68.4872C49.1543 67.5198 49.0115 66.7294 48.726 66.1157C48.4448 65.5021 48.025 65.0504 47.4668 64.7606C46.9086 64.4708 46.2203 64.326 45.4022 64.326H43.638V72.674ZM58.3509 75.2372C57.358 75.2372 56.4993 75.0262 55.7749 74.6044C55.0547 74.1782 54.4986 73.5859 54.1065 72.8274C53.7145 72.0646 53.5185 71.1804 53.5185 70.1747C53.5185 69.1605 53.7145 68.2741 54.1065 67.5156C54.4986 66.7528 55.0547 66.1605 55.7749 65.7386C56.4993 65.3125 57.358 65.0994 58.3509 65.0994C59.3438 65.0994 60.2003 65.3125 60.9205 65.7386C61.6449 66.1605 62.2031 66.7528 62.5952 67.5156C62.9872 68.2741 63.1832 69.1605 63.1832 70.1747C63.1832 71.1804 62.9872 72.0646 62.5952 72.8274C62.2031 73.5859 61.6449 74.1782 60.9205 74.6044C60.2003 75.0262 59.3438 75.2372 58.3509 75.2372ZM58.3636 73.1278C58.8153 73.1278 59.1925 73 59.495 72.7443C59.7976 72.4843 60.0256 72.1306 60.179 71.6832C60.3366 71.2358 60.4155 70.7265 60.4155 70.1555C60.4155 69.5845 60.3366 69.0752 60.179 68.6278C60.0256 68.1804 59.7976 67.8267 59.495 67.5667C59.1925 67.3068 58.8153 67.1768 58.3636 67.1768C57.9077 67.1768 57.5241 67.3068 57.2131 67.5667C56.9063 67.8267 56.674 68.1804 56.5163 68.6278C56.3629 69.0752 56.2862 69.5845 56.2862 70.1555C56.2862 70.7265 56.3629 71.2358 56.5163 71.6832C56.674 72.1306 56.9063 72.4843 57.2131 72.7443C57.5241 73 57.9077 73.1278 58.3636 73.1278ZM64.9538 75.0454V65.2272H67.549V66.9595H67.6641C67.8686 66.3842 68.2095 65.9304 68.6868 65.598C69.1641 65.2656 69.7351 65.0994 70.3999 65.0994C71.0732 65.0994 71.6463 65.2677 72.1193 65.6044C72.5923 65.9367 72.9077 66.3884 73.0653 66.9595H73.1676C73.3679 66.397 73.7301 65.9474 74.2543 65.6108C74.7827 65.2698 75.407 65.0994 76.1271 65.0994C77.0433 65.0994 77.7869 65.3913 78.358 65.9751C78.9332 66.5546 79.2209 67.3771 79.2209 68.4424V75.0454H76.5043V68.9794C76.5043 68.4339 76.3594 68.0248 76.0696 67.7521C75.7798 67.4794 75.4176 67.343 74.983 67.343C74.4886 67.343 74.103 67.5007 73.826 67.816C73.549 68.1271 73.4105 68.5383 73.4105 69.0497V75.0454H70.7706V68.9218C70.7706 68.4403 70.6321 68.0568 70.3551 67.7713C70.0824 67.4858 69.7223 67.343 69.2749 67.343C68.9723 67.343 68.6996 67.4197 68.4567 67.5731C68.218 67.7223 68.0284 67.9332 67.8878 68.2059C67.7472 68.4744 67.6768 68.7897 67.6768 69.1519V75.0454H64.9538ZM84.1715 75.2308C83.5451 75.2308 82.9869 75.1221 82.4968 74.9048C82.0067 74.6832 81.619 74.3572 81.3335 73.9268C81.0522 73.4921 80.9116 72.9509 80.9116 72.3032C80.9116 71.7578 81.0117 71.2997 81.212 70.9289C81.4123 70.5582 81.685 70.2599 82.0302 70.034C82.3754 69.8082 82.7674 69.6377 83.2063 69.5227C83.6495 69.4076 84.114 69.3267 84.5998 69.2798C85.1708 69.2201 85.631 69.1647 85.9805 69.1136C86.3299 69.0582 86.5835 68.9772 86.7411 68.8707C86.8988 68.7642 86.9776 68.6065 86.9776 68.3977V68.3593C86.9776 67.9545 86.8498 67.6413 86.5941 67.4197C86.3427 67.1981 85.9847 67.0873 85.5202 67.0873C85.0302 67.0873 84.6403 67.196 84.3505 67.4133C84.0607 67.6264 83.869 67.8948 83.7752 68.2187L81.2567 68.0142C81.3846 67.4176 81.636 66.9019 82.011 66.4673C82.386 66.0284 82.8697 65.6917 83.462 65.4573C84.0586 65.2187 84.7489 65.0994 85.533 65.0994C86.0785 65.0994 86.6005 65.1633 87.0991 65.2911C87.6019 65.419 88.0472 65.6171 88.435 65.8856C88.8271 66.1541 89.136 66.4992 89.3619 66.9211C89.5877 67.3387 89.7006 67.8394 89.7006 68.4233V75.0454H87.1183V73.6839H87.0415C86.8839 73.9907 86.6729 74.2613 86.4087 74.4957C86.1445 74.7258 85.8271 74.9069 85.4563 75.039C85.0856 75.1669 84.6573 75.2308 84.1715 75.2308ZM84.9513 73.3515C85.3519 73.3515 85.7056 73.2727 86.0124 73.115C86.3192 72.9531 86.56 72.7358 86.7347 72.463C86.9094 72.1903 86.9968 71.8813 86.9968 71.5362V70.4943C86.9116 70.5497 86.7944 70.6008 86.6452 70.6477C86.5004 70.6903 86.3363 70.7308 86.1531 70.7691C85.9698 70.8032 85.7866 70.8352 85.6033 70.865C85.4201 70.8906 85.2539 70.914 85.1048 70.9353C84.7852 70.9822 84.506 71.0568 84.2674 71.159C84.0288 71.2613 83.8434 71.3998 83.7113 71.5745C83.5792 71.745 83.5131 71.9581 83.5131 72.2137C83.5131 72.5845 83.6474 72.8679 83.9158 73.0639C84.1886 73.2556 84.5337 73.3515 84.9513 73.3515ZM91.8132 75.0454V65.2272H94.5362V75.0454H91.8132ZM93.1811 63.9616C92.7763 63.9616 92.429 63.8274 92.1392 63.5589C91.8537 63.2862 91.7109 62.9602 91.7109 62.5809C91.7109 62.2059 91.8537 61.8842 92.1392 61.6157C92.429 61.343 92.7763 61.2066 93.1811 61.2066C93.5859 61.2066 93.9311 61.343 94.2166 61.6157C94.5064 61.8842 94.6513 62.2059 94.6513 62.5809C94.6513 62.9602 94.5064 63.2862 94.2166 63.5589C93.9311 63.8274 93.5859 63.9616 93.1811 63.9616ZM99.4405 69.3693V75.0454H96.7175V65.2272H99.3127V66.9595H99.4277C99.6451 66.3884 100.009 65.9367 100.521 65.6044C101.032 65.2677 101.652 65.0994 102.381 65.0994C103.063 65.0994 103.657 65.2485 104.164 65.5468C104.671 65.8451 105.066 66.2713 105.347 66.8252C105.628 67.375 105.769 68.0312 105.769 68.794V75.0454H103.046V69.2798C103.05 68.6789 102.896 68.2102 102.585 67.8735C102.274 67.5326 101.846 67.3622 101.301 67.3622C100.934 67.3622 100.61 67.441 100.329 67.5987C100.052 67.7563 99.8347 67.9865 99.677 68.289C99.5236 68.5873 99.4448 68.9474 99.4405 69.3693ZM114.388 75.0454H111.422L115.942 61.9545H119.508L124.021 75.0454H121.055L117.776 64.946H117.674L114.388 75.0454ZM114.203 69.8998H121.209V72.0603H114.203V69.8998ZM131.842 70.865V65.2272H134.565V75.0454H131.95V73.262H131.848C131.627 73.8373 131.258 74.2997 130.742 74.6491C130.231 74.9985 129.607 75.1733 128.869 75.1733C128.213 75.1733 127.636 75.0241 127.137 74.7258C126.639 74.4275 126.249 74.0035 125.968 73.4538C125.691 72.9041 125.55 72.2457 125.546 71.4786V65.2272H128.269V70.9929C128.273 71.5724 128.428 72.0305 128.735 72.3671C129.042 72.7038 129.453 72.8721 129.969 72.8721C130.297 72.8721 130.604 72.7975 130.889 72.6484C131.175 72.495 131.405 72.2691 131.58 71.9708C131.759 71.6725 131.846 71.3039 131.842 70.865ZM141.965 65.2272V67.2727H136.053V65.2272H141.965ZM137.395 62.875H140.118V72.0284C140.118 72.2798 140.156 72.4758 140.233 72.6164C140.31 72.7528 140.416 72.8487 140.553 72.9041C140.693 72.9595 140.855 72.9872 141.038 72.9872C141.166 72.9872 141.294 72.9765 141.422 72.9552C141.55 72.9296 141.648 72.9105 141.716 72.8977L142.144 74.924C142.008 74.9666 141.816 75.0156 141.569 75.071C141.322 75.1306 141.021 75.1669 140.668 75.1796C140.011 75.2052 139.436 75.1179 138.942 74.9176C138.452 74.7173 138.07 74.4062 137.798 73.9843C137.525 73.5625 137.391 73.0298 137.395 72.3863V62.875ZM146.673 69.3693V75.0454H143.95V61.9545H146.596V66.9595H146.711C146.933 66.3799 147.291 65.9261 147.785 65.598C148.279 65.2656 148.9 65.0994 149.645 65.0994C150.327 65.0994 150.922 65.2485 151.429 65.5468C151.94 65.8409 152.336 66.2649 152.618 66.8188C152.903 67.3686 153.044 68.0269 153.039 68.794V75.0454H150.316V69.2798C150.321 68.6747 150.167 68.2038 149.856 67.8671C149.549 67.5305 149.119 67.3622 148.565 67.3622C148.194 67.3622 147.866 67.441 147.581 67.5987C147.299 67.7563 147.078 67.9865 146.916 68.289C146.758 68.5873 146.677 68.9474 146.673 69.3693ZM159.618 75.2372C158.626 75.2372 157.767 75.0262 157.042 74.6044C156.322 74.1782 155.766 73.5859 155.374 72.8274C154.982 72.0646 154.786 71.1804 154.786 70.1747C154.786 69.1605 154.982 68.2741 155.374 67.5156C155.766 66.7528 156.322 66.1605 157.042 65.7386C157.767 65.3125 158.626 65.0994 159.618 65.0994C160.611 65.0994 161.468 65.3125 162.188 65.7386C162.912 66.1605 163.471 66.7528 163.863 67.5156C164.255 68.2741 164.451 69.1605 164.451 70.1747C164.451 71.1804 164.255 72.0646 163.863 72.8274C163.471 73.5859 162.912 74.1782 162.188 74.6044C161.468 75.0262 160.611 75.2372 159.618 75.2372ZM159.631 73.1278C160.083 73.1278 160.46 73 160.763 72.7443C161.065 72.4843 161.293 72.1306 161.447 71.6832C161.604 71.2358 161.683 70.7265 161.683 70.1555C161.683 69.5845 161.604 69.0752 161.447 68.6278C161.293 68.1804 161.065 67.8267 160.763 67.5667C160.46 67.3068 160.083 67.1768 159.631 67.1768C159.175 67.1768 158.792 67.3068 158.481 67.5667C158.174 67.8267 157.942 68.1804 157.784 68.6278C157.631 69.0752 157.554 69.5845 157.554 70.1555C157.554 70.7265 157.631 71.2358 157.784 71.6832C157.942 72.1306 158.174 72.4843 158.481 72.7443C158.792 73 159.175 73.1278 159.631 73.1278ZM166.221 75.0454V65.2272H168.861V66.9403H168.964C169.143 66.3309 169.443 65.8707 169.865 65.5596C170.287 65.2443 170.773 65.0866 171.322 65.0866C171.459 65.0866 171.606 65.0951 171.763 65.1122C171.921 65.1292 172.059 65.1527 172.179 65.1825V67.5987C172.051 67.5603 171.874 67.5262 171.648 67.4964C171.422 67.4666 171.216 67.4517 171.028 67.4517C170.628 67.4517 170.27 67.539 169.954 67.7137C169.643 67.8842 169.396 68.1228 169.213 68.4296C169.034 68.7365 168.944 69.0902 168.944 69.4907V75.0454H166.221ZM173.587 75.0454V65.2272H176.31V75.0454H173.587ZM174.955 63.9616C174.55 63.9616 174.202 63.8274 173.913 63.5589C173.627 63.2862 173.484 62.9602 173.484 62.5809C173.484 62.2059 173.627 61.8842 173.913 61.6157C174.202 61.343 174.55 61.2066 174.955 61.2066C175.359 61.2066 175.705 61.343 175.99 61.6157C176.28 61.8842 176.425 62.2059 176.425 62.5809C176.425 62.9602 176.28 63.2862 175.99 63.5589C175.705 63.8274 175.359 63.9616 174.955 63.9616ZM183.713 65.2272V67.2727H177.801V65.2272H183.713ZM179.143 62.875H181.866V72.0284C181.866 72.2798 181.904 72.4758 181.981 72.6164C182.058 72.7528 182.164 72.8487 182.301 72.9041C182.441 72.9595 182.603 72.9872 182.786 72.9872C182.914 72.9872 183.042 72.9765 183.17 72.9552C183.298 72.9296 183.396 72.9105 183.464 72.8977L183.892 74.924C183.756 74.9666 183.564 75.0156 183.317 75.071C183.07 75.1306 182.769 75.1669 182.416 75.1796C181.759 75.2052 181.184 75.1179 180.69 74.9176C180.2 74.7173 179.818 74.4062 179.546 73.9843C179.273 73.5625 179.139 73.0298 179.143 72.3863V62.875ZM187.168 78.7272C186.823 78.7272 186.499 78.6995 186.197 78.6441C185.898 78.593 185.651 78.5269 185.455 78.446L186.069 76.4133C186.388 76.5113 186.676 76.5646 186.932 76.5731C187.192 76.5816 187.415 76.522 187.603 76.3941C187.795 76.2663 187.95 76.049 188.069 75.7421L188.229 75.3267L184.707 65.2272H187.571L189.604 72.4375H189.706L191.758 65.2272H194.64L190.824 76.1065C190.641 76.6349 190.392 77.0951 190.077 77.4872C189.765 77.8835 189.371 78.1882 188.894 78.4012C188.417 78.6186 187.841 78.7272 187.168 78.7272Z" fill="#1E1B39"/>
<path d="M46.8041 41.409C46.7444 40.9053 46.5025 40.5142 46.0782 40.2358C45.654 39.9573 45.1336 39.8181 44.5171 39.8181C44.0664 39.8181 43.672 39.8911 43.3339 40.0369C42.9991 40.1827 42.7373 40.3832 42.5484 40.6384C42.3628 40.8937 42.27 41.1837 42.27 41.5085C42.27 41.7803 42.3346 42.0139 42.4639 42.2095C42.5964 42.4017 42.7655 42.5625 42.971 42.6917C43.1765 42.8177 43.3919 42.9221 43.6173 43.0049C43.8427 43.0845 44.0498 43.1491 44.2387 43.1988L45.2728 43.4772C45.538 43.5468 45.8329 43.6429 46.1578 43.7656C46.4859 43.8882 46.7991 44.0556 47.0974 44.2677C47.399 44.4765 47.6476 44.745 47.8431 45.0731C48.0387 45.4012 48.1365 45.8039 48.1365 46.2812C48.1365 46.8314 47.9923 47.3286 47.7039 47.7727C47.4189 48.2168 47.0013 48.5698 46.4511 48.8316C45.9042 49.0935 45.2397 49.2244 44.4575 49.2244C43.7283 49.2244 43.0969 49.1067 42.5633 48.8714C42.033 48.6361 41.6154 48.308 41.3105 47.887C41.0088 47.4661 40.8382 46.9772 40.7984 46.4204H42.0711C42.1043 46.8049 42.2335 47.1231 42.4589 47.375C42.6876 47.6235 42.9759 47.8091 43.324 47.9318C43.6753 48.0511 44.0531 48.1108 44.4575 48.1108C44.9281 48.1108 45.3507 48.0345 45.7252 47.8821C46.0998 47.7263 46.3964 47.5108 46.6151 47.2358C46.8339 46.9573 46.9433 46.6325 46.9433 46.2613C46.9433 45.9233 46.8488 45.6482 46.6599 45.436C46.471 45.2239 46.2224 45.0516 45.9142 44.919C45.6059 44.7864 45.2728 44.6704 44.9149 44.571L43.662 44.213C42.8666 43.9843 42.2368 43.6579 41.7728 43.2336C41.3088 42.8094 41.0768 42.2542 41.0768 41.5681C41.0768 40.9981 41.2309 40.5009 41.5392 40.0767C41.8507 39.6491 42.2683 39.3177 42.792 39.0823C43.319 38.8437 43.9073 38.7244 44.5569 38.7244C45.2132 38.7244 45.7965 38.842 46.3069 39.0774C46.8173 39.3094 47.2217 39.6276 47.52 40.0319C47.8216 40.4363 47.9807 40.8953 47.9972 41.409H46.8041ZM53.3256 41.409V42.4034H49.3682V41.409H53.3256ZM50.5216 39.5795H51.6949V46.8579C51.6949 47.1893 51.7429 47.4379 51.839 47.6036C51.9385 47.7661 52.0644 47.8754 52.2169 47.9318C52.3727 47.9848 52.5367 48.0113 52.7091 48.0113C52.8383 48.0113 52.9444 48.0047 53.0273 47.9914C53.1101 47.9749 53.1764 47.9616 53.2261 47.9517L53.4648 49.0056C53.3852 49.0355 53.2742 49.0653 53.1317 49.0951C52.9891 49.1283 52.8085 49.1448 52.5898 49.1448C52.2583 49.1448 51.9335 49.0736 51.6153 48.9311C51.3005 48.7885 51.0386 48.5715 50.8298 48.2798C50.6243 47.9881 50.5216 47.6202 50.5216 47.1761V39.5795ZM57.3376 49.2244C56.8537 49.2244 56.4146 49.1332 56.0202 48.9509C55.6257 48.7653 55.3125 48.4985 55.0805 48.1505C54.8485 47.7992 54.7325 47.375 54.7325 46.8778C54.7325 46.4403 54.8187 46.0857 54.991 45.8139C55.1634 45.5388 55.3937 45.3233 55.6821 45.1676C55.9704 45.0118 56.2886 44.8958 56.6366 44.8196C56.988 44.74 57.3409 44.677 57.6956 44.6306C58.1596 44.571 58.5358 44.5262 58.8241 44.4964C59.1158 44.4633 59.3279 44.4086 59.4605 44.3323C59.5964 44.2561 59.6643 44.1235 59.6643 43.9346V43.8948C59.6643 43.4043 59.5301 43.0232 59.2616 42.7514C58.9965 42.4796 58.5938 42.3437 58.0535 42.3437C57.4934 42.3437 57.0542 42.4663 56.7361 42.7116C56.4179 42.9569 56.1942 43.2187 56.0649 43.4971L54.9513 43.0994C55.1501 42.6354 55.4153 42.2741 55.7467 42.0156C56.0815 41.7537 56.4461 41.5715 56.8405 41.4687C57.2382 41.3626 57.6293 41.3096 58.0138 41.3096C58.259 41.3096 58.5407 41.3394 58.8589 41.3991C59.1804 41.4554 59.4903 41.5731 59.7886 41.7521C60.0902 41.9311 60.3405 42.2012 60.5393 42.5625C60.7382 42.9237 60.8376 43.4076 60.8376 44.0142V49.0454H59.6643V48.0113H59.6047C59.5251 48.177 59.3925 48.3544 59.2069 48.5433C59.0213 48.7322 58.7744 48.8929 58.4662 49.0255C58.1579 49.1581 57.7818 49.2244 57.3376 49.2244ZM57.5166 48.1704C57.9806 48.1704 58.3717 48.0793 58.6899 47.897C59.0114 47.7147 59.2533 47.4794 59.4157 47.191C59.5815 46.9027 59.6643 46.5994 59.6643 46.2812V45.2073C59.6146 45.267 59.5052 45.3217 59.3362 45.3714C59.1705 45.4178 58.9782 45.4592 58.7595 45.4957C58.5441 45.5288 58.3336 45.5587 58.1281 45.5852C57.9259 45.6084 57.7619 45.6283 57.6359 45.6448C57.331 45.6846 57.046 45.7492 56.7808 45.8387C56.519 45.9249 56.3068 46.0558 56.1444 46.2315C55.9854 46.4038 55.9058 46.6392 55.9058 46.9375C55.9058 47.3451 56.0566 47.6534 56.3582 47.8622C56.6631 48.0677 57.0493 48.1704 57.5166 48.1704ZM66.3002 41.409V42.4034H62.3428V41.409H66.3002ZM63.4962 39.5795H64.6695V46.8579C64.6695 47.1893 64.7175 47.4379 64.8137 47.6036C64.9131 47.7661 65.039 47.8754 65.1915 47.9318C65.3473 47.9848 65.5113 48.0113 65.6837 48.0113C65.8129 48.0113 65.919 48.0047 66.0019 47.9914C66.0847 47.9749 66.151 47.9616 66.2007 47.9517L66.4394 49.0056C66.3598 49.0355 66.2488 49.0653 66.1063 49.0951C65.9637 49.1283 65.7831 49.1448 65.5644 49.1448C65.2329 49.1448 64.9081 49.0736 64.5899 48.9311C64.2751 48.7885 64.0132 48.5715 63.8044 48.2798C63.5989 47.9881 63.4962 47.6202 63.4962 47.1761V39.5795ZM68.0651 49.0454V41.409H69.2384V49.0454H68.0651ZM68.6617 40.1363C68.433 40.1363 68.2358 40.0584 68.07 39.9027C67.9076 39.7469 67.8264 39.5596 67.8264 39.3409C67.8264 39.1221 67.9076 38.9349 68.07 38.7791C68.2358 38.6233 68.433 38.5454 68.6617 38.5454C68.8904 38.5454 69.0859 38.6233 69.2483 38.7791C69.414 38.9349 69.4969 39.1221 69.4969 39.3409C69.4969 39.5596 69.414 39.7469 69.2483 39.9027C69.0859 40.0584 68.8904 40.1363 68.6617 40.1363ZM76.7964 43.1193L75.7425 43.4176C75.6762 43.2419 75.5784 43.0712 75.4491 42.9055C75.3232 42.7365 75.1508 42.5973 74.9321 42.4879C74.7133 42.3785 74.4333 42.3238 74.0919 42.3238C73.6246 42.3238 73.2351 42.4315 72.9236 42.647C72.6153 42.8591 72.4612 43.1292 72.4612 43.4573C72.4612 43.749 72.5673 43.9794 72.7794 44.1484C72.9915 44.3174 73.3229 44.4583 73.7737 44.571L74.9072 44.8494C75.59 45.0151 76.0988 45.2687 76.4335 45.61C76.7683 45.9481 76.9356 46.384 76.9356 46.9176C76.9356 47.3551 76.8097 47.7462 76.5578 48.0909C76.3092 48.4356 75.9612 48.7073 75.5138 48.9062C75.0663 49.1051 74.546 49.2045 73.9527 49.2045C73.1738 49.2045 72.5291 49.0355 72.0187 48.6974C71.5083 48.3593 71.1852 47.8655 71.0493 47.2159L72.1629 46.9375C72.269 47.3484 72.4695 47.6567 72.7645 47.8622C73.0628 48.0677 73.4522 48.1704 73.9328 48.1704C74.4797 48.1704 74.9139 48.0544 75.2354 47.8224C75.5602 47.5871 75.7226 47.3054 75.7226 46.9772C75.7226 46.7121 75.6298 46.49 75.4442 46.311C75.2586 46.1287 74.9735 45.9929 74.589 45.9034L73.3163 45.6051C72.617 45.4393 72.1032 45.1825 71.7751 44.8345C71.4503 44.4831 71.2879 44.044 71.2879 43.517C71.2879 43.0861 71.4089 42.705 71.6508 42.3735C71.8961 42.0421 72.2292 41.7819 72.6501 41.593C73.0744 41.4041 73.555 41.3096 74.0919 41.3096C74.8476 41.3096 75.4408 41.4753 75.8717 41.8068C76.3059 42.1382 76.6141 42.5757 76.7964 43.1193ZM82.0228 41.409V42.4034H78.0654V41.409H82.0228ZM79.2188 39.5795H80.3921V46.8579C80.3921 47.1893 80.4402 47.4379 80.5363 47.6036C80.6357 47.7661 80.7617 47.8754 80.9142 47.9318C81.0699 47.9848 81.234 48.0113 81.4063 48.0113C81.5356 48.0113 81.6417 48.0047 81.7245 47.9914C81.8074 47.9749 81.8737 47.9616 81.9234 47.9517L82.162 49.0056C82.0825 49.0355 81.9714 49.0653 81.8289 49.0951C81.6864 49.1283 81.5058 49.1448 81.287 49.1448C80.9556 49.1448 80.6308 49.0736 80.3126 48.9311C79.9977 48.7885 79.7359 48.5715 79.5271 48.2798C79.3216 47.9881 79.2188 47.6202 79.2188 47.1761V39.5795ZM83.7877 49.0454V41.409H84.961V49.0454H83.7877ZM84.3843 40.1363C84.1556 40.1363 83.9584 40.0584 83.7927 39.9027C83.6303 39.7469 83.5491 39.5596 83.5491 39.3409C83.5491 39.1221 83.6303 38.9349 83.7927 38.7791C83.9584 38.6233 84.1556 38.5454 84.3843 38.5454C84.613 38.5454 84.8086 38.6233 84.971 38.7791C85.1367 38.9349 85.2195 39.1221 85.2195 39.3409C85.2195 39.5596 85.1367 39.7469 84.971 39.9027C84.8086 40.0584 84.613 40.1363 84.3843 40.1363ZM90.2123 49.2045C89.4964 49.2045 88.8799 49.0355 88.3628 48.6974C87.8458 48.3593 87.4481 47.8937 87.1697 47.3004C86.8912 46.7071 86.752 46.0293 86.752 45.267C86.752 44.4914 86.8946 43.807 87.1796 43.2137C87.468 42.6171 87.869 42.1515 88.3827 41.8167C88.8998 41.4786 89.503 41.3096 90.1924 41.3096C90.7293 41.3096 91.2132 41.409 91.6441 41.6079C92.075 41.8068 92.4279 42.0852 92.703 42.4431C92.9781 42.8011 93.1488 43.2187 93.2151 43.696H92.0418C91.9523 43.348 91.7535 43.0397 91.4452 42.7713C91.1403 42.4995 90.7293 42.3636 90.2123 42.3636C89.7549 42.3636 89.3538 42.4829 89.0091 42.7215C88.6678 42.9569 88.401 43.29 88.2087 43.7208C88.0198 44.1484 87.9253 44.6505 87.9253 45.2272C87.9253 45.8172 88.0181 46.3309 88.2037 46.7684C88.3927 47.2059 88.6578 47.5456 88.9992 47.7876C89.3439 48.0295 89.7483 48.1505 90.2123 48.1505C90.5172 48.1505 90.7939 48.0975 91.0425 47.9914C91.2911 47.8854 91.5016 47.7329 91.6739 47.534C91.8463 47.3352 91.9689 47.0965 92.0418 46.8181H93.2151C93.1488 47.2689 92.9848 47.6749 92.7229 48.0362C92.4644 48.3941 92.1214 48.6792 91.6938 48.8913C91.2696 49.1001 90.7757 49.2045 90.2123 49.2045ZM100.339 43.1193L99.2854 43.4176C99.2191 43.2419 99.1214 43.0712 98.9921 42.9055C98.8662 42.7365 98.6938 42.5973 98.4751 42.4879C98.2563 42.3785 97.9762 42.3238 97.6349 42.3238C97.1675 42.3238 96.7781 42.4315 96.4665 42.647C96.1583 42.8591 96.0042 43.1292 96.0042 43.4573C96.0042 43.749 96.1102 43.9794 96.3224 44.1484C96.5345 44.3174 96.8659 44.4583 97.3167 44.571L98.4502 44.8494C99.133 45.0151 99.6417 45.2687 99.9765 45.61C100.311 45.9481 100.479 46.384 100.479 46.9176C100.479 47.3551 100.353 47.7462 100.101 48.0909C99.8522 48.4356 99.5042 48.7073 99.0567 48.9062C98.6093 49.1051 98.0889 49.2045 97.4956 49.2045C96.7168 49.2045 96.0721 49.0355 95.5617 48.6974C95.0513 48.3593 94.7281 47.8655 94.5922 47.2159L95.7059 46.9375C95.8119 47.3484 96.0125 47.6567 96.3074 47.8622C96.6057 48.0677 96.9952 48.1704 97.4758 48.1704C98.0226 48.1704 98.4568 48.0544 98.7783 47.8224C99.1031 47.5871 99.2655 47.3054 99.2655 46.9772C99.2655 46.7121 99.1727 46.49 98.9871 46.311C98.8015 46.1287 98.5165 45.9929 98.132 45.9034L96.8593 45.6051C96.1599 45.4393 95.6462 45.1825 95.3181 44.8345C94.9933 44.4831 94.8309 44.044 94.8309 43.517C94.8309 43.0861 94.9519 42.705 95.1938 42.3735C95.4391 42.0421 95.7722 41.7819 96.1931 41.593C96.6173 41.4041 97.0979 41.3096 97.6349 41.3096C98.3905 41.3096 98.9838 41.4753 99.4147 41.8068C99.8489 42.1382 100.157 42.5757 100.339 43.1193Z" fill="#9291A5"/>
<defs>
<filter id="filter0_d_143_1073" x="0.642578" y="0.0454102" width="344" height="237.22" filterUnits="userSpaceOnUse" color-interpolation-filters="sRGB">
<feFlood flood-opacity="0" result="BackgroundImageFix"/>
<feColorMatrix in="SourceAlpha" type="matrix" values="0 0 0 0 0 0 0 0 0 0 0 0 0 0 0 0 0 0 127 0" result="hardAlpha"/>
<feOffset dy="2"/>
<feGaussianBlur stdDeviation="3"/>
<feComposite in2="hardAlpha" operator="out"/>
<feColorMatrix type="matrix" values="0 0 0 0 0.0509804 0 0 0 0 0.0392157 0 0 0 0 0.172549 0 0 0 0.08 0"/>
<feBlend mode="normal" in2="BackgroundImageFix" result="effect1_dropShadow_143_1073"/>
<feBlend mode="normal" in="SourceGraphic" in2="effect1_dropShadow_143_1073" result="shape"/>
</filter>
</defs>
</svg>
