<svg width="523" height="423" viewBox="0 0 523 423" fill="none" xmlns="http://www.w3.org/2000/svg">
<g filter="url(#filter0_d_143_1084)">
<rect x="6.64258" y="4.28979" width="510" height="410" rx="20" fill="white"/>
</g>
<path d="M94.8602 369.108H96.0931V376.386C96.0931 377.036 95.9738 377.588 95.7352 378.042C95.4965 378.496 95.1601 378.841 94.7259 379.076C94.2918 379.311 93.7797 379.429 93.1897 379.429C92.6329 379.429 92.1374 379.328 91.7032 379.126C91.269 378.92 90.9276 378.629 90.6791 378.251C90.4305 377.873 90.3062 377.424 90.3062 376.903H91.5193C91.5193 377.192 91.5905 377.444 91.733 377.659C91.8789 377.871 92.0777 378.037 92.3296 378.156C92.5815 378.276 92.8682 378.335 93.1897 378.335C93.5444 378.335 93.846 378.261 94.0945 378.112C94.3431 377.962 94.532 377.744 94.6613 377.455C94.7939 377.164 94.8602 376.807 94.8602 376.386V369.108ZM100.652 379.469C100.168 379.469 99.729 379.378 99.3346 379.195C98.9402 379.01 98.627 378.743 98.395 378.395C98.163 378.044 98.047 377.619 98.047 377.122C98.047 376.685 98.1331 376.33 98.3055 376.058C98.4778 375.783 98.7082 375.568 98.9965 375.412C99.2849 375.256 99.6031 375.14 99.9511 375.064C100.302 374.984 100.655 374.921 101.01 374.875C101.474 374.815 101.85 374.771 102.139 374.741C102.43 374.708 102.642 374.653 102.775 374.577C102.911 374.5 102.979 374.368 102.979 374.179V374.139C102.979 373.649 102.845 373.268 102.576 372.996C102.311 372.724 101.908 372.588 101.368 372.588C100.808 372.588 100.369 372.711 100.051 372.956C99.7323 373.201 99.5086 373.463 99.3794 373.741L98.2657 373.344C98.4646 372.88 98.7297 372.518 99.0612 372.26C99.3959 371.998 99.7605 371.816 100.155 371.713C100.553 371.607 100.944 371.554 101.328 371.554C101.573 371.554 101.855 371.584 102.173 371.643C102.495 371.7 102.805 371.817 103.103 371.996C103.405 372.175 103.655 372.446 103.854 372.807C104.053 373.168 104.152 373.652 104.152 374.259V379.29H102.979V378.256H102.919C102.84 378.421 102.707 378.599 102.521 378.788C102.336 378.977 102.089 379.137 101.781 379.27C101.472 379.402 101.096 379.469 100.652 379.469ZM100.831 378.415C101.295 378.415 101.686 378.324 102.004 378.141C102.326 377.959 102.568 377.724 102.73 377.435C102.896 377.147 102.979 376.844 102.979 376.526V375.452C102.929 375.511 102.82 375.566 102.651 375.616C102.485 375.662 102.293 375.704 102.074 375.74C101.859 375.773 101.648 375.803 101.443 375.83C101.24 375.853 101.076 375.873 100.95 375.889C100.645 375.929 100.36 375.994 100.095 376.083C99.8334 376.169 99.6213 376.3 99.4589 376.476C99.2998 376.648 99.2203 376.884 99.2203 377.182C99.2203 377.59 99.3711 377.898 99.6727 378.107C99.9776 378.312 100.364 378.415 100.831 378.415ZM107.467 374.696V379.29H106.294V371.653H107.427V372.847H107.527C107.706 372.459 107.977 372.147 108.342 371.912C108.706 371.673 109.177 371.554 109.754 371.554C110.271 371.554 110.723 371.66 111.111 371.872C111.499 372.081 111.8 372.399 112.016 372.827C112.231 373.251 112.339 373.788 112.339 374.438V379.29H111.166V374.517C111.166 373.917 111.01 373.45 110.698 373.115C110.387 372.777 109.959 372.608 109.416 372.608C109.041 372.608 108.706 372.689 108.411 372.852C108.12 373.014 107.889 373.251 107.72 373.563C107.551 373.874 107.467 374.252 107.467 374.696Z" fill="#615E83"/>
<path d="M163.595 379.29V369.108H169.7V370.202H164.828V373.642H169.242V374.736H164.828V379.29H163.595ZM174.294 379.449C173.558 379.449 172.923 379.286 172.39 378.962C171.859 378.634 171.45 378.176 171.162 377.59C170.876 377 170.734 376.313 170.734 375.531C170.734 374.749 170.876 374.06 171.162 373.463C171.45 372.863 171.851 372.396 172.365 372.061C172.882 371.723 173.485 371.554 174.174 371.554C174.572 371.554 174.965 371.62 175.353 371.753C175.74 371.885 176.093 372.101 176.412 372.399C176.73 372.694 176.983 373.085 177.172 373.572C177.361 374.06 177.456 374.66 177.456 375.372V375.869H171.569V374.855H176.262C176.262 374.424 176.176 374.04 176.004 373.702C175.835 373.364 175.593 373.097 175.278 372.901C174.966 372.706 174.599 372.608 174.174 372.608C173.707 372.608 173.303 372.724 172.961 372.956C172.623 373.185 172.363 373.483 172.181 373.851C171.998 374.219 171.907 374.613 171.907 375.034V375.71C171.907 376.287 172.007 376.776 172.206 377.177C172.408 377.575 172.688 377.878 173.046 378.087C173.404 378.292 173.82 378.395 174.294 378.395C174.602 378.395 174.88 378.352 175.129 378.266C175.381 378.176 175.598 378.044 175.78 377.868C175.962 377.689 176.103 377.467 176.203 377.202L177.336 377.52C177.217 377.904 177.016 378.242 176.735 378.534C176.453 378.822 176.105 379.048 175.691 379.21C175.276 379.369 174.811 379.449 174.294 379.449ZM179.399 379.29V369.108H180.573V372.866H180.672C180.758 372.734 180.878 372.565 181.03 372.359C181.186 372.151 181.408 371.965 181.696 371.803C181.988 371.637 182.382 371.554 182.88 371.554C183.523 371.554 184.089 371.715 184.58 372.036C185.07 372.358 185.453 372.813 185.728 373.403C186.003 373.993 186.141 374.689 186.141 375.491C186.141 376.3 186.003 377.001 185.728 377.594C185.453 378.184 185.072 378.642 184.585 378.967C184.098 379.288 183.536 379.449 182.899 379.449C182.409 379.449 182.016 379.368 181.721 379.205C181.426 379.04 181.199 378.852 181.04 378.643C180.881 378.431 180.758 378.256 180.672 378.116H180.533V379.29H179.399ZM180.553 375.472C180.553 376.048 180.637 376.557 180.806 376.998C180.975 377.435 181.222 377.778 181.547 378.027C181.872 378.272 182.27 378.395 182.74 378.395C183.231 378.395 183.64 378.266 183.968 378.007C184.3 377.745 184.548 377.394 184.714 376.953C184.883 376.509 184.968 376.015 184.968 375.472C184.968 374.935 184.885 374.451 184.719 374.02C184.557 373.586 184.31 373.243 183.978 372.991C183.65 372.736 183.238 372.608 182.74 372.608C182.263 372.608 181.862 372.729 181.537 372.971C181.212 373.21 180.967 373.544 180.801 373.975C180.636 374.403 180.553 374.902 180.553 375.472Z" fill="#615E83"/>
<path d="M237.111 369.108H238.582L242.043 377.56H242.162L245.622 369.108H247.094V379.29H245.94V371.554H245.841L242.659 379.29H241.546L238.364 371.554H238.264V379.29H237.111V369.108ZM251.654 379.469C251.17 379.469 250.731 379.378 250.337 379.195C249.942 379.01 249.629 378.743 249.397 378.395C249.165 378.044 249.049 377.619 249.049 377.122C249.049 376.685 249.135 376.33 249.307 376.058C249.48 375.783 249.71 375.568 249.998 375.412C250.287 375.256 250.605 375.14 250.953 375.064C251.304 374.984 251.657 374.921 252.012 374.875C252.476 374.815 252.852 374.771 253.141 374.741C253.432 374.708 253.644 374.653 253.777 374.577C253.913 374.5 253.981 374.368 253.981 374.179V374.139C253.981 373.649 253.847 373.268 253.578 372.996C253.313 372.724 252.91 372.588 252.37 372.588C251.81 372.588 251.371 372.711 251.052 372.956C250.734 373.201 250.511 373.463 250.381 373.741L249.268 373.344C249.467 372.88 249.732 372.518 250.063 372.26C250.398 371.998 250.762 371.816 251.157 371.713C251.555 371.607 251.946 371.554 252.33 371.554C252.575 371.554 252.857 371.584 253.175 371.643C253.497 371.7 253.807 371.817 254.105 371.996C254.407 372.175 254.657 372.446 254.856 372.807C255.055 373.168 255.154 373.652 255.154 374.259V379.29H253.981V378.256H253.921C253.842 378.421 253.709 378.599 253.523 378.788C253.338 378.977 253.091 379.137 252.783 379.27C252.474 379.402 252.098 379.469 251.654 379.469ZM251.833 378.415C252.297 378.415 252.688 378.324 253.006 378.141C253.328 377.959 253.57 377.724 253.732 377.435C253.898 377.147 253.981 376.844 253.981 376.526V375.452C253.931 375.511 253.822 375.566 253.653 375.616C253.487 375.662 253.295 375.704 253.076 375.74C252.86 375.773 252.65 375.803 252.445 375.83C252.242 375.853 252.078 375.873 251.952 375.889C251.647 375.929 251.362 375.994 251.097 376.083C250.835 376.169 250.623 376.3 250.461 376.476C250.302 376.648 250.222 376.884 250.222 377.182C250.222 377.59 250.373 377.898 250.675 378.107C250.98 378.312 251.366 378.415 251.833 378.415ZM257.296 379.29V371.653H258.429V372.807H258.509C258.648 372.429 258.9 372.122 259.264 371.887C259.629 371.652 260.04 371.534 260.497 371.534C260.583 371.534 260.691 371.536 260.82 371.539C260.95 371.542 261.047 371.547 261.114 371.554V372.747C261.074 372.737 260.983 372.722 260.84 372.702C260.701 372.679 260.554 372.668 260.398 372.668C260.027 372.668 259.695 372.746 259.403 372.901C259.115 373.054 258.886 373.266 258.717 373.538C258.552 373.806 258.469 374.113 258.469 374.457V379.29H257.296Z" fill="#615E83"/>
<path d="M312.247 379.29H310.955L314.693 369.108H315.966L319.705 379.29H318.412L315.369 370.719H315.29L312.247 379.29ZM312.725 375.313H317.935V376.406H312.725V375.313ZM321.131 382.153V371.653H322.265V372.866H322.404C322.49 372.734 322.61 372.565 322.762 372.359C322.918 372.151 323.14 371.965 323.428 371.803C323.72 371.637 324.114 371.554 324.612 371.554C325.255 371.554 325.821 371.715 326.312 372.036C326.802 372.358 327.185 372.813 327.46 373.403C327.735 373.993 327.873 374.689 327.873 375.491C327.873 376.3 327.735 377.001 327.46 377.594C327.185 378.184 326.804 378.642 326.317 378.967C325.83 379.288 325.268 379.449 324.631 379.449C324.141 379.449 323.748 379.368 323.453 379.205C323.158 379.04 322.931 378.852 322.772 378.643C322.613 378.431 322.49 378.256 322.404 378.116H322.305V382.153H321.131ZM322.285 375.472C322.285 376.048 322.369 376.557 322.538 376.998C322.707 377.435 322.954 377.778 323.279 378.027C323.604 378.272 324.002 378.395 324.472 378.395C324.963 378.395 325.372 378.266 325.7 378.007C326.032 377.745 326.28 377.394 326.446 376.953C326.615 376.509 326.7 376.015 326.7 375.472C326.7 374.935 326.617 374.451 326.451 374.02C326.289 373.586 326.042 373.243 325.71 372.991C325.382 372.736 324.97 372.608 324.472 372.608C323.995 372.608 323.594 372.729 323.269 372.971C322.944 373.21 322.699 373.544 322.533 373.975C322.368 374.403 322.285 374.902 322.285 375.472ZM329.663 379.29V371.653H330.796V372.807H330.876C331.015 372.429 331.267 372.122 331.631 371.887C331.996 371.652 332.407 371.534 332.864 371.534C332.951 371.534 333.058 371.536 333.188 371.539C333.317 371.542 333.415 371.547 333.481 371.554V372.747C333.441 372.737 333.35 372.722 333.207 372.702C333.068 372.679 332.921 372.668 332.765 372.668C332.394 372.668 332.062 372.746 331.771 372.901C331.482 373.054 331.254 373.266 331.085 373.538C330.919 373.806 330.836 374.113 330.836 374.457V379.29H329.663Z" fill="#615E83"/>
<path d="M384.041 369.108H385.512L388.972 377.56H389.092L392.552 369.108H394.024V379.29H392.87V371.554H392.771L389.589 379.29H388.475L385.293 371.554H385.194V379.29H384.041V369.108ZM398.584 379.469C398.1 379.469 397.661 379.378 397.266 379.195C396.872 379.01 396.559 378.743 396.327 378.395C396.095 378.044 395.979 377.619 395.979 377.122C395.979 376.685 396.065 376.33 396.237 376.058C396.409 375.783 396.64 375.568 396.928 375.412C397.217 375.256 397.535 375.14 397.883 375.064C398.234 374.984 398.587 374.921 398.942 374.875C399.406 374.815 399.782 374.771 400.07 374.741C400.362 374.708 400.574 374.653 400.707 374.577C400.842 374.5 400.91 374.368 400.91 374.179V374.139C400.91 373.649 400.776 373.268 400.508 372.996C400.243 372.724 399.84 372.588 399.3 372.588C398.739 372.588 398.3 372.711 397.982 372.956C397.664 373.201 397.44 373.463 397.311 373.741L396.197 373.344C396.396 372.88 396.661 372.518 396.993 372.26C397.328 371.998 397.692 371.816 398.087 371.713C398.484 371.607 398.875 371.554 399.26 371.554C399.505 371.554 399.787 371.584 400.105 371.643C400.427 371.7 400.736 371.817 401.035 371.996C401.336 372.175 401.587 372.446 401.785 372.807C401.984 373.168 402.084 373.652 402.084 374.259V379.29H400.91V378.256H400.851C400.771 378.421 400.639 378.599 400.453 378.788C400.267 378.977 400.021 379.137 399.712 379.27C399.404 379.402 399.028 379.469 398.584 379.469ZM398.763 378.415C399.227 378.415 399.618 378.324 399.936 378.141C400.257 377.959 400.499 377.724 400.662 377.435C400.828 377.147 400.91 376.844 400.91 376.526V375.452C400.861 375.511 400.751 375.566 400.582 375.616C400.417 375.662 400.224 375.704 400.006 375.74C399.79 375.773 399.58 375.803 399.374 375.83C399.172 375.853 399.008 375.873 398.882 375.889C398.577 375.929 398.292 375.994 398.027 376.083C397.765 376.169 397.553 376.3 397.391 376.476C397.231 376.648 397.152 376.884 397.152 377.182C397.152 377.59 397.303 377.898 397.604 378.107C397.909 378.312 398.295 378.415 398.763 378.415ZM404.707 382.153C404.509 382.153 404.331 382.137 404.176 382.104C404.02 382.074 403.912 382.044 403.852 382.014L404.151 380.98C404.436 381.053 404.688 381.08 404.906 381.06C405.125 381.04 405.319 380.942 405.488 380.766C405.66 380.594 405.818 380.314 405.96 379.926L406.179 379.33L403.355 371.653H404.628L406.736 377.739H406.815L408.923 371.653H410.196L406.955 380.403C406.809 380.798 406.628 381.124 406.413 381.383C406.197 381.645 405.947 381.839 405.662 381.965C405.38 382.09 405.062 382.153 404.707 382.153Z" fill="#615E83"/>
<path d="M464.45 369.108H465.683V376.386C465.683 377.036 465.564 377.588 465.325 378.042C465.086 378.496 464.75 378.841 464.316 379.076C463.882 379.311 463.37 379.429 462.78 379.429C462.223 379.429 461.727 379.328 461.293 379.126C460.859 378.92 460.517 378.629 460.269 378.251C460.02 377.873 459.896 377.424 459.896 376.903H461.109C461.109 377.192 461.18 377.444 461.323 377.659C461.469 377.871 461.668 378.037 461.919 378.156C462.171 378.276 462.458 378.335 462.78 378.335C463.134 378.335 463.436 378.261 463.684 378.112C463.933 377.962 464.122 377.744 464.251 377.455C464.384 377.164 464.45 376.807 464.45 376.386V369.108ZM472.807 376.168V371.653H473.981V379.29H472.807V377.997H472.728C472.549 378.385 472.27 378.715 471.892 378.987C471.515 379.255 471.037 379.389 470.461 379.389C469.983 379.389 469.559 379.285 469.188 379.076C468.817 378.864 468.525 378.546 468.313 378.121C468.101 377.694 467.995 377.155 467.995 376.506V371.653H469.168V376.426C469.168 376.983 469.324 377.427 469.635 377.759C469.95 378.09 470.351 378.256 470.839 378.256C471.13 378.256 471.427 378.181 471.728 378.032C472.033 377.883 472.289 377.654 472.494 377.346C472.703 377.038 472.807 376.645 472.807 376.168ZM477.303 374.696V379.29H476.13V371.653H477.263V372.847H477.362C477.541 372.459 477.813 372.147 478.178 371.912C478.542 371.673 479.013 371.554 479.59 371.554C480.107 371.554 480.559 371.66 480.947 371.872C481.335 372.081 481.636 372.399 481.852 372.827C482.067 373.251 482.175 373.788 482.175 374.438V379.29H481.002V374.517C481.002 373.917 480.846 373.45 480.534 373.115C480.223 372.777 479.795 372.608 479.252 372.608C478.877 372.608 478.542 372.689 478.247 372.852C477.956 373.014 477.725 373.251 477.556 373.563C477.387 373.874 477.303 374.252 477.303 374.696Z" fill="#615E83"/>
<path d="M43.6426 344.376C42.7865 344.376 42.0574 344.143 41.4551 343.677C40.8528 343.207 40.3926 342.527 40.0744 341.637C39.7562 340.743 39.5971 339.664 39.5971 338.399C39.5971 337.141 39.7562 336.067 40.0744 335.177C40.3964 334.283 40.8585 333.601 41.4608 333.132C42.0668 332.658 42.7941 332.421 43.6426 332.421C44.4911 332.421 45.2164 332.658 45.8187 333.132C46.4248 333.601 46.8869 334.283 47.2051 335.177C47.527 336.067 47.688 337.141 47.688 338.399C47.688 339.664 47.5289 340.743 47.2108 341.637C46.8926 342.527 46.4324 343.207 45.8301 343.677C45.2278 344.143 44.4986 344.376 43.6426 344.376ZM43.6426 343.126C44.4911 343.126 45.1502 342.717 45.6199 341.899C46.0895 341.08 46.3244 339.914 46.3244 338.399C46.3244 337.391 46.2164 336.533 46.0005 335.825C45.7884 335.116 45.4816 334.577 45.0801 334.205C44.6824 333.834 44.2032 333.649 43.6426 333.649C42.8017 333.649 42.1445 334.063 41.671 334.893C41.1975 335.719 40.9608 336.887 40.9608 338.399C40.9608 339.406 41.0668 340.262 41.2789 340.967C41.4911 341.671 41.796 342.207 42.1937 342.575C42.5952 342.942 43.0782 343.126 43.6426 343.126Z" fill="#615E83"/>
<path d="M43.4835 279.486C42.8168 279.486 42.2164 279.353 41.6824 279.088C41.1483 278.823 40.7202 278.459 40.3983 277.997C40.0763 277.535 39.9002 277.008 39.8699 276.417H41.2335C41.2865 276.944 41.5252 277.379 41.9494 277.724C42.3774 278.065 42.8888 278.236 43.4835 278.236C43.9608 278.236 44.385 278.124 44.7562 277.9C45.1312 277.677 45.4248 277.37 45.6369 276.98C45.8528 276.586 45.9608 276.141 45.9608 275.645C45.9608 275.137 45.849 274.684 45.6255 274.287C45.4058 273.885 45.1028 273.569 44.7164 273.338C44.3301 273.107 43.8888 272.989 43.3926 272.986C43.0365 272.982 42.671 273.037 42.296 273.15C41.921 273.26 41.6123 273.402 41.3699 273.576L40.0517 273.417L40.7562 267.69H46.8017V268.94H41.938L41.5289 272.372H41.5971C41.8358 272.182 42.135 272.025 42.4949 271.9C42.8547 271.775 43.2297 271.713 43.6199 271.713C44.332 271.713 44.9664 271.883 45.5233 272.224C46.0839 272.561 46.5233 273.023 46.8414 273.611C47.1634 274.198 47.3244 274.868 47.3244 275.622C47.3244 276.364 47.1577 277.027 46.8244 277.611C46.4949 278.19 46.0403 278.648 45.4608 278.986C44.8812 279.319 44.2221 279.486 43.4835 279.486ZM53.377 279.486C52.5209 279.486 51.7917 279.253 51.1895 278.787C50.5872 278.317 50.127 277.637 49.8088 276.747C49.4906 275.853 49.3315 274.773 49.3315 273.508C49.3315 272.251 49.4906 271.177 49.8088 270.287C50.1307 269.393 50.5929 268.711 51.1951 268.241C51.8012 267.768 52.5285 267.531 53.377 267.531C54.2254 267.531 54.9508 267.768 55.5531 268.241C56.1592 268.711 56.6213 269.393 56.9395 270.287C57.2614 271.177 57.4224 272.251 57.4224 273.508C57.4224 274.773 57.2633 275.853 56.9451 276.747C56.627 277.637 56.1667 278.317 55.5645 278.787C54.9622 279.253 54.233 279.486 53.377 279.486ZM53.377 278.236C54.2254 278.236 54.8845 277.826 55.3542 277.008C55.8239 276.19 56.0588 275.023 56.0588 273.508C56.0588 272.501 55.9508 271.643 55.7349 270.934C55.5228 270.226 55.216 269.686 54.8145 269.315C54.4167 268.944 53.9376 268.758 53.377 268.758C52.536 268.758 51.8788 269.173 51.4054 270.003C50.9319 270.828 50.6951 271.997 50.6951 273.508C50.6951 274.516 50.8012 275.372 51.0133 276.076C51.2254 276.781 51.5304 277.317 51.9281 277.684C52.3296 278.052 52.8126 278.236 53.377 278.236ZM60.8542 276.145L60.8315 274.486H61.1042L64.9224 270.599H66.5815L62.5133 274.713H62.3997L60.8542 276.145ZM59.6042 279.326V267.69H60.9451V279.326H59.6042ZM65.1497 279.326L61.7406 275.008L62.6951 274.076L66.8542 279.326H65.1497Z" fill="#615E83"/>
<path d="M43.938 207.69V219.326H42.5289V209.167H42.4608L39.6199 211.054V209.622L42.5289 207.69H43.938ZM51.0801 219.486C50.224 219.486 49.4949 219.253 48.8926 218.787C48.2903 218.317 47.8301 217.637 47.5119 216.747C47.1937 215.853 47.0346 214.773 47.0346 213.508C47.0346 212.251 47.1937 211.177 47.5119 210.287C47.8339 209.393 48.296 208.711 48.8983 208.241C49.5043 207.768 50.2316 207.531 51.0801 207.531C51.9286 207.531 52.6539 207.768 53.2562 208.241C53.8623 208.711 54.3244 209.393 54.6426 210.287C54.9645 211.177 55.1255 212.251 55.1255 213.508C55.1255 214.773 54.9664 215.853 54.6483 216.747C54.3301 217.637 53.8699 218.317 53.2676 218.787C52.6653 219.253 51.9361 219.486 51.0801 219.486ZM51.0801 218.236C51.9286 218.236 52.5877 217.826 53.0574 217.008C53.527 216.19 53.7619 215.023 53.7619 213.508C53.7619 212.501 53.6539 211.643 53.438 210.934C53.2259 210.226 52.9191 209.686 52.5176 209.315C52.1199 208.944 51.6407 208.758 51.0801 208.758C50.2392 208.758 49.582 209.173 49.1085 210.003C48.635 210.828 48.3983 211.997 48.3983 213.508C48.3983 214.516 48.5043 215.372 48.7164 216.076C48.9286 216.781 49.2335 217.317 49.6312 217.684C50.0327 218.052 50.5157 218.236 51.0801 218.236ZM61.0801 219.486C60.224 219.486 59.4949 219.253 58.8926 218.787C58.2903 218.317 57.8301 217.637 57.5119 216.747C57.1937 215.853 57.0346 214.773 57.0346 213.508C57.0346 212.251 57.1937 211.177 57.5119 210.287C57.8339 209.393 58.296 208.711 58.8983 208.241C59.5043 207.768 60.2316 207.531 61.0801 207.531C61.9286 207.531 62.6539 207.768 63.2562 208.241C63.8623 208.711 64.3244 209.393 64.6426 210.287C64.9645 211.177 65.1255 212.251 65.1255 213.508C65.1255 214.773 64.9664 215.853 64.6483 216.747C64.3301 217.637 63.8699 218.317 63.2676 218.787C62.6653 219.253 61.9361 219.486 61.0801 219.486ZM61.0801 218.236C61.9286 218.236 62.5877 217.826 63.0574 217.008C63.527 216.19 63.7619 215.023 63.7619 213.508C63.7619 212.501 63.6539 211.643 63.438 210.934C63.2259 210.226 62.9191 209.686 62.5176 209.315C62.1199 208.944 61.6407 208.758 61.0801 208.758C60.2392 208.758 59.582 209.173 59.1085 210.003C58.635 210.828 58.3983 211.997 58.3983 213.508C58.3983 214.516 58.5043 215.372 58.7164 216.076C58.9286 216.781 59.2335 217.317 59.6312 217.684C60.0327 218.052 60.5157 218.236 61.0801 218.236ZM68.5574 216.145L68.5346 214.486H68.8074L72.6255 210.599H74.2846L70.2164 214.713H70.1028L68.5574 216.145ZM67.3074 219.326V207.69H68.6483V219.326H67.3074ZM72.8528 219.326L69.4437 215.008L70.3983 214.076L74.5574 219.326H72.8528Z" fill="#615E83"/>
<path d="M43.4835 157.449C42.8168 157.449 42.2164 157.316 41.6824 157.051C41.1483 156.786 40.7202 156.422 40.3983 155.96C40.0763 155.498 39.9002 154.972 39.8699 154.381H41.2335C41.2865 154.907 41.5252 155.343 41.9494 155.688C42.3774 156.028 42.8888 156.199 43.4835 156.199C43.9608 156.199 44.385 156.087 44.7562 155.864C45.1312 155.64 45.4248 155.333 45.6369 154.943C45.8528 154.549 45.9608 154.104 45.9608 153.608C45.9608 153.1 45.849 152.648 45.6255 152.25C45.4058 151.849 45.1028 151.532 44.7164 151.301C44.3301 151.07 43.8888 150.953 43.3926 150.949C43.0365 150.945 42.671 151 42.296 151.114C41.921 151.224 41.6123 151.366 41.3699 151.54L40.0517 151.381L40.7562 145.653H46.8017V146.903H41.938L41.5289 150.335H41.5971C41.8358 150.146 42.135 149.989 42.4949 149.864C42.8547 149.739 43.2297 149.676 43.6199 149.676C44.332 149.676 44.9664 149.847 45.5233 150.188C46.0839 150.525 46.5233 150.987 46.8414 151.574C47.1634 152.161 47.3244 152.831 47.3244 153.585C47.3244 154.328 47.1577 154.991 46.8244 155.574C46.4949 156.153 46.0403 156.612 45.4608 156.949C44.8812 157.282 44.2221 157.449 43.4835 157.449ZM53.377 157.449C52.5209 157.449 51.7917 157.216 51.1895 156.75C50.5872 156.28 50.127 155.6 49.8088 154.71C49.4906 153.816 49.3315 152.737 49.3315 151.472C49.3315 150.214 49.4906 149.14 49.8088 148.25C50.1307 147.356 50.5929 146.674 51.1951 146.205C51.8012 145.731 52.5285 145.494 53.377 145.494C54.2254 145.494 54.9508 145.731 55.5531 146.205C56.1592 146.674 56.6213 147.356 56.9395 148.25C57.2614 149.14 57.4224 150.214 57.4224 151.472C57.4224 152.737 57.2633 153.816 56.9451 154.71C56.627 155.6 56.1667 156.28 55.5645 156.75C54.9622 157.216 54.233 157.449 53.377 157.449ZM53.377 156.199C54.2254 156.199 54.8845 155.79 55.3542 154.972C55.8239 154.153 56.0588 152.987 56.0588 151.472C56.0588 150.464 55.9508 149.606 55.7349 148.898C55.5228 148.189 55.216 147.65 54.8145 147.278C54.4167 146.907 53.9376 146.722 53.377 146.722C52.536 146.722 51.8788 147.136 51.4054 147.966C50.9319 148.792 50.6951 149.96 50.6951 151.472C50.6951 152.479 50.8012 153.335 51.0133 154.04C51.2254 154.744 51.5304 155.28 51.9281 155.648C52.3296 156.015 52.8126 156.199 53.377 156.199ZM63.377 157.449C62.5209 157.449 61.7917 157.216 61.1895 156.75C60.5872 156.28 60.127 155.6 59.8088 154.71C59.4906 153.816 59.3315 152.737 59.3315 151.472C59.3315 150.214 59.4906 149.14 59.8088 148.25C60.1307 147.356 60.5929 146.674 61.1951 146.205C61.8012 145.731 62.5285 145.494 63.377 145.494C64.2254 145.494 64.9508 145.731 65.5531 146.205C66.1592 146.674 66.6213 147.356 66.9395 148.25C67.2614 149.14 67.4224 150.214 67.4224 151.472C67.4224 152.737 67.2633 153.816 66.9451 154.71C66.627 155.6 66.1667 156.28 65.5645 156.75C64.9622 157.216 64.233 157.449 63.377 157.449ZM63.377 156.199C64.2254 156.199 64.8845 155.79 65.3542 154.972C65.8239 154.153 66.0588 152.987 66.0588 151.472C66.0588 150.464 65.9508 149.606 65.7349 148.898C65.5228 148.189 65.216 147.65 64.8145 147.278C64.4167 146.907 63.9376 146.722 63.377 146.722C62.536 146.722 61.8788 147.136 61.4054 147.966C60.9319 148.792 60.6951 149.96 60.6951 151.472C60.6951 152.479 60.8012 153.335 61.0133 154.04C61.2254 154.744 61.5304 155.28 61.9281 155.648C62.3296 156.015 62.8126 156.199 63.377 156.199ZM70.8542 154.108L70.8315 152.449H71.1042L74.9224 148.563H76.5815L72.5133 152.676H72.3997L70.8542 154.108ZM69.6042 157.29V145.653H70.9451V157.29H69.6042ZM75.1497 157.29L71.7406 152.972L72.6951 152.04L76.8542 157.29H75.1497Z" fill="#615E83"/>
<path d="M96.8276 221.794C101.268 216.536 116.248 210.226 140.646 227.053C171.144 248.086 211.457 279.635 245.11 243.178C278.763 206.721 325.386 125.393 478.226 257.2" stroke="#FF718B" stroke-width="3" stroke-linecap="round"/>
<path d="M95.7793 257.706C108.575 237.831 147.78 208.045 202.232 247.905C270.296 297.73 303.064 273.491 346.605 251.047C390.146 228.604 428.3 252.394 448.05 264.962C467.801 277.531 469.551 279.326 482.591 279.326" stroke="#03CEA4" stroke-width="3" stroke-linecap="round"/>
<line x1="96.1841" y1="150.79" x2="482.782" y2="150.79" stroke="#E5E5EF" stroke-linecap="round"/>
<line x1="96.1841" y1="214.79" x2="482.782" y2="214.79" stroke="#E5E5EF" stroke-linecap="round"/>
<line x1="96.1841" y1="278.79" x2="482.782" y2="278.79" stroke="#E5E5EF" stroke-linecap="round"/>
<line x1="96.1841" y1="342.79" x2="482.782" y2="342.79" stroke="#E5E5EF" stroke-linecap="round"/>
<line x1="322.089" y1="151.79" x2="322.089" y2="342.79" stroke="#9291A5" stroke-linecap="round" stroke-dasharray="8 8"/>
<g filter="url(#filter1_d_143_1084)">
<circle cx="322.197" cy="186.918" r="9.44702" fill="#FF718B"/>
<circle cx="322.197" cy="186.918" r="8.44702" stroke="white" stroke-width="2"/>
</g>
<line x1="39.7324" y1="109.79" x2="483.282" y2="109.79" stroke="#E5E5EF"/>
<rect x="400.223" y="74.2896" width="8" height="8" rx="4" fill="#03CEA4"/>
<path d="M417.581 73.1077H418.993L421.816 77.8606H421.936L424.76 73.1077H426.172L422.493 79.0935V83.2896H421.26V79.0935L417.581 73.1077ZM429.629 83.4486C428.94 83.4486 428.335 83.2846 427.815 82.9565C427.298 82.6283 426.893 82.1693 426.602 81.5793C426.313 80.9894 426.169 80.3 426.169 79.5111C426.169 78.7157 426.313 78.0213 426.602 77.428C426.893 76.8348 427.298 76.3741 427.815 76.0459C428.335 75.7178 428.94 75.5538 429.629 75.5538C430.319 75.5538 430.922 75.7178 431.439 76.0459C431.959 76.3741 432.364 76.8348 432.652 77.428C432.944 78.0213 433.089 78.7157 433.089 79.5111C433.089 80.3 432.944 80.9894 432.652 81.5793C432.364 82.1693 431.959 82.6283 431.439 82.9565C430.922 83.2846 430.319 83.4486 429.629 83.4486ZM429.629 82.3947C430.153 82.3947 430.584 82.2604 430.922 81.992C431.26 81.7235 431.51 81.3705 431.673 80.933C431.835 80.4955 431.916 80.0216 431.916 79.5111C431.916 79.0007 431.835 78.5251 431.673 78.0843C431.51 77.6435 431.26 77.2872 430.922 77.0154C430.584 76.7436 430.153 76.6077 429.629 76.6077C429.106 76.6077 428.675 76.7436 428.337 77.0154C427.999 77.2872 427.748 77.6435 427.586 78.0843C427.424 78.5251 427.342 79.0007 427.342 79.5111C427.342 80.0216 427.424 80.4955 427.586 80.933C427.748 81.3705 427.999 81.7235 428.337 81.992C428.675 82.2604 429.106 82.3947 429.629 82.3947ZM432.975 73.1077H434.387L437.211 77.8606H437.33L440.154 73.1077H441.566L437.887 79.0935V83.2896H436.654V79.0935L432.975 73.1077ZM447.098 83.2896V73.1077H450.539C451.334 73.1077 451.987 73.2436 452.497 73.5154C453.008 73.7839 453.386 74.1534 453.631 74.6241C453.876 75.0947 453.999 75.63 453.999 76.2299C453.999 76.8298 453.876 77.3618 453.631 77.8258C453.386 78.2898 453.009 78.6544 452.502 78.9195C451.995 79.1814 451.347 79.3123 450.558 79.3123H447.774V78.1986H450.519C451.062 78.1986 451.5 78.1191 451.831 77.96C452.166 77.8009 452.408 77.5755 452.557 77.2839C452.709 76.9889 452.786 76.6376 452.786 76.2299C452.786 75.8222 452.709 75.4659 452.557 75.161C452.405 74.8561 452.161 74.6208 451.826 74.455C451.491 74.286 451.049 74.2015 450.499 74.2015H448.331V83.2896H447.098ZM451.891 78.7157L454.396 83.2896H452.965L450.499 78.7157H451.891ZM458.141 83.4685C457.657 83.4685 457.218 83.3774 456.824 83.1951C456.429 83.0095 456.116 82.7427 455.884 82.3947C455.652 82.0433 455.536 81.6191 455.536 81.1219C455.536 80.6844 455.622 80.3298 455.795 80.058C455.967 79.7829 456.197 79.5675 456.486 79.4117C456.774 79.2559 457.092 79.1399 457.44 79.0637C457.792 78.9842 458.145 78.9212 458.499 78.8748C458.963 78.8151 459.339 78.7704 459.628 78.7405C459.92 78.7074 460.132 78.6527 460.264 78.5765C460.4 78.5003 460.468 78.3677 460.468 78.1788V78.139C460.468 77.6485 460.334 77.2673 460.065 76.9955C459.8 76.7237 459.397 76.5878 458.857 76.5878C458.297 76.5878 457.858 76.7105 457.54 76.9557C457.222 77.201 456.998 77.4628 456.869 77.7413L455.755 77.3435C455.954 76.8795 456.219 76.5182 456.55 76.2597C456.885 75.9979 457.25 75.8156 457.644 75.7128C458.042 75.6068 458.433 75.5538 458.817 75.5538C459.063 75.5538 459.344 75.5836 459.663 75.6432C459.984 75.6996 460.294 75.8172 460.592 75.9962C460.894 76.1752 461.144 76.4453 461.343 76.8066C461.542 77.1679 461.641 77.6518 461.641 78.2583V83.2896H460.468V82.2555H460.408C460.329 82.4212 460.196 82.5985 460.011 82.7874C459.825 82.9763 459.578 83.1371 459.27 83.2697C458.962 83.4022 458.585 83.4685 458.141 83.4685ZM458.32 82.4146C458.784 82.4146 459.175 82.3234 459.494 82.1411C459.815 81.9588 460.057 81.7235 460.219 81.4351C460.385 81.1468 460.468 80.8435 460.468 80.5253V79.4515C460.418 79.5111 460.309 79.5658 460.14 79.6155C459.974 79.6619 459.782 79.7034 459.563 79.7398C459.348 79.773 459.137 79.8028 458.932 79.8293C458.73 79.8525 458.566 79.8724 458.44 79.889C458.135 79.9288 457.85 79.9934 457.585 80.0829C457.323 80.169 457.111 80.3 456.948 80.4756C456.789 80.648 456.71 80.8833 456.71 81.1816C456.71 81.5893 456.86 81.8975 457.162 82.1063C457.467 82.3118 457.853 82.4146 458.32 82.4146ZM467.104 75.6532V76.6475H463.146V75.6532H467.104ZM464.3 73.8236H465.473V81.1021C465.473 81.4335 465.521 81.6821 465.617 81.8478C465.717 82.0102 465.843 82.1196 465.995 82.1759C466.151 82.2289 466.315 82.2555 466.487 82.2555C466.617 82.2555 466.723 82.2488 466.806 82.2356C466.888 82.219 466.955 82.2057 467.004 82.1958L467.243 83.2498C467.164 83.2796 467.052 83.3094 466.91 83.3393C466.767 83.3724 466.587 83.389 466.368 83.389C466.037 83.389 465.712 83.3177 465.394 83.1752C465.079 83.0327 464.817 82.8156 464.608 82.5239C464.403 82.2323 464.3 81.8644 464.3 81.4202V73.8236ZM471.988 83.4486C471.253 83.4486 470.618 83.2862 470.084 82.9614C469.554 82.6333 469.145 82.1759 468.856 81.5893C468.571 80.9993 468.429 80.3132 468.429 79.531C468.429 78.7488 468.571 78.0594 468.856 77.4628C469.145 76.8629 469.546 76.3956 470.059 76.0609C470.577 75.7228 471.18 75.5538 471.869 75.5538C472.267 75.5538 472.66 75.62 473.047 75.7526C473.435 75.8852 473.788 76.1006 474.106 76.3989C474.425 76.6939 474.678 77.085 474.867 77.5722C475.056 78.0594 475.15 78.6593 475.15 79.3719V79.8691H469.264V78.8549H473.957C473.957 78.424 473.871 78.0396 473.699 77.7015C473.53 77.3634 473.288 77.0966 472.973 76.9011C472.661 76.7055 472.293 76.6077 471.869 76.6077C471.402 76.6077 470.997 76.7237 470.656 76.9557C470.318 77.1844 470.058 77.4827 469.876 77.8506C469.693 78.2185 469.602 78.6129 469.602 79.0339V79.71C469.602 80.2867 469.702 80.7756 469.9 81.1766C470.103 81.5744 470.383 81.8776 470.741 82.0864C471.099 82.2919 471.515 82.3947 471.988 82.3947C472.297 82.3947 472.575 82.3516 472.824 82.2654C473.076 82.1759 473.293 82.0433 473.475 81.8677C473.657 81.6887 473.798 81.4666 473.898 81.2015L475.031 81.5197C474.912 81.9041 474.711 82.2422 474.43 82.5339C474.148 82.8222 473.8 83.0476 473.385 83.21C472.971 83.3691 472.506 83.4486 471.988 83.4486Z" fill="#615E83"/>
<rect x="266" y="74" width="8" height="8" rx="4" fill="#FF718B"/>
<path d="M283.233 83V72.8182H286.673C287.472 72.8182 288.125 72.9624 288.632 73.2507C289.143 73.5357 289.52 73.9219 289.766 74.4091C290.011 74.8963 290.134 75.4399 290.134 76.0398C290.134 76.6397 290.011 77.1849 289.766 77.6754C289.524 78.166 289.149 78.5571 288.642 78.8487C288.135 79.1371 287.485 79.2812 286.693 79.2812H284.227V78.1875H286.653C287.2 78.1875 287.639 78.093 287.971 77.9041C288.302 77.7152 288.543 77.46 288.692 77.1385C288.844 76.8137 288.92 76.4474 288.92 76.0398C288.92 75.6321 288.844 75.2675 288.692 74.946C288.543 74.6245 288.301 74.3726 287.966 74.1903C287.631 74.0047 287.187 73.9119 286.634 73.9119H284.466V83H283.233ZM295.08 83.1591C294.344 83.1591 293.71 82.9967 293.176 82.6719C292.646 82.3438 292.237 81.8864 291.948 81.2997C291.663 80.7098 291.521 80.0237 291.521 79.2415C291.521 78.4593 291.663 77.7699 291.948 77.1733C292.237 76.5734 292.638 76.1061 293.151 75.7713C293.668 75.4332 294.272 75.2642 294.961 75.2642C295.359 75.2642 295.751 75.3305 296.139 75.4631C296.527 75.5956 296.88 75.8111 297.198 76.1094C297.516 76.4044 297.77 76.7955 297.959 77.2827C298.148 77.7699 298.242 78.3698 298.242 79.0824V79.5795H292.356V78.5653H297.049C297.049 78.1345 296.963 77.75 296.79 77.4119C296.621 77.0739 296.379 76.8071 296.065 76.6115C295.753 76.416 295.385 76.3182 294.961 76.3182C294.494 76.3182 294.089 76.4342 293.748 76.6662C293.41 76.8949 293.15 77.1932 292.967 77.5611C292.785 77.929 292.694 78.3234 292.694 78.7443V79.4205C292.694 79.9972 292.793 80.486 292.992 80.8871C293.194 81.2848 293.474 81.5881 293.832 81.7969C294.19 82.0024 294.606 82.1051 295.08 82.1051C295.388 82.1051 295.667 82.062 295.915 81.9759C296.167 81.8864 296.384 81.7538 296.567 81.5781C296.749 81.3991 296.89 81.1771 296.989 80.9119L298.123 81.2301C298.004 81.6146 297.803 81.9527 297.521 82.2443C297.24 82.5327 296.892 82.758 296.477 82.9205C296.063 83.0795 295.597 83.1591 295.08 83.1591ZM300.027 83V75.3636H301.161V76.517H301.24C301.379 76.1392 301.631 75.8326 301.996 75.5973C302.36 75.362 302.771 75.2443 303.229 75.2443C303.315 75.2443 303.423 75.246 303.552 75.2493C303.681 75.2526 303.779 75.2576 303.845 75.2642V76.4574C303.805 76.4474 303.714 76.4325 303.572 76.4126C303.433 76.3894 303.285 76.3778 303.129 76.3778C302.758 76.3778 302.427 76.4557 302.135 76.6115C301.847 76.764 301.618 76.9761 301.449 77.2479C301.283 77.5163 301.2 77.8229 301.2 78.1676V83H300.027ZM309.333 72.8182H310.804L314.264 81.2699H314.384L317.844 72.8182H319.316V83H318.162V75.2642H318.063L314.881 83H313.767L310.585 75.2642H310.486V83H309.333V72.8182ZM324.731 83.1591C324.041 83.1591 323.437 82.995 322.916 82.6669C322.399 82.3388 321.995 81.8797 321.703 81.2898C321.415 80.6998 321.271 80.0104 321.271 79.2216C321.271 78.4261 321.415 77.7318 321.703 77.1385C321.995 76.5452 322.399 76.0845 322.916 75.7564C323.437 75.4283 324.041 75.2642 324.731 75.2642C325.42 75.2642 326.023 75.4283 326.54 75.7564C327.061 76.0845 327.465 76.5452 327.754 77.1385C328.045 77.7318 328.191 78.4261 328.191 79.2216C328.191 80.0104 328.045 80.6998 327.754 81.2898C327.465 81.8797 327.061 82.3388 326.54 82.6669C326.023 82.995 325.42 83.1591 324.731 83.1591ZM324.731 82.1051C325.254 82.1051 325.685 81.9709 326.023 81.7024C326.362 81.4339 326.612 81.081 326.774 80.6435C326.937 80.206 327.018 79.732 327.018 79.2216C327.018 78.7112 326.937 78.2356 326.774 77.7947C326.612 77.3539 326.362 76.9976 326.023 76.7259C325.685 76.4541 325.254 76.3182 324.731 76.3182C324.207 76.3182 323.776 76.4541 323.438 76.7259C323.1 76.9976 322.85 77.3539 322.688 77.7947C322.525 78.2356 322.444 78.7112 322.444 79.2216C322.444 79.732 322.525 80.206 322.688 80.6435C322.85 81.081 323.1 81.4339 323.438 81.7024C323.776 81.9709 324.207 82.1051 324.731 82.1051ZM331.155 78.4062V83H329.982V75.3636H331.116V76.5568H331.215C331.394 76.169 331.666 75.8575 332.03 75.6222C332.395 75.3835 332.866 75.2642 333.442 75.2642C333.959 75.2642 334.412 75.3703 334.8 75.5824C335.187 75.7912 335.489 76.1094 335.704 76.5369C335.92 76.9612 336.028 77.4981 336.028 78.1477V83H334.854V78.2273C334.854 77.6274 334.698 77.16 334.387 76.8253C334.075 76.4872 333.648 76.3182 333.104 76.3182C332.73 76.3182 332.395 76.3994 332.1 76.5618C331.808 76.7242 331.578 76.9612 331.409 77.2727C331.24 77.5843 331.155 77.9621 331.155 78.4062ZM341.493 75.3636V76.358H337.535V75.3636H341.493ZM338.689 73.5341H339.862V80.8125C339.862 81.1439 339.91 81.3925 340.006 81.5582C340.105 81.7206 340.231 81.83 340.384 81.8864C340.54 81.9394 340.704 81.9659 340.876 81.9659C341.005 81.9659 341.111 81.9593 341.194 81.946C341.277 81.9295 341.343 81.9162 341.393 81.9062L341.632 82.9602C341.552 82.9901 341.441 83.0199 341.299 83.0497C341.156 83.0829 340.975 83.0994 340.757 83.0994C340.425 83.0994 340.1 83.0282 339.782 82.8857C339.467 82.7431 339.206 82.526 338.997 82.2344C338.791 81.9427 338.689 81.5748 338.689 81.1307V73.5341ZM344.595 78.4062V83H343.422V72.8182H344.595V76.5568H344.694C344.873 76.1624 345.142 75.8492 345.5 75.6172C345.861 75.3819 346.342 75.2642 346.941 75.2642C347.462 75.2642 347.917 75.3686 348.309 75.5774C348.7 75.7829 349.003 76.0994 349.218 76.527C349.437 76.9512 349.547 77.4915 349.547 78.1477V83H348.373V78.2273C348.373 77.6207 348.216 77.1518 347.901 76.8203C347.589 76.4856 347.157 76.3182 346.603 76.3182C346.219 76.3182 345.874 76.3994 345.569 76.5618C345.268 76.7242 345.029 76.9612 344.853 77.2727C344.681 77.5843 344.595 77.9621 344.595 78.4062Z" fill="#615E83"/>
<path d="M40.5137 69.0789V66.2898H53.6543V69.0789H48.7559V82.2898H45.4121V69.0789H40.5137ZM59.4375 82.5242C58.224 82.5242 57.1745 82.2664 56.2891 81.7507C55.4089 81.2299 54.7292 80.5059 54.25 79.5789C53.7708 78.6466 53.5313 77.5658 53.5313 76.3367C53.5313 75.0971 53.7708 74.0138 54.25 73.0867C54.7292 72.1544 55.4089 71.4304 56.2891 70.9148C57.1745 70.394 58.224 70.1335 59.4375 70.1335C60.651 70.1335 61.6979 70.394 62.5781 70.9148C63.4635 71.4304 64.1458 72.1544 64.625 73.0867C65.1042 74.0138 65.3438 75.0971 65.3438 76.3367C65.3438 77.5658 65.1042 78.6466 64.625 79.5789C64.1458 80.5059 63.4635 81.2299 62.5781 81.7507C61.6979 82.2664 60.651 82.5242 59.4375 82.5242ZM59.4531 79.946C60.0052 79.946 60.4661 79.7898 60.8359 79.4773C61.2057 79.1596 61.4844 78.7273 61.6719 78.1804C61.8646 77.6335 61.9609 77.0111 61.9609 76.3132C61.9609 75.6153 61.8646 74.9929 61.6719 74.446C61.4844 73.8992 61.2057 73.4669 60.8359 73.1492C60.4661 72.8315 60.0052 72.6726 59.4531 72.6726C58.8958 72.6726 58.4271 72.8315 58.0469 73.1492C57.6719 73.4669 57.388 73.8992 57.1953 74.446C57.0078 74.9929 56.9141 75.6153 56.9141 76.3132C56.9141 77.0111 57.0078 77.6335 57.1953 78.1804C57.388 78.7273 57.6719 79.1596 58.0469 79.4773C58.4271 79.7898 58.8958 79.946 59.4531 79.946ZM73.8906 70.2898V72.7898H66.6641V70.2898H73.8906ZM68.3047 67.4148H71.6328V78.6023C71.6328 78.9096 71.6797 79.1492 71.7734 79.321C71.8672 79.4877 71.9974 79.6049 72.1641 79.6726C72.3359 79.7403 72.5339 79.7742 72.7578 79.7742C72.9141 79.7742 73.0703 79.7611 73.2266 79.7351C73.3828 79.7039 73.5026 79.6804 73.5859 79.6648L74.1094 82.1414C73.9427 82.1934 73.7083 82.2533 73.4063 82.321C73.1042 82.394 72.737 82.4382 72.3047 82.4539C71.5026 82.4851 70.7995 82.3783 70.1953 82.1335C69.5964 81.8888 69.1302 81.5085 68.7969 80.9929C68.4635 80.4773 68.2995 79.8263 68.3047 79.0398V67.4148ZM79.4805 82.5164C78.7148 82.5164 78.0326 82.3835 77.4336 82.1179C76.8346 81.8471 76.3607 81.4486 76.0117 80.9226C75.668 80.3914 75.4961 79.7299 75.4961 78.9382C75.4961 78.2716 75.6185 77.7117 75.8633 77.2585C76.1081 76.8054 76.4414 76.4408 76.8633 76.1648C77.2852 75.8888 77.7643 75.6804 78.3008 75.5398C78.8424 75.3992 79.4102 75.3002 80.0039 75.2429C80.7018 75.17 81.2643 75.1023 81.6914 75.0398C82.1185 74.9721 82.4284 74.8731 82.6211 74.7429C82.8138 74.6127 82.9102 74.42 82.9102 74.1648V74.1179C82.9102 73.6231 82.7539 73.2403 82.4414 72.9695C82.1341 72.6986 81.6966 72.5632 81.1289 72.5632C80.5299 72.5632 80.0534 72.696 79.6992 72.9617C79.3451 73.2221 79.1107 73.5502 78.9961 73.946L75.918 73.696C76.0742 72.9669 76.3815 72.3367 76.8398 71.8054C77.2982 71.269 77.8893 70.8575 78.6133 70.571C79.3424 70.2794 80.1862 70.1335 81.1445 70.1335C81.8112 70.1335 82.4492 70.2117 83.0586 70.3679C83.6732 70.5242 84.2174 70.7664 84.6914 71.0945C85.1706 71.4226 85.5482 71.8445 85.8242 72.3601C86.1003 72.8705 86.2383 73.4825 86.2383 74.196V82.2898H83.082V80.6257H82.9883C82.7956 81.0007 82.5378 81.3315 82.2148 81.6179C81.8919 81.8992 81.5039 82.1205 81.0508 82.282C80.5977 82.4382 80.0742 82.5164 79.4805 82.5164ZM80.4336 80.2195C80.9232 80.2195 81.3555 80.1231 81.7305 79.9304C82.1055 79.7325 82.3997 79.4669 82.6133 79.1335C82.8268 78.8002 82.9336 78.4226 82.9336 78.0007V76.7273C82.8294 76.795 82.6862 76.8575 82.5039 76.9148C82.3268 76.9669 82.1263 77.0164 81.9023 77.0632C81.6784 77.1049 81.4544 77.144 81.2305 77.1804C81.0065 77.2117 80.8034 77.2403 80.6211 77.2664C80.2305 77.3236 79.8893 77.4148 79.5977 77.5398C79.306 77.6648 79.0794 77.8341 78.918 78.0476C78.7565 78.2559 78.6758 78.5164 78.6758 78.8289C78.6758 79.282 78.8398 79.6283 79.168 79.8679C79.5013 80.1023 79.9232 80.2195 80.4336 80.2195ZM92.1484 66.2898V82.2898H88.8203V66.2898H92.1484ZM99.9063 82.2898V70.2898H103.234V82.2898H99.9063ZM101.578 68.7429C101.083 68.7429 100.659 68.5789 100.305 68.2507C99.9557 67.9174 99.7812 67.519 99.7812 67.0554C99.7812 66.5971 99.9557 66.2039 100.305 65.8757C100.659 65.5424 101.083 65.3757 101.578 65.3757C102.073 65.3757 102.495 65.5424 102.844 65.8757C103.198 66.2039 103.375 66.5971 103.375 67.0554C103.375 67.519 103.198 67.9174 102.844 68.2507C102.495 68.5789 102.073 68.7429 101.578 68.7429ZM109.229 75.3523V82.2898H105.9V70.2898H109.072V72.407H109.213C109.479 71.7091 109.924 71.157 110.549 70.7507C111.174 70.3393 111.932 70.1335 112.822 70.1335C113.656 70.1335 114.382 70.3158 115.002 70.6804C115.622 71.045 116.104 71.5658 116.447 72.2429C116.791 72.9148 116.963 73.7169 116.963 74.6492V82.2898H113.635V75.2429C113.64 74.5085 113.452 73.9356 113.072 73.5242C112.692 73.1075 112.169 72.8992 111.502 72.8992C111.054 72.8992 110.658 72.9955 110.314 73.1882C109.976 73.3809 109.71 73.6622 109.518 74.032C109.33 74.3966 109.234 74.8367 109.229 75.3523ZM125.008 82.5242C123.779 82.5242 122.721 82.2638 121.836 81.7429C120.956 81.2169 120.279 80.4877 119.805 79.5554C119.336 78.6231 119.102 77.5502 119.102 76.3367C119.102 75.1075 119.339 74.0294 119.813 73.1023C120.292 72.17 120.971 71.4434 121.852 70.9226C122.732 70.3966 123.779 70.1335 124.992 70.1335C126.039 70.1335 126.956 70.3236 127.742 70.7039C128.529 71.0841 129.151 71.6179 129.609 72.3054C130.068 72.9929 130.32 73.8002 130.367 74.7273H127.227C127.138 74.1283 126.904 73.6466 126.523 73.282C126.148 72.9122 125.656 72.7273 125.047 72.7273C124.531 72.7273 124.081 72.8679 123.695 73.1492C123.315 73.4252 123.018 73.8289 122.805 74.3601C122.591 74.8914 122.484 75.5346 122.484 76.2898C122.484 77.0554 122.589 77.7065 122.797 78.2429C123.01 78.7794 123.31 79.1882 123.695 79.4695C124.081 79.7507 124.531 79.8914 125.047 79.8914C125.427 79.8914 125.768 79.8132 126.07 79.657C126.378 79.5007 126.63 79.2742 126.828 78.9773C127.031 78.6752 127.164 78.3132 127.227 77.8914H130.367C130.315 78.808 130.065 79.6153 129.617 80.3132C129.174 81.0059 128.563 81.5476 127.781 81.9382C127 82.3289 126.076 82.5242 125.008 82.5242ZM137.92 82.5242C136.706 82.5242 135.657 82.2664 134.771 81.7507C133.891 81.2299 133.212 80.5059 132.732 79.5789C132.253 78.6466 132.014 77.5658 132.014 76.3367C132.014 75.0971 132.253 74.0138 132.732 73.0867C133.212 72.1544 133.891 71.4304 134.771 70.9148C135.657 70.394 136.706 70.1335 137.92 70.1335C139.133 70.1335 140.18 70.394 141.061 70.9148C141.946 71.4304 142.628 72.1544 143.107 73.0867C143.587 74.0138 143.826 75.0971 143.826 76.3367C143.826 77.5658 143.587 78.6466 143.107 79.5789C142.628 80.5059 141.946 81.2299 141.061 81.7507C140.18 82.2664 139.133 82.5242 137.92 82.5242ZM137.936 79.946C138.488 79.946 138.949 79.7898 139.318 79.4773C139.688 79.1596 139.967 78.7273 140.154 78.1804C140.347 77.6335 140.443 77.0111 140.443 76.3132C140.443 75.6153 140.347 74.9929 140.154 74.446C139.967 73.8992 139.688 73.4669 139.318 73.1492C138.949 72.8315 138.488 72.6726 137.936 72.6726C137.378 72.6726 136.91 72.8315 136.529 73.1492C136.154 73.4669 135.87 73.8992 135.678 74.446C135.49 74.9929 135.396 75.6153 135.396 76.3132C135.396 77.0111 135.49 77.6335 135.678 78.1804C135.87 78.7273 136.154 79.1596 136.529 79.4773C136.91 79.7898 137.378 79.946 137.936 79.946ZM145.99 82.2898V70.2898H149.162V72.407H149.303C149.553 71.7039 149.969 71.1492 150.553 70.7429C151.136 70.3367 151.834 70.1335 152.646 70.1335C153.469 70.1335 154.17 70.3393 154.748 70.7507C155.326 71.157 155.712 71.7091 155.904 72.407H156.029C156.274 71.7195 156.717 71.17 157.357 70.7585C158.003 70.3419 158.766 70.1335 159.646 70.1335C160.766 70.1335 161.675 70.4903 162.373 71.2039C163.076 71.9122 163.428 72.9174 163.428 74.2195V82.2898H160.107V74.8757C160.107 74.2091 159.93 73.7091 159.576 73.3757C159.222 73.0424 158.779 72.8757 158.248 72.8757C157.644 72.8757 157.173 73.0684 156.834 73.4539C156.495 73.8341 156.326 74.3367 156.326 74.9617V82.2898H153.1V74.8054C153.1 74.2169 152.93 73.7481 152.592 73.3992C152.258 73.0502 151.818 72.8757 151.271 72.8757C150.902 72.8757 150.568 72.9695 150.271 73.157C149.98 73.3393 149.748 73.5971 149.576 73.9304C149.404 74.2585 149.318 74.644 149.318 75.0867V82.2898H145.99ZM171.525 82.5242C170.291 82.5242 169.229 82.2742 168.338 81.7742C167.452 81.269 166.77 80.5554 166.291 79.6335C165.812 78.7065 165.572 77.6101 165.572 76.3445C165.572 75.1101 165.812 74.0268 166.291 73.0945C166.77 72.1622 167.445 71.4356 168.314 70.9148C169.189 70.394 170.215 70.1335 171.393 70.1335C172.184 70.1335 172.921 70.2611 173.604 70.5164C174.291 70.7664 174.89 71.144 175.4 71.6492C175.916 72.1544 176.317 72.7898 176.604 73.5554C176.89 74.3158 177.033 75.2065 177.033 76.2273V77.1414H166.9V75.0789H173.9C173.9 74.5997 173.796 74.1752 173.588 73.8054C173.38 73.4356 173.09 73.1466 172.721 72.9382C172.356 72.7247 171.932 72.6179 171.447 72.6179C170.942 72.6179 170.494 72.7351 170.104 72.9695C169.718 73.1986 169.416 73.5085 169.197 73.8992C168.979 74.2846 168.867 74.7143 168.861 75.1882V77.1492C168.861 77.7429 168.971 78.2559 169.189 78.6882C169.413 79.1205 169.729 79.4539 170.135 79.6882C170.541 79.9226 171.023 80.0398 171.58 80.0398C171.95 80.0398 172.288 79.9877 172.596 79.8835C172.903 79.7794 173.166 79.6231 173.385 79.4148C173.604 79.2065 173.77 78.9513 173.885 78.6492L176.963 78.8523C176.807 79.5919 176.486 80.2377 176.002 80.7898C175.523 81.3367 174.903 81.7638 174.143 82.071C173.387 82.3731 172.515 82.5242 171.525 82.5242Z" fill="#1E1B39"/>
<path d="M40.1926 40.1989H42.008L45.6387 46.3097H45.7921L49.4228 40.1989H51.2381L46.508 47.8949V53.2898H44.9228V47.8949L40.1926 40.1989ZM55.6838 53.4943C54.7974 53.4943 54.0197 53.2834 53.3507 52.8615C52.6859 52.4397 52.166 51.8495 51.791 51.0909C51.4203 50.3324 51.2349 49.446 51.2349 48.4318C51.2349 47.4091 51.4203 46.5164 51.791 45.7536C52.166 44.9908 52.6859 44.3985 53.3507 43.9766C54.0197 43.5547 54.7974 43.3438 55.6838 43.3438C56.5701 43.3438 57.3457 43.5547 58.0105 43.9766C58.6795 44.3985 59.1994 44.9908 59.5701 45.7536C59.9451 46.5164 60.1326 47.4091 60.1326 48.4318C60.1326 49.446 59.9451 50.3324 59.5701 51.0909C59.1994 51.8495 58.6795 52.4397 58.0105 52.8615C57.3457 53.2834 56.5701 53.4943 55.6838 53.4943ZM55.6838 52.1392C56.3571 52.1392 56.911 51.9666 57.3457 51.6215C57.7804 51.2763 58.1021 50.8225 58.3109 50.26C58.5197 49.6975 58.6241 49.0881 58.6241 48.4318C58.6241 47.7756 58.5197 47.1641 58.3109 46.5973C58.1021 46.0306 57.7804 45.5725 57.3457 45.223C56.911 44.8736 56.3571 44.6989 55.6838 44.6989C55.0105 44.6989 54.4565 44.8736 54.0218 45.223C53.5872 45.5725 53.2654 46.0306 53.0566 46.5973C52.8478 47.1641 52.7434 47.7756 52.7434 48.4318C52.7434 49.0881 52.8478 49.6975 53.0566 50.26C53.2654 50.8225 53.5872 51.2763 54.0218 51.6215C54.4565 51.9666 55.0105 52.1392 55.6838 52.1392ZM68.6229 49.2756V43.4716H70.1314V53.2898H68.6229V51.6279H68.5206C68.2905 52.1264 67.9325 52.5504 67.4467 52.8999C66.9609 53.2451 66.3473 53.4176 65.6058 53.4176C64.9922 53.4176 64.4467 53.2834 63.9695 53.0149C63.4922 52.7422 63.1172 52.3331 62.8445 51.7877C62.5717 51.2379 62.4354 50.5455 62.4354 49.7102V43.4716H63.9439V49.608C63.9439 50.3239 64.1442 50.8949 64.5447 51.321C64.9496 51.7472 65.4652 51.9602 66.0916 51.9602C66.4666 51.9602 66.848 51.8644 67.2358 51.6726C67.6278 51.4808 67.956 51.1868 68.2202 50.7905C68.4886 50.3942 68.6229 49.8892 68.6229 49.2756ZM72.8944 53.2898V43.4716H74.3517V44.9546H74.454C74.633 44.4688 74.9569 44.0746 75.4256 43.772C75.8944 43.4695 76.4228 43.3182 77.0108 43.3182C77.1216 43.3182 77.2601 43.3203 77.4263 43.3246C77.5925 43.3289 77.7182 43.3352 77.8034 43.3438V44.8779C77.7523 44.8651 77.6351 44.8459 77.4519 44.8203C77.2729 44.7905 77.0833 44.7756 76.883 44.7756C76.4057 44.7756 75.9796 44.8757 75.6046 45.076C75.2338 45.272 74.9398 45.5448 74.7225 45.8942C74.5094 46.2394 74.4029 46.6335 74.4029 47.0767V53.2898H72.8944ZM84.8587 53.2898V40.1989H86.4439V51.8835H92.5291V53.2898H84.8587ZM97.6683 53.5199C97.0462 53.5199 96.4815 53.4027 95.9744 53.1683C95.4673 52.9297 95.0646 52.5867 94.7663 52.1392C94.468 51.6875 94.3189 51.1421 94.3189 50.5029C94.3189 49.9404 94.4297 49.4844 94.6513 49.135C94.8729 48.7813 95.169 48.5043 95.5398 48.304C95.9105 48.1037 96.3196 47.9546 96.767 47.8566C97.2188 47.7543 97.6726 47.6733 98.1286 47.6137C98.7251 47.537 99.2088 47.4794 99.5795 47.4411C99.9545 47.3985 100.227 47.3281 100.398 47.2301C100.572 47.1321 100.66 46.9617 100.66 46.7188V46.6676C100.66 46.037 100.487 45.5469 100.142 45.1975C99.8011 44.848 99.2834 44.6733 98.5888 44.6733C97.8686 44.6733 97.304 44.831 96.8949 45.1463C96.4858 45.4617 96.1982 45.7983 96.032 46.1563L94.6001 45.6449C94.8558 45.0483 95.1967 44.5838 95.6229 44.2514C96.0533 43.9148 96.522 43.6804 97.0291 43.5483C97.5405 43.412 98.0433 43.3438 98.5376 43.3438C98.853 43.3438 99.2152 43.3821 99.6243 43.4588C100.038 43.5313 100.436 43.6825 100.82 43.9127C101.207 44.1428 101.529 44.4901 101.785 44.9546C102.04 45.4191 102.168 46.0412 102.168 46.821V53.2898H100.66V51.9602H100.583C100.481 52.1733 100.31 52.4013 100.072 52.6442C99.8331 52.8871 99.5156 53.0938 99.1193 53.2642C98.723 53.4347 98.2393 53.5199 97.6683 53.5199ZM97.8984 52.1648C98.495 52.1648 98.9979 52.0476 99.407 51.8132C99.8203 51.5789 100.131 51.2763 100.34 50.9056C100.553 50.5348 100.66 50.1449 100.66 49.7358V48.3551C100.596 48.4318 100.455 48.5022 100.238 48.5661C100.025 48.6257 99.7777 48.679 99.4964 48.7259C99.2195 48.7685 98.9489 48.8068 98.6847 48.8409C98.4247 48.8708 98.2138 48.8963 98.0518 48.9176C97.6598 48.9688 97.2933 49.0519 96.9524 49.1669C96.6158 49.2777 96.343 49.446 96.1342 49.6719C95.9297 49.8935 95.8274 50.196 95.8274 50.5796C95.8274 51.1037 96.0213 51.5 96.4091 51.7685C96.8011 52.0327 97.2976 52.1648 97.8984 52.1648ZM107.146 53.2898L104.155 43.4716H105.74L107.862 50.9887H107.964L110.061 43.4716H111.672L113.743 50.9631H113.845L115.967 43.4716H117.552L114.561 53.2898H113.078L110.93 45.7472H110.777L108.629 53.2898H107.146ZM124.814 53.2898V40.1989H132.663V41.6051H126.399V46.0284H132.075V47.4347H126.399V53.2898H124.814ZM135.174 53.2898V43.4716H136.682V53.2898H135.174ZM135.941 41.8352C135.647 41.8352 135.393 41.7351 135.18 41.5348C134.971 41.3345 134.867 41.0938 134.867 40.8125C134.867 40.5313 134.971 40.2905 135.18 40.0902C135.393 39.8899 135.647 39.7898 135.941 39.7898C136.235 39.7898 136.486 39.8899 136.695 40.0902C136.908 40.2905 137.015 40.5313 137.015 40.8125C137.015 41.0938 136.908 41.3345 136.695 41.5348C136.486 41.7351 136.235 41.8352 135.941 41.8352ZM139.445 53.2898V43.4716H140.903V44.9546H141.005C141.184 44.4688 141.508 44.0746 141.976 43.772C142.445 43.4695 142.974 43.3182 143.562 43.3182C143.672 43.3182 143.811 43.3203 143.977 43.3246C144.143 43.3289 144.269 43.3352 144.354 43.3438V44.8779C144.303 44.8651 144.186 44.8459 144.003 44.8203C143.824 44.7905 143.634 44.7756 143.434 44.7756C142.956 44.7756 142.53 44.8757 142.155 45.076C141.785 45.272 141.491 45.5448 141.273 45.8942C141.06 46.2394 140.954 46.6335 140.954 47.0767V53.2898H139.445ZM146.142 53.2898V43.4716H147.6V45.0057H147.728C147.932 44.4816 148.262 44.0746 148.718 43.7848C149.174 43.4908 149.722 43.3438 150.361 43.3438C151.009 43.3438 151.548 43.4908 151.978 43.7848C152.413 44.0746 152.752 44.4816 152.995 45.0057H153.097C153.348 44.4986 153.725 44.0959 154.228 43.7976C154.731 43.4951 155.334 43.3438 156.037 43.3438C156.915 43.3438 157.633 43.6186 158.191 44.1683C158.75 44.7138 159.029 45.5639 159.029 46.7188V53.2898H157.52V46.7188C157.52 45.9943 157.322 45.4766 156.926 45.1655C156.529 44.8544 156.063 44.6989 155.526 44.6989C154.836 44.6989 154.301 44.9077 153.922 45.3253C153.542 45.7387 153.353 46.2628 153.353 46.8977V53.2898H151.819V46.5654C151.819 46.0071 151.637 45.5576 151.275 45.2166C150.913 44.8715 150.446 44.6989 149.875 44.6989C149.483 44.6989 149.117 44.8033 148.776 45.0121C148.439 45.2209 148.167 45.5107 147.958 45.8814C147.753 46.2479 147.651 46.6719 147.651 47.1534V53.2898H146.142Z" fill="#9291A5"/>
<defs>
<filter id="filter0_d_143_1084" x="0.642578" y="0.289795" width="522" height="422" filterUnits="userSpaceOnUse" color-interpolation-filters="sRGB">
<feFlood flood-opacity="0" result="BackgroundImageFix"/>
<feColorMatrix in="SourceAlpha" type="matrix" values="0 0 0 0 0 0 0 0 0 0 0 0 0 0 0 0 0 0 127 0" result="hardAlpha"/>
<feOffset dy="2"/>
<feGaussianBlur stdDeviation="3"/>
<feComposite in2="hardAlpha" operator="out"/>
<feColorMatrix type="matrix" values="0 0 0 0 0.0509804 0 0 0 0 0.0392157 0 0 0 0 0.172549 0 0 0 0.08 0"/>
<feBlend mode="normal" in2="BackgroundImageFix" result="effect1_dropShadow_143_1084"/>
<feBlend mode="normal" in="SourceGraphic" in2="effect1_dropShadow_143_1084" result="shape"/>
</filter>
<filter id="filter1_d_143_1084" x="304.75" y="177.471" width="34.8945" height="34.894" filterUnits="userSpaceOnUse" color-interpolation-filters="sRGB">
<feFlood flood-opacity="0" result="BackgroundImageFix"/>
<feColorMatrix in="SourceAlpha" type="matrix" values="0 0 0 0 0 0 0 0 0 0 0 0 0 0 0 0 0 0 127 0" result="hardAlpha"/>
<feOffset dy="8"/>
<feGaussianBlur stdDeviation="4"/>
<feComposite in2="hardAlpha" operator="out"/>
<feColorMatrix type="matrix" values="0 0 0 0 0.0509804 0 0 0 0 0.0392157 0 0 0 0 0.172549 0 0 0 0.08 0"/>
<feBlend mode="normal" in2="BackgroundImageFix" result="effect1_dropShadow_143_1084"/>
<feBlend mode="normal" in="SourceGraphic" in2="effect1_dropShadow_143_1084" result="shape"/>
</filter>
</defs>
</svg>
